<?xml version="1.0" encoding="utf-8"?>
<!-- Generator: Adobe Illustrator 22.0.1, SVG Export Plug-In . SVG Version: 6.00 Build 0)  -->
<svg version="1.1" id="dashboard" xmlns="http://www.w3.org/2000/svg" xmlns:xlink="http://www.w3.org/1999/xlink" x="0px" y="0px"
	 viewBox="0 0 23.2 18.5" style="enable-background:new 0 0 23.2 18.5;" xml:space="preserve">
<style type="text/css">
	.st0{fill:#8F9BB3;stroke:#17254A;stroke-width:0.25;stroke-miterlimit:10;}
</style>
<g id="Gruppe_10" transform="translate(0 0)">
	<g id="Gruppe_9">
		<path id="Pfad_6" class="st0" d="M19.7,3.5c-0.3-0.3-0.8-0.4-1.2-0.1C17.2,4.3,10.4,9,9.7,9.7c-1.1,1.1-1,2.8,0,3.8
			c1.1,1,2.8,1,3.8,0c0.7-0.7,5.4-7.5,6.3-8.9C20.1,4.3,20,3.8,19.7,3.5z M12.3,12.3c-0.4,0.4-0.9,0.4-1.3,0s-0.4-0.9,0-1.3
			c0.3-0.3,2.2-1.7,4.6-3.3C13.9,10,12.5,12,12.3,12.3z"/>
		<path id="Pfad_7" class="st0" d="M4.2,15.8l-1.1,0.5c-1.4-2.5-1.6-5.5-0.6-8.2l1.3,0.6c0.5,0.2,1,0,1.2-0.4c0.2-0.5,0-1-0.4-1.2
			l0,0L3.3,6.5c1.6-2.6,4.4-4.4,7.4-4.6v1.4c0,0.5,0.4,0.9,0.9,0.9c0.5,0,0.9-0.4,0.9-0.9V1.9c1.1,0.1,2.1,0.4,3.1,0.8
			c0.5,0.2,1,0,1.2-0.4s0-1-0.4-1.2c0,0,0,0,0,0C10.5-1.6,3.7,1,1,6.8c-1.7,3.7-1.3,7.9,0.9,11.2c0.3,0.4,0.7,0.5,1.2,0.3L5,17.5
			c0.5-0.2,0.6-0.8,0.4-1.2C5.2,15.8,4.6,15.6,4.2,15.8L4.2,15.8L4.2,15.8z"/>
		<path id="Pfad_8" class="st0" d="M22.2,6.8C22,6.4,21.4,6.2,21,6.4c-0.4,0.2-0.6,0.7-0.4,1.2c1.3,2.8,1.1,6.1-0.4,8.8L19,15.8
			c-0.5-0.2-1,0-1.2,0.4c-0.2,0.5,0,1,0.4,1.2l0,0l1.9,0.9c0.4,0.2,0.9,0.1,1.1-0.3C23.5,14.7,23.8,10.5,22.2,6.8L22.2,6.8z"/>
	</g>
</g>
</svg>
