<svg id="undraw_timeline_9u4u" xmlns="http://www.w3.org/2000/svg" xmlns:xlink="http://www.w3.org/1999/xlink" width="989" height="781.43" viewBox="0 0 989 781.43">
  <defs>
    <linearGradient id="linear-gradient" x1="0.459" y1="1.033" x2="0.459" y2="0.028" gradientUnits="objectBoundingBox">
      <stop offset="0" stop-color="gray" stop-opacity="0.251"/>
      <stop offset="0.54" stop-color="gray" stop-opacity="0.122"/>
      <stop offset="1" stop-color="gray" stop-opacity="0.102"/>
    </linearGradient>
  </defs>
  <path id="Pfad_745" data-name="Pfad 745" d="M596,263.22c45.59-8,98.57-6.61,155.7,0-11.59-65.73-12.12-130.11,0-192.93H596a543.762,543.762,0,0,0,0,192.93Z" transform="translate(-105.5 -59.28)" fill="#f2f2f2"/>
  <rect id="Rechteck_316" data-name="Rechteck 316" width="54.16" height="17.77" transform="translate(591.14 17.77) rotate(180)" fill="#17254a"/>
  <path id="Pfad_746" data-name="Pfad 746" d="M474.8,644.15c45.59-8,98.57-6.61,155.7,0-11.59-65.73-12.12-130.11,0-192.93H474.8a543.76,543.76,0,0,0,0,192.93Z" transform="translate(-105.5 -59.28)" opacity="0.1"/>
  <path id="Pfad_747" data-name="Pfad 747" d="M467.8,635.15c45.59-8,98.57-6.61,155.7,0-11.59-65.73-12.12-130.11,0-192.93H467.8a543.762,543.762,0,0,0,0,192.93Z" transform="translate(-105.5 -59.28)" fill="#f2f2f2"/>
  <rect id="Rechteck_317" data-name="Rechteck 317" width="54.16" height="17.77" transform="translate(462.92 389.7) rotate(180)" fill="#17254a"/>
  <path id="Pfad_748" data-name="Pfad 748" d="M334,320.22S394.39,149.41,528.93,147.9" transform="translate(-105.5 -59.28)" fill="none" stroke="#17254a" stroke-miterlimit="10" stroke-width="2"/>
  <path id="Pfad_749" data-name="Pfad 749" d="M541,148.22c-5.73,2-12.85,5.41-17.31,9.12l3.66-9.43-3.22-9.59C528.41,142.23,535.37,146,541,148.22Z" transform="translate(-105.5 -59.28)" fill="#17254a"/>
  <path id="Pfad_750" data-name="Pfad 750" d="M339,385.22s-5.46,137.44,73.06,156.15" transform="translate(-105.5 -59.28)" fill="none" stroke="#17254a" stroke-miterlimit="10" stroke-width="2"/>
  <path id="Pfad_751" data-name="Pfad 751" d="M424,543.22c-5.95,1.16-13.48,3.57-18.41,6.62l4.93-8.83-1.86-9.94C412.36,535.53,418.73,540.22,424,543.22Z" transform="translate(-105.5 -59.28)" fill="#17254a"/>
  <path id="Pfad_752" data-name="Pfad 752" d="M355,340.22S779.62,269.44,852.49,357" transform="translate(-105.5 -59.28)" fill="none" stroke="#17254a" stroke-miterlimit="10" stroke-width="2"/>
  <path id="Pfad_753" data-name="Pfad 753" d="M859,367.22c-4.9-3.57-11.79-7.46-17.37-9l9.82-2.39,6-8.13C856.72,353.46,857.62,361.32,859,367.22Z" transform="translate(-105.5 -59.28)" fill="#17254a"/>
  <g id="Gruppe_345" data-name="Gruppe 345">
    <ellipse id="Ellipse_133" data-name="Ellipse 133" cx="494.5" cy="33" rx="494.5" ry="33" transform="translate(0 715.43)" fill="#e7f2e1"/>
  </g>
  <path id="Pfad_754" data-name="Pfad 754" d="M1034.26,561.74c-40.39,22.6-80.61,57.11-120.74,98.3C881,601.76,840.78,551.5,791.71,510.43l120.74-98.3a543.881,543.881,0,0,1,121.81,149.61Z" transform="translate(-105.5 -59.28)" opacity="0.1"/>
  <path id="Pfad_755" data-name="Pfad 755" d="M1036.26,553.74c-40.39,22.6-80.61,57.11-120.74,98.3C883,593.76,842.78,543.5,793.71,502.43l120.74-98.3a543.88,543.88,0,0,1,121.81,149.61Z" transform="translate(-105.5 -59.28)" fill="#f2f2f2"/>
  <rect id="Rechteck_318" data-name="Rechteck 318" width="54.16" height="17.77" transform="matrix(0.775, -0.631, 0.631, 0.775, 723.99, 399.868)" fill="#17254a"/>
  <path id="Pfad_756" data-name="Pfad 756" d="M1044.15,795a9.782,9.782,0,0,0-2.17-2.42c-4.37-4.12-6.4-10.19-7.48-16.12s-1.39-12-3.12-17.82a59.186,59.186,0,0,0-3.52-8.67c-1-2.13-2.26-6.33-4.09-7.82a2.83,2.83,0,0,0-1.26-.62,14.709,14.709,0,0,0-3.62-4.81c-2.86-2.59-6.35-4.65-8.26-8a18,18,0,0,0-1.93-3.3c-1.29-1.42-3.33-2-4.52-3.5-1.55-1.94-1.2-4.71-1-7.19s0-5.43-2.14-6.72c-1.28-.79-2.93-.72-4.26-1.41-2-1-2.79-3.53-2.75-5.78s.74-4.44.92-6.68c.56-7.16-4.16-14.28-2.34-21.22.69-2.63,2.27-4.92,3.44-7.36a16.1,16.1,0,0,0,1-2.54,35.35,35.35,0,0,0,9.74,2.34c-5.51-12.35-4.11-26.72-6.68-40l.33-.46a20.78,20.78,0,0,0,4.22-11.85c0-5-2.31-9.57-3.35-14.4-.89-4.12-.85-8.41-2-12.46a37.649,37.649,0,0,0-3.16-7.22q-1.87-3.46-3.93-6.82-1.92-6.36-3.85-12.72c-1.8-6-3.65-12-7.15-17.14-1.28-1.89-1.67-5.7-3.64-6.85a8.81,8.81,0,0,0-5.2-.9c-2.78-1.56-5.22-3.81-5.57-6.89a6.649,6.649,0,0,1,.2-2h.34c4.4-.41,6.63-4.29,8.92-7.68,3.7-5.51,2.29-12.95,0-19.21a13.081,13.081,0,0,0-3-5.29c-3.21-3-8.29-2.33-12.43-3.78a40.143,40.143,0,0,0-4.11-1.55c-2.75-.65-5.63.25-8.15,1.52s-4.87,2.91-7.51,3.92-5.9,1.79-6.55,4.5a5,5,0,0,0,.22,2.73,10.2,10.2,0,0,0,3.09,4.45,17.82,17.82,0,0,0,10.87,24.83c.76,1.21,1.47,2.45,2.12,3.73,1.16,2.24,2.14,4.88,1.74,7.28a22.344,22.344,0,0,0-2,2.44c-2.87,4-4.5,8.7-6,13.37a141.358,141.358,0,0,0-4.83,18.28c-2.44,5.18-5.42,10.14-7.19,15.59a35.2,35.2,0,0,1-9.38-1.25l-8.44-1.92c-2.94-.66-6-1.39-8.3-3.32-1.22-1-2.17-2.33-3.41-3.33s-3.73-2.15-5.09-1.33a4,4,0,0,0-.69.53c-1.24-2.51-4.28,3.89-5.72,1.52-2.06-3.41-9.29.54-13.19-.1a9.25,9.25,0,0,0-6.79,1.57c-2.28,1.63-3.71,5-2,7.28a12.51,12.51,0,0,0,1.39,1.43,28.59,28.59,0,0,1,3.09,4.28c3.08,4.43,10.17.52,15.55,1.54-.12.34,3.77-8.09,3.65-7.74-.71,2.07-2.22,4.59-1.84,6.75l37.54,12.85a22.861,22.861,0,0,0,7.56,1.66,12.71,12.71,0,0,0,3-.39v1.99c.1,13.19-2,26.3-2.39,39.48-.07,2.4,0,5,1.52,6.88,1.7,2.06,4.72,2.46,7.35,2a16.664,16.664,0,0,0,1.86-.41,69.191,69.191,0,0,1,1.92,10.1l2.49,17.76a27.087,27.087,0,0,1,.39,5.54c-.29,4.18-2.5,7.94-4.1,11.81s-2.55,8.49-.45,12.11c.66,1.12,1.57,2.08,2.16,3.24a13.1,13.1,0,0,1,1,5.67q.23,8.1.44,16.18a1.89,1.89,0,0,0-1.26.26c-2.08,1.61-1.85,9.33-2,11.72-.16,4,0,8.08-.22,12.12a72.323,72.323,0,0,1-2.68,16.13,10.289,10.289,0,0,1-2.29,4.61,9.86,9.86,0,0,1-4.07,2.11,46.48,46.48,0,0,1-15.41,2.09c-2.11-.06-4.31-.27-6.27.54s-3.54,3-2.83,5c.61,1.68,2.46,2.48,4.13,3.11a66.292,66.292,0,0,1,11,5,30.809,30.809,0,0,0,4.25,2.42,21.907,21.907,0,0,0,4.38,1.08l17.73,3c3.63.63,8,1,10.31-2,1.25-1.62,1.43-3.82,1.37-5.87-.1-4-.9-8.08-.38-12.07a37.243,37.243,0,0,1,1.86-6.94l5.3-15.47c1.78-5.27,3.58-10.58,4.27-16.1.25-2,.23-4.27-1.3-5.53a3.692,3.692,0,0,0-1.32-.68c-.06-4.82-.69-9.64-.42-14.46.07-1.21.19-2.41.29-3.61a17.214,17.214,0,0,1,2.47,2.92c1.71,2.67,2.34,6.21,4.95,8,2.22,1.51,5.51,1.44,7.07,3.64a10.342,10.342,0,0,1,1.12,2.7,19.371,19.371,0,0,0,4,6.36,32.276,32.276,0,0,0,2.47,6.34l4.4,9.3a106.036,106.036,0,0,0,5,9.77,27.748,27.748,0,0,1,3.35,6.46c1.41,4.95-.89,10.37-4.53,14s-8.44,5.73-13.17,7.68a3.582,3.582,0,0,0-1.34.8,2.59,2.59,0,0,0-.61,1.74c0,2.31,1.9,4.28,4.08,5a15.55,15.55,0,0,0,6.83.25c12.78-1.55,25.52-4.68,36.82-10.88a13.209,13.209,0,0,0,4.39-3.39,5.13,5.13,0,0,0,.75-5.31Z" transform="translate(-105.5 -59.28)" fill="url(#linear-gradient)"/>
  <path id="Pfad_757" data-name="Pfad 757" d="M990.14,570.78q3.2,4.9,6,10.06A37.171,37.171,0,0,1,999.3,588c1.16,4,1.13,8.27,2,12.36,1,4.8,3.34,9.38,3.34,14.29a20.56,20.56,0,0,1-4.22,11.76,56.277,56.277,0,0,1-8.82,9.11,187.681,187.681,0,0,1-12.48-61.21c-.1-2.91-.12-5.9.94-8.61.65-1.69,3.77-6.35,5.78-4.52.73.67.92,3.68,1.37,4.69a36.863,36.863,0,0,0,2.93,4.91Z" transform="translate(-105.5 -59.28)" fill="#2f2e41"/>
  <path id="Pfad_758" data-name="Pfad 758" d="M990.14,570.78q3.2,4.9,6,10.06A37.171,37.171,0,0,1,999.3,588c1.16,4,1.13,8.27,2,12.36,1,4.8,3.34,9.38,3.34,14.29a20.56,20.56,0,0,1-4.22,11.76,56.277,56.277,0,0,1-8.82,9.11,187.681,187.681,0,0,1-12.48-61.21c-.1-2.91-.12-5.9.94-8.61.65-1.69,3.77-6.35,5.78-4.52.73.67.92,3.68,1.37,4.69a36.863,36.863,0,0,0,2.93,4.91Z" transform="translate(-105.5 -59.28)" opacity="0.1"/>
  <path id="Pfad_759" data-name="Pfad 759" d="M882.79,581.7c-3.91-.64-8.25-.33-11.29,2.21a9.32,9.32,0,0,0-3.24,6.16c-.26,2.78,1.35,6.06,4.13,6.28a13.175,13.175,0,0,0,2-.13,29.882,29.882,0,0,1,5.24.43,21.39,21.39,0,0,0,18.23-7.36c2.39-2.95-.76-4.29-3.58-4.89C890.42,583.58,886.65,582.34,882.79,581.7Z" transform="translate(-105.5 -59.28)" fill="#fbbebe"/>
  <path id="Pfad_760" data-name="Pfad 760" d="M949.67,672l2.48,17.62a26.7,26.7,0,0,1,.38,5.5c-.29,4.15-2.5,7.88-4.09,11.72s-2.56,8.43-.45,12c.65,1.11,1.56,2.06,2.15,3.21a13,13,0,0,1,1,5.64l.68,25a157.323,157.323,0,0,0,23.18-.12,1.3,1.3,0,0,0,.84-.27,1.34,1.34,0,0,0,.29-.9c.34-5.85-.68-11.71-.35-17.56.12-2.14.42-4.28.46-6.42.12-8.71-4.18-17.24-2.88-25.86a57.5,57.5,0,0,1,1.6-6.43c4.11-14.95,3.24-30.76,2.33-46.24a1.1,1.1,0,0,0-.2-.71,1.13,1.13,0,0,0-.54-.29,28.48,28.48,0,0,0-25.78,4.91c-1.09.88-3.84,1.72-4.56,2.77-1,1.47.31,2.92.89,4.48A56.757,56.757,0,0,1,949.67,672Z" transform="translate(-105.5 -59.28)" fill="#3f3d56"/>
  <path id="Pfad_761" data-name="Pfad 761" d="M949.67,672l2.48,17.62a26.7,26.7,0,0,1,.38,5.5c-.29,4.15-2.5,7.88-4.09,11.72s-2.56,8.43-.45,12c.65,1.11,1.56,2.06,2.15,3.21a13,13,0,0,1,1,5.64l.68,25a157.323,157.323,0,0,0,23.18-.12,1.3,1.3,0,0,0,.84-.27,1.34,1.34,0,0,0,.29-.9c.34-5.85-.68-11.71-.35-17.56.12-2.14.42-4.28.46-6.42.12-8.71-4.18-17.24-2.88-25.86a57.5,57.5,0,0,1,1.6-6.43c4.11-14.95,3.24-30.76,2.33-46.24a1.1,1.1,0,0,0-.2-.71,1.13,1.13,0,0,0-.54-.29,28.48,28.48,0,0,0-25.78,4.91c-1.09.88-3.84,1.72-4.56,2.77-1,1.47.31,2.92.89,4.48A56.757,56.757,0,0,1,949.67,672Z" transform="translate(-105.5 -59.28)" fill="#1e2d55"/>
  <path id="Pfad_762" data-name="Pfad 762" d="M996,666.71c-1.17,2.43-2.74,4.7-3.44,7.31-1.82,6.89,2.89,14,2.33,21.06-.18,2.22-.87,4.4-.92,6.63s.77,4.7,2.75,5.73c1.33.69,3,.62,4.25,1.4,2.11,1.28,2.35,4.22,2.14,6.67s-.56,5.21,1,7.14c1.19,1.49,3.23,2.06,4.51,3.47a17.248,17.248,0,0,1,1.93,3.27c1.91,3.33,5.4,5.38,8.26,7.94s5.28,6.47,4,10.09c-.94,2.67-3.58,4.3-6.12,5.56a64.9,64.9,0,0,1-14.57,5.14,3.391,3.391,0,0,1-1.67.09,3.569,3.569,0,0,1-1.46-1c-2.95-2.88-6-5.91-7.36-9.81a10.211,10.211,0,0,0-1.12-2.68c-1.56-2.18-4.85-2.11-7.07-3.61-2.6-1.77-3.23-5.29-4.93-7.94s-4.19-4.22-6-6.56c-3.06-3.88-3.81-9.06-6-13.49a62.745,62.745,0,0,1-2.86-5.6,30.386,30.386,0,0,1-1.37-7.24c-1.41-11.67-5-23.44-2.74-35,.5-2.55,1.27-5,1.59-7.62.55-4.54-.32-9.17.35-13.7a3.73,3.73,0,0,1,1.51-2.9,4,4,0,0,1,1.72-.36,118.6,118.6,0,0,1,17.78.4c3,.3,6.36.91,8.16,3.35,1.53,2.1,1.45,4.92,1.94,7.47.61,3.13,2.2,4.85,3.87,7.31S997.27,664.17,996,666.71Z" transform="translate(-105.5 -59.28)" fill="#1e2d55"/>
  <path id="Pfad_763" data-name="Pfad 763" d="M973,748c1.58,0,3.33-.1,4.55.91,1.52,1.24,1.54,3.53,1.3,5.48-.7,5.48-2.49,10.75-4.28,16l-5.32,15.6a37,37,0,0,0-1.86,6.89c-.52,4,.28,8,.38,12,0,2-.13,4.22-1.38,5.82-2.26,2.91-6.67,2.57-10.3,2l-17.71-3a21.089,21.089,0,0,1-4.38-1.08,28.685,28.685,0,0,1-4.25-2.39,65.381,65.381,0,0,0-11-5c-1.66-.63-3.52-1.42-4.12-3.09-.71-2,.87-4.19,2.83-5s4.15-.6,6.27-.53a46.719,46.719,0,0,0,15.4-2.09,9.839,9.839,0,0,0,4.06-2.09,10.1,10.1,0,0,0,2.29-4.57,70.252,70.252,0,0,0,2.68-16c.21-4,.07-8,.23-12,.1-2.38-.13-10,1.95-11.63,1.59-1.22,8.13,2.14,10.28,2.64A50,50,0,0,0,973,748Z" transform="translate(-105.5 -59.28)" fill="#2f2e41"/>
  <path id="Pfad_764" data-name="Pfad 764" d="M1031.31,759.09c1.73,5.74,2,11.79,3.12,17.68s3.1,11.91,7.47,16a9.692,9.692,0,0,1,2.17,2.4,5.06,5.06,0,0,1-.75,5.23,13.23,13.23,0,0,1-4.39,3.36c-11.29,6.17-24,9.27-36.81,10.81a15.36,15.36,0,0,1-6.82-.24c-2.18-.74-4.11-2.7-4.07-5a2.53,2.53,0,0,1,.6-1.72,3.618,3.618,0,0,1,1.35-.8c4.72-1.93,9.51-4,13.16-7.62s5.94-9,4.53-13.86a27,27,0,0,0-3.35-6.41,108.516,108.516,0,0,1-5-9.7l-4.4-9.23c-1.29-2.7-2.59-5.48-2.81-8.46a40.421,40.421,0,0,0,16.22-2.6,25.242,25.242,0,0,0,6.67-4c1.7-1.42,3.25-4.07,5.54-2.21,1.84,1.48,3,5.64,4.08,7.76A57.317,57.317,0,0,1,1031.31,759.09Z" transform="translate(-105.5 -59.28)" fill="#2f2e41"/>
  <path id="Pfad_765" data-name="Pfad 765" d="M966.83,529.91c.44,3.83,4.16,6.37,7.71,7.88L952.07,545c1.45-2.78.28-6.17-1.16-9a50.09,50.09,0,0,0-4-6.4c-.22-.32-.47-.71-.31-1.06a1.12,1.12,0,0,1,.63-.49c4.62-2.06,9.38-4.19,14.43-4.94,1.46-.22,4.22-.8,5.31.68S966.62,528.14,966.83,529.91Z" transform="translate(-105.5 -59.28)" fill="#fbbebe"/>
  <path id="Pfad_766" data-name="Pfad 766" d="M966.83,529.91c.44,3.83,4.16,6.37,7.71,7.88L952.07,545c1.45-2.78.28-6.17-1.16-9a50.09,50.09,0,0,0-4-6.4c-.22-.32-.47-.71-.31-1.06a1.12,1.12,0,0,1,.63-.49c4.62-2.06,9.38-4.19,14.43-4.94,1.46-.22,4.22-.8,5.31.68S966.62,528.14,966.83,529.91Z" transform="translate(-105.5 -59.28)" opacity="0.1"/>
  <circle id="Ellipse_134" data-name="Ellipse 134" cx="17.62" cy="17.62" r="17.62" transform="translate(830.65 438.5)" fill="#fbbebe"/>
  <path id="Pfad_767" data-name="Pfad 767" d="M938.54,660.4c1.71,2,4.72,2.44,7.35,2,6.15-1,11.18-5.53,17.2-7.17,7.38-2,15.19.58,22.16,3.72s13.9,6.95,21.52,7.55c-6.89-15.36-2.95-33.85-9.54-49.34-1.61-3.79-3.86-7.44-4.22-11.54-.45-5.09,2.09-10,2.48-15.06.36-4.51-1-9-2.3-13.29q-2.41-7.92-4.82-15.85c-1.8-5.91-3.65-11.91-7.14-17-1.29-1.87-1.68-5.65-3.64-6.79-4.28-2.47-10.77.65-15.41.82s-8.87,3.47-11.58,7.19c-2.87,4-4.5,8.64-6,13.28a125.925,125.925,0,0,0-5.33,21.23c-.15,1.08-.28,2.16-.38,3.25-1,10.27.46,20.6.54,30.91v.07c.1,13.09-2,26.1-2.39,39.18C937,656,937,658.57,938.54,660.4Z" transform="translate(-105.5 -59.28)" fill="#17254a"/>
  <path id="Pfad_768" data-name="Pfad 768" d="M939.42,614.32c3.45-.87,6.57-3.1,9.25-5.53a39,39,0,0,0,6.14-6.95,50.132,50.132,0,0,0,5.29-11.17,129.157,129.157,0,0,0,7-32.27c.26-3,.34-6.21-1.45-8.59a7.24,7.24,0,0,0-8.75-2.13c-2.36,1.16-3.89,3.49-5.31,5.71-2.81,4.43-5.64,8.9-7.45,13.82-.8,2.18-1.39,4.43-2.17,6.62a62.006,62.006,0,0,1-2.74,6.33c-.15,1.08-.28,2.16-.38,3.25C937.92,593.68,939.34,604,939.42,614.32Z" transform="translate(-105.5 -59.28)" opacity="0.1"/>
  <path id="Pfad_769" data-name="Pfad 769" d="M965.6,547.91c1.79,2.38,1.71,5.63,1.46,8.59a129.35,129.35,0,0,1-7,32.28,49.431,49.431,0,0,1-5.29,11.16,38.669,38.669,0,0,1-6.14,6.95c-3.4,3.11-7.54,5.87-12.15,5.92a23.421,23.421,0,0,1-7.56-1.65l-37.51-12.75c-.38-2.14,1.13-4.63,1.84-6.69l2-5.94c.57-1.64,1.23-3.4,2.72-4.29s3.85.33,5.09,1.31,2.18,2.3,3.4,3.31c2.31,1.92,5.36,2.63,8.3,3.29l8.43,1.9a35.6,35.6,0,0,0,9.38,1.24c2.35-7.17,6.82-13.5,9.35-20.61.78-2.19,1.37-4.44,2.18-6.61,1.8-4.93,4.64-9.4,7.45-13.82,1.41-2.23,2.94-4.56,5.31-5.71a7.21,7.21,0,0,1,8.74,2.12Z" transform="translate(-105.5 -59.28)" fill="#17254a"/>
  <path id="Pfad_770" data-name="Pfad 770" d="M959.39,519.37a9,9,0,0,0-1.06-3.3,2.79,2.79,0,0,0-3-1.32c-1.76.55-2.35,3.28-4.19,3.37-1.24.06-2.13-1.2-2.52-2.39s-.6-2.52-1.53-3.36a5.68,5.68,0,0,0-2.18-1c-4.27-1.35-8.68-3.85-10.1-8.1a4.831,4.831,0,0,1-.23-2.71c.65-2.69,4-3.49,6.55-4.47s5-2.63,7.5-3.88,5.4-2.16,8.15-1.52a42.551,42.551,0,0,1,4.11,1.54c4.14,1.43,9.21.76,12.42,3.75a12.932,12.932,0,0,1,3,5.25c2.24,6.21,3.66,13.59-.05,19.06-2.29,3.37-4.51,7.22-8.91,7.62C962.23,528.36,960.2,523.69,959.39,519.37Z" transform="translate(-105.5 -59.28)" fill="#41301c"/>
  <g id="Gruppe_346" data-name="Gruppe 346" opacity="0.1">
    <path id="Pfad_771" data-name="Pfad 771" d="M951.57,513.61c-.39-1.18-.6-2.52-1.52-3.36a5.679,5.679,0,0,0-2.18-1c-4.28-1.35-8.68-3.85-10.11-8.1a4.92,4.92,0,0,1-.22-2.71,3.561,3.561,0,0,1,.53-1.19c-1.63.71-3.05,1.65-3.45,3.31a4.83,4.83,0,0,0,.23,2.71c1.42,4.25,5.83,6.75,10.1,8.1a5.68,5.68,0,0,1,2.18,1c.93.84,1.13,2.18,1.53,3.36s1.28,2.45,2.52,2.39,1.84-1.19,2.63-2.15C952.72,515.84,951.93,514.7,951.57,513.61Z" transform="translate(-105.5 -59.28)"/>
    <path id="Pfad_772" data-name="Pfad 772" d="M970.29,525.77c-5.14.47-7.17-4.2-8-8.52a8.651,8.651,0,0,0-1-3.29,2.8,2.8,0,0,0-3-1.33c-.95.3-1.56,1.24-2.21,2a3,3,0,0,1,2.26,1.39,9,9,0,0,1,1.06,3.3c.81,4.32,2.84,9,8,8.52a8.2,8.2,0,0,0,5.28-2.73,7.451,7.451,0,0,1-2.39.66Z" transform="translate(-105.5 -59.28)"/>
  </g>
  <path id="Pfad_773" data-name="Pfad 773" d="M359.39,442.06c-45.58-8-98.57-6.6-155.7,0,11.59-65.72,12.13-130.1,0-192.93h155.7a543.761,543.761,0,0,1,0,192.93Z" transform="translate(-105.5 -59.28)" fill="#f2f2f2"/>
  <rect id="Rechteck_320" data-name="Rechteck 320" width="54.16" height="17.77" transform="translate(153.28 178.85)" fill="#17254a"/>
  <g id="Gruppe_348" data-name="Gruppe 348">
    <rect id="Rechteck_319" data-name="Rechteck 319" width="96" height="13" transform="matrix(0.775, -0.631, 0.631, 0.775, 750.791, 466.482)" fill="#91db00"/>
    <rect id="Rechteck_321" data-name="Rechteck 321" width="96" height="13" transform="translate(388 433.43)" fill="#91db00"/>
    <rect id="Rechteck_322" data-name="Rechteck 322" width="96" height="13" transform="translate(388 460.43)" fill="#91db00"/>
    <rect id="Rechteck_323" data-name="Rechteck 323" width="96" height="13" transform="translate(516 43.43)" fill="#91db00"/>
    <rect id="Rechteck_324" data-name="Rechteck 324" width="96" height="13" transform="translate(516 70.43)" fill="#91db00"/>
    <rect id="Rechteck_325" data-name="Rechteck 325" width="96" height="13" transform="translate(132 225.43)" fill="#91db00"/>
  </g>
  <path id="Pfad_774" data-name="Pfad 774" d="M233.06,780.59l19.14-11.25a46,46,0,0,0-9.79-11.71L206.3,768.86l28.3-16.64a46,46,0,0,0-68.1,40.35c0,25.41,20.59,26.29,46,26.29s46-.88,46-26.29a45.75,45.75,0,0,0-3.95-18.66Z" transform="translate(-105.5 -59.28)" fill="#91db00"/>
  <path id="Pfad_775" data-name="Pfad 775" d="M237.93,805.29a35.813,35.813,0,0,0-6.78-5.33c-3.48-2.31-7.07-4.66-11.17-5.45-3.6-.68-7.31-.1-11-.31a25.71,25.71,0,0,1-16.81-7.7c-2.61-2.71-4.67-6-7.81-8.09-3.39-2.23-7.69-2.71-11.71-2.15a29.058,29.058,0,0,0-3.46.71,45.8,45.8,0,0,0-2.72,15.6c0,25.41,20.59,26.29,46,26.29,12.33,0,23.52-.21,31.78-3.33L242.9,813a35.892,35.892,0,0,0-4.97-7.71Z" transform="translate(-105.5 -59.28)" opacity="0.1"/>
  <path id="Pfad_776" data-name="Pfad 776" d="M703.24,743.9,677.85,729a61.218,61.218,0,0,1,13-15.53l47.89,14.89L701.21,706.3a61,61,0,0,1,90.31,53.51c0,33.69-27.31,34.85-61,34.85s-61-1.16-61-34.85A60.77,60.77,0,0,1,674.73,735Z" transform="translate(-105.5 -59.28)" fill="#91db00"/>
  <path id="Pfad_777" data-name="Pfad 777" d="M696.77,776.65a48.63,48.63,0,0,1,9-7.07c4.61-3.05,9.38-6.18,14.81-7.22,4.77-.91,9.69-.14,14.54-.42a34,34,0,0,0,22.3-10.21c3.46-3.59,6.19-8,10.36-10.73,4.49-3,10.19-3.58,15.52-2.85a42.609,42.609,0,0,1,4.6.94,60.891,60.891,0,0,1,3.6,20.7c0,33.69-27.31,34.85-61,34.85-16.35,0-31.19-.27-42.15-4.4l1.83-3.42a48.052,48.052,0,0,1,6.59-10.17Z" transform="translate(-105.5 -59.28)" opacity="0.1"/>
</svg>
