<svg xmlns="http://www.w3.org/2000/svg" width="987.91" height="646.459" viewBox="0 0 987.91 646.459">
  <g id="undraw_chore_list_iof3" transform="translate(0 0)">
    <circle id="Ellipse_131" data-name="Ellipse 131" cx="145" cy="145" r="145" transform="translate(148.91 350.228)" fill="#e7f2e1"/>
    <rect id="Rechteck_311" data-name="Rechteck 311" width="963.51" height="2.241" transform="translate(24.4 640.359)" fill="#2f2e41"/>
    <path id="Pfad_724" data-name="Pfad 724" d="M393.815,622.919c0,108.36-64.42,146.2-143.88,146.2-1.85,0-3.69-.02-5.52-.07-3.68-.08-7.33-.24-10.93-.5-71.72-5.07-127.44-44.86-127.44-145.63,0-104.28,133.24-235.87,143.29-245.64a.031.031,0,0,1,.02-.01c.38-.38.58-.57.58-.57S393.815,514.549,393.815,622.919Z" transform="translate(-106.045 -126.771)" fill="#17254a"/>
    <path id="Pfad_725" data-name="Pfad 725" d="M244.685,752.539l52.63-73.53-52.76,81.6-.14,8.44c-3.68-.08-7.33-.24-10.93-.5l5.67-108.41-.04-.84.1-.16.53-10.24-52.89-81.81,53.05,74.13.13,2.17,4.29-81.91-45.28-84.53,45.83,70.14,4.46-169.81.02-.58v.57l-.74,133.91,45.07-53.09-45.26,64.62-1.19,73.34,42.09-70.38-42.27,81.18-.66,40.77,61.1-97.97-61.33,112.2Z" transform="translate(-106.045 -126.771)" fill="#f2f2f2"/>
    <path id="Pfad_726" data-name="Pfad 726" d="M909.455,328.5l-20-21s-22-33-38-24,23,30,23,30l20,33Z" transform="translate(-106.045 -126.771)" fill="#fbbebe"/>
    <path id="Pfad_727" data-name="Pfad 727" d="M972.455,735.5s15,29,4,31-65,5-66,2-9-13-3-17,30-7,30-7l8-8Z" transform="translate(-106.045 -126.771)" fill="#2f2e41"/>
    <path id="Pfad_728" data-name="Pfad 728" d="M980.455,452.5s32,40,6,81l-6,69s11,95-3,127l-2,11h-35l9-84s-1-10-4-12-52-110-52-110,8-15,5-18,3-63,6-65S980.455,452.5,980.455,452.5Z" transform="translate(-106.045 -126.771)" fill="#17254a"/>
    <path id="Pfad_729" data-name="Pfad 729" d="M817.41,599.728l-4,23,39-2-5-25Z" fill="#a0616a"/>
    <circle id="Ellipse_132" data-name="Ellipse 132" cx="30" cy="30" r="30" transform="translate(794.41 131.728)" fill="#fbbebe"/>
    <path id="Pfad_730" data-name="Pfad 730" d="M957.455,293.5l3,36-32,15s5.5-33.5,1.5-42.5Z" transform="translate(-106.045 -126.771)" fill="#fbbebe"/>
    <path id="Pfad_731" data-name="Pfad 731" d="M924.455,342.5l3-12,41-15s4,0,3,7-1,6-1,6,14,6,15,16,17,13,16,28-6,23-6,23,5,12-3,19c0,0-8,14-4,24s9,27-2,24-87-8-87-8-11-41,1-56c0,0,0-9,9-27S924.455,342.5,924.455,342.5Z" transform="translate(-106.045 -126.771)" fill="#575a89"/>
    <path id="Pfad_732" data-name="Pfad 732" d="M977.455,455.5s-13,55-29,61c0,0-3,40-20,38s0-38,0-38l19-69Z" transform="translate(-106.045 -126.771)" fill="#fbbebe"/>
    <path id="Pfad_733" data-name="Pfad 733" d="M926.455,345.5s-15-24-19-20-24,16-23,24,10,8,10,8l21,16Z" transform="translate(-106.045 -126.771)" fill="#575a89"/>
    <path id="Pfad_734" data-name="Pfad 734" d="M905.455,524.5l-12,8.626-8,85.374s29,116,37,117,41,1,40-2-6-15-6-18-10.43-26.992-10.43-26.992L932.455,632.5l3-44Z" transform="translate(-106.045 -126.771)" fill="#17254a"/>
    <path id="Pfad_735" data-name="Pfad 735" d="M920.455,741.5s42-13,44-10,15.34,33.236-3.33,36.618-85.67,9.382-85.67.382,2-15,8-15,33-13,35-16S920.455,741.5,920.455,741.5Z" transform="translate(-106.045 -126.771)" fill="#2f2e41"/>
    <path id="Pfad_736" data-name="Pfad 736" d="M958.9,290.471a2.961,2.961,0,0,0-4.006-3.959l-.053.03a5.19,5.19,0,0,0-2.44,5.189c-3.606-3.6-.948-10.814-4.845-14.1-1.8-1.519-4.731-1.853-5.658-4.021-.539-1.262-.173-2.759-.648-4.046-.706-1.912-2.961-2.711-4.977-3.011-6.34-.945-12.752.663-18.96,2.26-2.283.587-4.683,1.239-6.346,2.91-1.751,1.76-2.361,4.316-3.435,6.554s-8.117,2.036-10.579,1.719c-.856-2.431,5.466-2.615,5.982-5.14,1.411-6.9-3.5-14.243-1.092-20.864,1.452-3.989,5.245-6.63,9.064-8.485a48.109,48.109,0,0,1,34.039-2.9,7.558,7.558,0,0,1,3.144,1.52c1.453,1.357,1.723,3.535,2.691,5.272,2.205,3.957,7.436,4.9,10.962,7.741,5.341,4.306,5.943,12.081,6.116,18.94.087,3.454.149,7.043-1.266,10.2s-4.767,5.721-8.159,5.06C958.6,291.071,958.751,290.78,958.9,290.471Z" transform="translate(-106.045 -126.771)" fill="#412e2e"/>
    <path id="Pfad_737" data-name="Pfad 737" d="M953.684,355.243a21.306,21.306,0,0,1,26.008,1.322c6.892,5.857,14.306,14.248,13.763,22.934-1,16-7,82-15,83s-37-7-37-12,7-11,7-11l-8.5-51a33.709,33.709,0,0,1,13.279-32.941Q953.458,355.4,953.684,355.243Z" transform="translate(-106.045 -126.771)" fill="#575a89"/>
    <path id="Pfad_738" data-name="Pfad 738" d="M842.193,126.772H601.577a51.15,51.15,0,0,0-49.9,39.9L430.1,705.94a41.34,41.34,0,0,0,38.294,50.382l247.354,12.187a54.615,54.615,0,0,0,56.43-44.827l68.967-381.268,5.131,1.466,13.2-72.265-5.281-1.32,19.251-106.426a31.493,31.493,0,0,0-31.25-37.1Z" transform="translate(-106.045 -126.771)" fill="#17254a"/>
    <path id="Pfad_739" data-name="Pfad 739" d="M633.254,138.4H605.167a35.349,35.349,0,0,0-34.536,27.814l-116.7,534.867A21.9,21.9,0,0,0,473.9,727.6l246.554,16.159a28.367,28.367,0,0,0,29.773-23.278l99.58-552.838a24.846,24.846,0,0,0-24.452-29.25H798.709a11.726,11.726,0,0,0-11.323,8.677h0a10.352,10.352,0,0,1-10,7.661H650.9A17.7,17.7,0,0,1,633.254,138.4Z" transform="translate(-106.045 -126.771)" fill="#91db00"/>
    <rect id="Rechteck_312" data-name="Rechteck 312" width="255.125" height="1.257" transform="translate(448.66 149.872)" fill="#2f2e41"/>
    <rect id="Rechteck_313" data-name="Rechteck 313" width="257.639" height="1.257" transform="translate(438.606 190.717)" fill="#2f2e41"/>
    <path id="Pfad_740" data-name="Pfad 740" d="M687.675,147.881l-5.8-7.729,1.006-.753,5.01,6.679L707.2,130.283l.8.973Z" fill="#2f2e41"/>
    <path id="Pfad_741" data-name="Pfad 741" d="M654.37,330.114l-5.8-7.729,1.005-.754,5.011,6.68,19.3-15.8.8.974Z" fill="#2f2e41"/>
    <rect id="Rechteck_314" data-name="Rechteck 314" width="1.257" height="267.125" transform="translate(410.315 331.472) rotate(-88.787)" fill="#2f2e41"/>
    <rect id="Rechteck_315" data-name="Rechteck 315" width="1.257" height="272.164" transform="matrix(0.023, -1, 1, 0.023, 402.145, 368.553)" fill="#2f2e41"/>
    <path id="Pfad_742" data-name="Pfad 742" d="M675.042,601.2a59.7,59.7,0,0,1-119.394,0c0-.748.013-1.489.044-2.231a59.691,59.691,0,1,1,119.36,2.231Z" transform="translate(-106.045 -126.771)" opacity="0.1"/>
    <path id="Pfad_743" data-name="Pfad 743" d="M669.386,624.455c0,.748-.013,1.489-.044,2.231A59.7,59.7,0,0,1,555.648,601.2c0-.748.013-1.489.044-2.231a59.7,59.7,0,0,1,113.694,25.481Z" transform="translate(-106.045 -126.771)" fill="#689b02"/>
    <path id="Pfad_744" data-name="Pfad 744" d="M497.217,490.858l-21.222-28.3,5.027-3.771,17.289,23.052,68.068-55.691,3.979,4.864Z" fill="#f2f2f2"/>
  </g>
</svg>
