<svg id="dashboard" xmlns="http://www.w3.org/2000/svg" width="23.219" height="18.458" viewBox="0 0 23.219 18.458">
  <g id="Gruppe_10" data-name="Gruppe 10" transform="translate(0 0)">
    <g id="Gruppe_9" data-name="Gruppe 9">
      <path id="Pfad_6" data-name="Pfad 6" d="M206.873,123.764a.907.907,0,0,0-1.152-.108c-1.357.925-8.165,5.577-8.9,6.308a2.721,2.721,0,0,0,3.848,3.848c.732-.732,5.383-7.539,6.308-8.9A.907.907,0,0,0,206.873,123.764Zm-7.483,8.766a.907.907,0,0,1-1.283-1.283c.284-.281,2.217-1.659,4.595-3.312C201.049,130.313,199.67,132.245,199.39,132.53Z" transform="translate(-187.138 -120.278)" fill="#8f9bb3"/>
      <path id="Pfad_7" data-name="Pfad 7" d="M4.183,68.328l-1.12.546a9.75,9.75,0,0,1-.611-8.243l1.283.615a.907.907,0,1,0,.785-1.636L3.253,59a9.809,9.809,0,0,1,7.45-4.649v1.364a.907.907,0,0,0,1.814,0V54.354a9.683,9.683,0,0,1,3.119.822.907.907,0,1,0,.746-1.653A11.6,11.6,0,0,0,1.967,70.554a.907.907,0,0,0,1.152.311l1.859-.907a.907.907,0,1,0-.8-1.63Z" transform="translate(0 -52.499)" fill="#8f9bb3"/>
      <path id="Pfad_8" data-name="Pfad 8" d="M394.5,192.028a.907.907,0,0,0-1.653.746,9.764,9.764,0,0,1-.39,8.8l-1.169-.557a.907.907,0,1,0-.78,1.638l1.9.907a.907.907,0,0,0,1.144-.315,11.582,11.582,0,0,0,.944-11.217Z" transform="translate(-372.308 -185.19)" fill="#8f9bb3"/>
    </g>
  </g>
</svg>
