<svg height="511pt" viewBox="-7 0 511 511.99963" width="511pt" xmlns="http://www.w3.org/2000/svg"><g fill-rule="evenodd"><path d="m276.324219 207.359375v-192.359375c0-8.25 6.691406-14.9414062 14.941406-14.9414062v-.0585938c50.796875 0 97.914063 18.355469 134.464844 49.25 36.519531 30.867188 62.453125 74.277344 70.921875 124.40625 1.359375 8.15625-4.148438 15.871094-12.304688 17.230469l-190.621094 32.203125c-8.152343 1.359375-15.867187-4.152344-17.226562-12.308594-.191406-1.152344-.246094-2.300781-.175781-3.421875zm0 0" fill="#ffef31"/><path d="m425.234375 48.832031c.164063.140625.332031.277344.496094.417969 36.519531 30.867188 62.457031 74.277344 70.925781 124.40625 1.359375 8.15625-4.152344 15.871094-12.308594 17.230469l-190.617187 32.203125c-4.738281.789062-9.324219-.738282-12.601563-3.753906zm0 0" fill="#ffcd00"/><path d="m415.414062 422.386719-183.144531-142.398438-142.359375 183.089844c46.84375 36.472656 107.609375 55.058594 171.167969 47.101563l-.007813-.066407c58.914063-7.332031 115.023438-37.15625 154.34375-87.726562zm0 0" fill="#ff3636"/><path d="m232.269531 511.976562c-128.003906 0-231.769531-103.765624-231.769531-231.769531 0-121.847656 94.027344-221.734375 213.484375-231.054687 9.863281-.769532 18.285156 7.054687 18.285156 16.949218zm0 0" fill="#0095ff"/><path d="m396.261719 443.980469c42.007812-41.949219 67.996093-99.9375 67.996093-163.992188h-231.988281zm0 0" fill="#00da26"/><path d="m457.753906 334.660156c.304688-1.261718.601563-2.527344.886719-3.796875.199219-.882812.390625-1.769531.582031-2.65625.164063-.789062.332032-1.574219.488282-2.363281.285156-1.40625.554687-2.816406.8125-4.230469.054687-.292969.109374-.585937.160156-.878906 3.75-20.953125 4.652344-42.707031 2.339844-64.753906-1.039063-9.886719-10.226563-16.828125-20.003907-15.019531l-210.75 39.027343 163.996094 163.992188c29.382813-29.34375 50.914063-66.546875 61.210937-108.175781.09375-.382813.183594-.761719.277344-1.144532zm0 0" fill="#00c200"/><path d="m396.308594 444.027344-164.039063-164.039063-163.996093 163.992188c41.949218 42.007812 99.9375 67.996093 163.996093 67.996093v-.066406c59.367188.039063 118.746094-22.585937 164.039063-67.882812zm0 0" fill="#ff3636"/><path d="m232.269531 511.910156c59.367188.039063 118.746094-22.585937 164.039063-67.882812l-164.039063-164.039063zm0 0" fill="#d10505"/></g></svg>