<svg xmlns="http://www.w3.org/2000/svg" width="20.978" height="15.791" viewBox="0 0 20.978 15.791">
  <g id="Gruppe_1" data-name="Gruppe 1" transform="translate(-32.604 -251.389)">
    <path id="Pfad_12" data-name="Pfad 12" d="M29.384,10.379H14.994a1.074,1.074,0,0,1,0-2.148h14.39a1.074,1.074,0,0,1,0,2.148Z" transform="translate(23.124 243.443)" fill="#fff"/>
    <ellipse id="Ellipse_1" data-name="Ellipse 1" cx="1.442" cy="1.442" rx="1.442" ry="1.442" transform="translate(32.604 251.389)" fill="#fff"/>
    <ellipse id="Ellipse_2" data-name="Ellipse 2" cx="1.442" cy="1.442" rx="1.442" ry="1.442" transform="translate(32.604 257.842)" fill="#fff"/>
    <ellipse id="Ellipse_3" data-name="Ellipse 3" cx="1.442" cy="1.442" rx="1.442" ry="1.442" transform="translate(32.604 264.296)" fill="#fff"/>
    <path id="Pfad_10" data-name="Pfad 10" d="M29.384,48.041H14.994a1.074,1.074,0,0,1,0-2.148h14.39a1.074,1.074,0,0,1,0,2.148Z" transform="translate(23.124 218.854)" fill="#fff"/>
    <path id="Pfad_11" data-name="Pfad 11" d="M29.384,29.21H14.994a1.074,1.074,0,0,1,0-2.148h14.39a1.074,1.074,0,0,1,0,2.148Z" transform="translate(23.124 231.148)" fill="#fff"/>
  </g>
</svg>
