<svg xmlns="http://www.w3.org/2000/svg" width="33.266" height="25.066" viewBox="0 0 33.266 25.066">
  <g id="Gruppe_395" data-name="Gruppe 395" transform="translate(-27.449 -325.23)">
    <g id="user_5_" data-name="user (5)" transform="translate(44.732 325.28)">
      <path id="Pfad_32" data-name="Pfad 32" d="M91.631,9.2a4.451,4.451,0,0,0,3.252-1.348A4.451,4.451,0,0,0,96.231,4.6a4.451,4.451,0,0,0-1.348-3.252,4.6,4.6,0,0,0-6.5,0A4.451,4.451,0,0,0,87.032,4.6a4.451,4.451,0,0,0,1.348,3.252A4.452,4.452,0,0,0,91.631,9.2Zm-2.461-7.06a3.479,3.479,0,0,1,4.922,0A3.325,3.325,0,0,1,95.112,4.6a3.325,3.325,0,0,1-1.02,2.461,3.479,3.479,0,0,1-4.922,0A3.325,3.325,0,0,1,88.151,4.6,3.325,3.325,0,0,1,89.171,2.139Zm0,0" transform="translate(-83.786 0)" fill="#8f9bb3" stroke="#8f9bb3" stroke-width="0.1"/>
      <path id="Pfad_33" data-name="Pfad 33" d="M15.894,252.776a11.361,11.361,0,0,0-.155-1.207,9.507,9.507,0,0,0-.3-1.213,5.993,5.993,0,0,0-.5-1.131,4.265,4.265,0,0,0-.752-.98,3.316,3.316,0,0,0-1.08-.679,3.734,3.734,0,0,0-1.379-.25,1.4,1.4,0,0,0-.748.317c-.224.146-.486.315-.779.5a4.462,4.462,0,0,1-1.008.444,3.913,3.913,0,0,1-2.465,0,4.447,4.447,0,0,1-1.007-.444c-.29-.185-.552-.354-.779-.5a1.4,1.4,0,0,0-.747-.317,3.729,3.729,0,0,0-1.379.25,3.313,3.313,0,0,0-1.08.679,4.266,4.266,0,0,0-.752.98,6,6,0,0,0-.5,1.132,9.529,9.529,0,0,0-.3,1.213,11.284,11.284,0,0,0-.155,1.207c-.025.365-.038.744-.038,1.128a3.171,3.171,0,0,0,.942,2.4,3.39,3.39,0,0,0,2.427.885h9.2a3.39,3.39,0,0,0,2.427-.885,3.17,3.17,0,0,0,.942-2.4c0-.385-.013-.764-.039-1.128Zm-1.675,2.716a2.283,2.283,0,0,1-1.655.577h-9.2a2.283,2.283,0,0,1-1.655-.577,2.071,2.071,0,0,1-.594-1.588c0-.358.012-.711.035-1.05a10.179,10.179,0,0,1,.14-1.087,8.407,8.407,0,0,1,.261-1.07,4.887,4.887,0,0,1,.406-.92,3.162,3.162,0,0,1,.553-.724,2.2,2.2,0,0,1,.719-.447,2.575,2.575,0,0,1,.881-.17c.039.021.109.061.222.134.23.15.5.321.788.508a5.544,5.544,0,0,0,1.265.565,5.031,5.031,0,0,0,3.153,0,5.55,5.55,0,0,0,1.266-.566c.3-.192.558-.358.788-.508.113-.074.183-.113.222-.134a2.576,2.576,0,0,1,.882.17,2.2,2.2,0,0,1,.719.447,3.153,3.153,0,0,1,.553.724,4.871,4.871,0,0,1,.406.92,8.385,8.385,0,0,1,.261,1.07,10.262,10.262,0,0,1,.14,1.087h0c.024.338.036.691.036,1.05a2.07,2.07,0,0,1-.594,1.588Zm0,0" transform="translate(0 -238.092)" fill="#8f9bb3" stroke="#8f9bb3" stroke-width="0.1"/>
    </g>
    <g id="user_5_2" data-name="user (5)" transform="translate(27.5 325.28)">
      <path id="Pfad_32-2" data-name="Pfad 32" d="M91.631,9.2a4.451,4.451,0,0,0,3.252-1.348A4.451,4.451,0,0,0,96.231,4.6a4.451,4.451,0,0,0-1.348-3.252,4.6,4.6,0,0,0-6.5,0A4.451,4.451,0,0,0,87.032,4.6a4.451,4.451,0,0,0,1.348,3.252A4.452,4.452,0,0,0,91.631,9.2Zm-2.461-7.06a3.479,3.479,0,0,1,4.922,0A3.325,3.325,0,0,1,95.112,4.6a3.325,3.325,0,0,1-1.02,2.461,3.479,3.479,0,0,1-4.922,0A3.325,3.325,0,0,1,88.151,4.6,3.325,3.325,0,0,1,89.171,2.139Zm0,0" transform="translate(-83.786 0)" fill="#8f9bb3" stroke="#8f9bb3" stroke-width="0.1"/>
      <path id="Pfad_33-2" data-name="Pfad 33" d="M15.894,252.776a11.361,11.361,0,0,0-.155-1.207,9.507,9.507,0,0,0-.3-1.213,5.993,5.993,0,0,0-.5-1.131,4.265,4.265,0,0,0-.752-.98,3.316,3.316,0,0,0-1.08-.679,3.734,3.734,0,0,0-1.379-.25,1.4,1.4,0,0,0-.748.317c-.224.146-.486.315-.779.5a4.462,4.462,0,0,1-1.008.444,3.913,3.913,0,0,1-2.465,0,4.447,4.447,0,0,1-1.007-.444c-.29-.185-.552-.354-.779-.5a1.4,1.4,0,0,0-.747-.317,3.729,3.729,0,0,0-1.379.25,3.313,3.313,0,0,0-1.08.679,4.266,4.266,0,0,0-.752.98,6,6,0,0,0-.5,1.132,9.529,9.529,0,0,0-.3,1.213,11.284,11.284,0,0,0-.155,1.207c-.025.365-.038.744-.038,1.128a3.171,3.171,0,0,0,.942,2.4,3.39,3.39,0,0,0,2.427.885h9.2a3.39,3.39,0,0,0,2.427-.885,3.17,3.17,0,0,0,.942-2.4c0-.385-.013-.764-.039-1.128Zm-1.675,2.716a2.283,2.283,0,0,1-1.655.577h-9.2a2.283,2.283,0,0,1-1.655-.577,2.071,2.071,0,0,1-.594-1.588c0-.358.012-.711.035-1.05a10.179,10.179,0,0,1,.14-1.087,8.407,8.407,0,0,1,.261-1.07,4.887,4.887,0,0,1,.406-.92,3.162,3.162,0,0,1,.553-.724,2.2,2.2,0,0,1,.719-.447,2.575,2.575,0,0,1,.881-.17c.039.021.109.061.222.134.23.15.5.321.788.508a5.544,5.544,0,0,0,1.265.565,5.031,5.031,0,0,0,3.153,0,5.55,5.55,0,0,0,1.266-.566c.3-.192.558-.358.788-.508.113-.074.183-.113.222-.134a2.576,2.576,0,0,1,.882.17,2.2,2.2,0,0,1,.719.447,3.153,3.153,0,0,1,.553.724,4.871,4.871,0,0,1,.406.92,8.385,8.385,0,0,1,.261,1.07,10.262,10.262,0,0,1,.14,1.087h0c.024.338.036.691.036,1.05a2.07,2.07,0,0,1-.594,1.588Zm0,0" transform="translate(0 -238.092)" fill="#8f9bb3" stroke="#8f9bb3" stroke-width="0.1"/>
    </g>
    <g id="user_5_3" data-name="user (5)" transform="translate(35.011 326.76)">
      <path id="Pfad_32-3" data-name="Pfad 32" d="M92.339,10.615A5.135,5.135,0,0,0,96.092,9.06a5.136,5.136,0,0,0,1.555-3.753,5.136,5.136,0,0,0-1.555-3.753,5.306,5.306,0,0,0-7.505,0,5.136,5.136,0,0,0-1.555,3.752A5.136,5.136,0,0,0,88.587,9.06,5.137,5.137,0,0,0,92.339,10.615ZM89.5,2.468a4.015,4.015,0,0,1,5.679,0,3.837,3.837,0,0,1,1.177,2.839,3.837,3.837,0,0,1-1.177,2.84,4.014,4.014,0,0,1-5.679,0,3.836,3.836,0,0,1-1.177-2.84A3.837,3.837,0,0,1,89.5,2.468Zm0,0" transform="translate(-83.286 0)" fill="#8f9bb3" stroke="#e4e4e4" stroke-width="3"/>
      <path id="Pfad_33-3" data-name="Pfad 33" d="M18.339,253.616a13.11,13.11,0,0,0-.179-1.392,10.971,10.971,0,0,0-.342-1.4,6.916,6.916,0,0,0-.576-1.306,4.922,4.922,0,0,0-.868-1.131,3.826,3.826,0,0,0-1.247-.783,4.308,4.308,0,0,0-1.591-.288,1.615,1.615,0,0,0-.863.366c-.259.169-.561.364-.9.579a5.149,5.149,0,0,1-1.163.512,4.515,4.515,0,0,1-2.844,0,5.131,5.131,0,0,1-1.162-.512c-.334-.214-.637-.409-.9-.58a1.614,1.614,0,0,0-.862-.366,4.3,4.3,0,0,0-1.591.288,3.823,3.823,0,0,0-1.247.783,4.923,4.923,0,0,0-.867,1.131,6.929,6.929,0,0,0-.575,1.306,11,11,0,0,0-.342,1.4,13.02,13.02,0,0,0-.179,1.393c-.029.421-.044.859-.044,1.3a3.659,3.659,0,0,0,1.087,2.768,3.912,3.912,0,0,0,2.8,1.021H14.5a3.912,3.912,0,0,0,2.8-1.021,3.658,3.658,0,0,0,1.087-2.768c0-.444-.015-.882-.045-1.3Zm-1.933,3.134a2.634,2.634,0,0,1-1.91.666H3.887a2.634,2.634,0,0,1-1.91-.665,2.389,2.389,0,0,1-.686-1.833c0-.413.014-.821.041-1.212a11.744,11.744,0,0,1,.161-1.254,9.7,9.7,0,0,1,.3-1.234,5.639,5.639,0,0,1,.468-1.062,3.648,3.648,0,0,1,.638-.836,2.538,2.538,0,0,1,.829-.516,2.971,2.971,0,0,1,1.017-.2c.045.024.126.07.256.155.265.173.571.37.91.586A6.4,6.4,0,0,0,7.372,250a5.8,5.8,0,0,0,3.639,0,6.4,6.4,0,0,0,1.46-.653c.346-.221.644-.413.909-.586.13-.085.211-.131.256-.155a2.973,2.973,0,0,1,1.017.2,2.542,2.542,0,0,1,.829.516,3.639,3.639,0,0,1,.638.836,5.621,5.621,0,0,1,.469,1.061,9.675,9.675,0,0,1,.3,1.234,11.841,11.841,0,0,1,.161,1.254h0c.027.39.041.8.041,1.211a2.389,2.389,0,0,1-.686,1.833Zm0,0" transform="translate(0 -236.672)" fill="#8f9bb3" stroke="#e4e4e4" stroke-width="3"/>
    </g>
    <ellipse id="Ellipse_178" data-name="Ellipse 178" cx="4.418" cy="4.418" rx="4.418" ry="4.418" transform="translate(39.431 327.606)" fill="#e4e4e4"/>
    <path id="Pfad_930" data-name="Pfad 930" d="M-24615.143-8843.533l-2.232.819s-2.531,7.219-.6,8.037,12.355.372,13.693,0,2.531-3.572,1.713-5.729-2.682-3.8-3.574-3.573-2.826,2.084-4.613,2.084S-24615.143-8843.533-24615.143-8843.533Z" transform="translate(24654.861 9182.21)" fill="#e4e4e4"/>
    <g id="user_5_4" data-name="user (5)" transform="translate(35.011 326.76)">
      <path id="Pfad_32-4" data-name="Pfad 32" d="M92.339,10.615A5.135,5.135,0,0,0,96.092,9.06a5.136,5.136,0,0,0,1.555-3.753,5.136,5.136,0,0,0-1.555-3.753,5.306,5.306,0,0,0-7.505,0,5.136,5.136,0,0,0-1.555,3.752A5.136,5.136,0,0,0,88.587,9.06,5.137,5.137,0,0,0,92.339,10.615ZM89.5,2.468a4.015,4.015,0,0,1,5.679,0,3.837,3.837,0,0,1,1.177,2.839,3.837,3.837,0,0,1-1.177,2.84,4.014,4.014,0,0,1-5.679,0,3.836,3.836,0,0,1-1.177-2.84A3.837,3.837,0,0,1,89.5,2.468Zm0,0" transform="translate(-83.286 0)" fill="#8f9bb3"/>
      <path id="Pfad_33-4" data-name="Pfad 33" d="M18.339,253.616a13.11,13.11,0,0,0-.179-1.392,10.971,10.971,0,0,0-.342-1.4,6.916,6.916,0,0,0-.576-1.306,4.922,4.922,0,0,0-.868-1.131,3.826,3.826,0,0,0-1.247-.783,4.308,4.308,0,0,0-1.591-.288,1.615,1.615,0,0,0-.863.366c-.259.169-.561.364-.9.579a5.149,5.149,0,0,1-1.163.512,4.515,4.515,0,0,1-2.844,0,5.131,5.131,0,0,1-1.162-.512c-.334-.214-.637-.409-.9-.58a1.614,1.614,0,0,0-.862-.366,4.3,4.3,0,0,0-1.591.288,3.823,3.823,0,0,0-1.247.783,4.923,4.923,0,0,0-.867,1.131,6.929,6.929,0,0,0-.575,1.306,11,11,0,0,0-.342,1.4,13.02,13.02,0,0,0-.179,1.393c-.029.421-.044.859-.044,1.3a3.659,3.659,0,0,0,1.087,2.768,3.912,3.912,0,0,0,2.8,1.021H14.5a3.912,3.912,0,0,0,2.8-1.021,3.658,3.658,0,0,0,1.087-2.768c0-.444-.015-.882-.045-1.3Zm-1.933,3.134a2.634,2.634,0,0,1-1.91.666H3.887a2.634,2.634,0,0,1-1.91-.665,2.389,2.389,0,0,1-.686-1.833c0-.413.014-.821.041-1.212a11.744,11.744,0,0,1,.161-1.254,9.7,9.7,0,0,1,.3-1.234,5.639,5.639,0,0,1,.468-1.062,3.648,3.648,0,0,1,.638-.836,2.538,2.538,0,0,1,.829-.516,2.971,2.971,0,0,1,1.017-.2c.045.024.126.07.256.155.265.173.571.37.91.586A6.4,6.4,0,0,0,7.372,250a5.8,5.8,0,0,0,3.639,0,6.4,6.4,0,0,0,1.46-.653c.346-.221.644-.413.909-.586.13-.085.211-.131.256-.155a2.973,2.973,0,0,1,1.017.2,2.542,2.542,0,0,1,.829.516,3.639,3.639,0,0,1,.638.836,5.621,5.621,0,0,1,.469,1.061,9.675,9.675,0,0,1,.3,1.234,11.841,11.841,0,0,1,.161,1.254h0c.027.39.041.8.041,1.211a2.389,2.389,0,0,1-.686,1.833Zm0,0" transform="translate(0 -236.672)" fill="#8f9bb3"/>
    </g>
  </g>
</svg>
