<svg id="icon_clock_grey" xmlns="http://www.w3.org/2000/svg" width="23.343" height="23.343" viewBox="0 0 23.343 23.343">
  <g id="Gruppe_283" data-name="Gruppe 283">
    <path id="Pfad_720" data-name="Pfad 720" d="M11.672,0A11.671,11.671,0,1,0,23.344,11.671,11.671,11.671,0,0,0,11.672,0Zm.806,13.1a.787.787,0,0,1-.009.092c0,.023,0,.047-.01.069s-.014.047-.022.07a.825.825,0,0,1-.029.084s0,.01-.005.014a.8.8,0,0,1-.06.106l0,.006a.8.8,0,0,1-.085.1l-.026.025a.773.773,0,0,1-.085.07l-.028.02a.807.807,0,0,1-.121.066l-.028.01a.811.811,0,0,1-.109.034l-.04.008a.8.8,0,0,1-.145.015c-.01,0-.02,0-.03,0a.812.812,0,0,1-.138-.015c-.014,0-.028-.009-.042-.013a.819.819,0,0,1-.121-.041l-.014,0L6.853,11.7a.807.807,0,1,1,.689-1.46l3.324,1.567V4.844a.807.807,0,0,1,1.614,0v8.24h0S12.478,13.093,12.478,13.1Z" transform="translate(-0.001)" fill="#8f9bb3"/>
  </g>
</svg>
