<svg id="icon_tag" xmlns="http://www.w3.org/2000/svg" width="23.781" height="23.781" viewBox="0 0 23.781 23.781">
  <path id="Pfad_719" data-name="Pfad 719" d="M23.2,12.636,11.979,1.428a4.861,4.861,0,0,0-1.6-1.013A4.849,4.849,0,0,0,8.541,0H2.011A1.932,1.932,0,0,0,.6.6,1.931,1.931,0,0,0,0,2.009v6.53a4.846,4.846,0,0,0,.416,1.837A4.678,4.678,0,0,0,1.43,11.961L12.654,23.2a1.922,1.922,0,0,0,1.413.581A2.011,2.011,0,0,0,15.5,23.2L23.2,15.477a1.923,1.923,0,0,0,.581-1.413A2.011,2.011,0,0,0,23.2,12.636ZM6.446,6.444a1.936,1.936,0,0,1-1.421.589A2.01,2.01,0,0,1,3.016,5.023,2.01,2.01,0,0,1,5.025,3.014,2.01,2.01,0,0,1,7.034,5.023,1.935,1.935,0,0,1,6.446,6.444Z" transform="translate(-0.002)" fill="#17254a"/>
</svg>
