<svg xmlns="http://www.w3.org/2000/svg" xmlns:xlink="http://www.w3.org/1999/xlink" width="96.785" height="66.714" viewBox="0 0 96.785 66.714">
  <defs>
    <linearGradient id="linear-gradient" x1="0.5" y1="1" x2="0.5" gradientUnits="objectBoundingBox">
      <stop offset="0" stop-color="gray" stop-opacity="0.251"/>
      <stop offset="0.54" stop-color="gray" stop-opacity="0.122"/>
      <stop offset="1" stop-color="gray" stop-opacity="0.102"/>
    </linearGradient>
  </defs>
  <g id="Gruppe_9" data-name="Gruppe 9" transform="translate(1294 -262)">
    <path id="Pfad_32" data-name="Pfad 32" d="M52.181,55.131c3.284-2.958,8.439-3.56,13.13-3.325,14.737.74,28.04,7.923,39.546,16.049,4.166,2.942,8.267,6.115,10.973,10.163,5.505,8.247,3.872,19.671-3.782,26.465a39.189,39.189,0,0,1-9,5.655,55.081,55.081,0,0,1-18.52,5.673,60.525,60.525,0,0,1-14.022-.549c-12.954-1.774-25.67-5.7-36.328-12.409-4.677-2.944-9.083-6.6-11.009-11.368s-.694-10.8,4.079-13.615a22.1,22.1,0,0,1,6.645-2.187,43.937,43.937,0,0,0,9.927-2.924c3.171-1.528,6.924-4.483,6.3-7.866C49.442,61.267,48.9,58.08,52.181,55.131Z" transform="translate(-1316.297 210.24)" fill="#91db00" opacity="0.1"/>
    <path id="Pfad_33" data-name="Pfad 33" d="M279,495.6a1.972,1.972,0,0,1,1.767-.238s-.251.534-1.371.528Z" transform="translate(-1551.497 -196.086)" fill="#6c63ff"/>
    <path id="Pfad_34" data-name="Pfad 34" d="M277.311,500a1.971,1.971,0,0,0,.475,1.72s.392-.441-.054-1.468Z" transform="translate(-1549.917 -200.453)" fill="#91db00"/>
    <path id="Pfad_35" data-name="Pfad 35" d="M264,481.024s.032-.88,2.025-.665a.947.947,0,0,1-.654.861A1.142,1.142,0,0,1,264,481.024Z" transform="translate(-1537.754 -182.427)" fill="#91db00"/>
    <path id="Pfad_36" data-name="Pfad 36" d="M258.473,488.65s-.828.3-.009,2.133a.947.947,0,0,0,.617-.888A1.145,1.145,0,0,0,258.473,488.65Z" transform="translate(-1532.349 -190.054)" fill="#91db00"/>
    <path id="Pfad_37" data-name="Pfad 37" d="M248.523,459.283s-.168-1.441,1.863-1.37c0,0,.193,1.3-1.492,1.7Z" transform="translate(-1523.57 -161.889)" fill="#91db00"/>
    <path id="Pfad_38" data-name="Pfad 38" d="M231.83,441.182s.215-1.648,2.262-1.238c0,0,.062,1.416-1.913,1.616Z" transform="translate(-1508.278 -145.368)" fill="#91db00"/>
    <path id="Pfad_39" data-name="Pfad 39" d="M219.38,421.784a1.886,1.886,0,0,1,2.429-1.212,2.314,2.314,0,0,1-2.284,1.5Z" transform="translate(-1496.871 -127.619)" fill="#91db00"/>
    <path id="Pfad_40" data-name="Pfad 40" d="M207.53,402.093a1.817,1.817,0,0,1,2.345-1.25,2.365,2.365,0,0,1-2.209,1.527Z" transform="translate(-1486.014 -109.539)" fill="#91db00"/>
    <path id="Pfad_41" data-name="Pfad 41" d="M199.66,379.456s.272-2.038,2.094-1.659c0,0-.454,1.862-1.952,1.948Z" transform="translate(-1478.803 -88.444)" fill="#91db00"/>
    <path id="Pfad_42" data-name="Pfad 42" d="M192.09,358.109s.341-2.056,2.19-1.533c0,0-.643,1.956-2.052,1.81Z" transform="translate(-1471.867 -68.965)" fill="#91db00"/>
    <path id="Pfad_43" data-name="Pfad 43" d="M187.13,332.415s.586-2.066,2-2.065c0,0-.6,2.178-1.87,2.469Z" transform="translate(-1467.323 -45.014)" fill="#91db00"/>
    <path id="Pfad_44" data-name="Pfad 44" d="M183.71,308.931s.631-2.484,1.788-2.339a4.875,4.875,0,0,1-1.733,2.72Z" transform="translate(-1464.189 -23.241)" fill="#91db00"/>
    <path id="Pfad_45" data-name="Pfad 45" d="M181.28,286.118s.6-2.072,1.733-2.2a4.385,4.385,0,0,1-1.688,2.729Z" transform="translate(-1461.963 -2.473)" fill="#91db00"/>
    <path id="Pfad_46" data-name="Pfad 46" d="M178.76,263.847s.769-2.082,1.518-2.157c0,0-.291,2.031-1.43,2.49Z" transform="translate(-1459.654 17.895)" fill="#91db00"/>
    <path id="Pfad_47" data-name="Pfad 47" d="M176.83,239.369s.436-2.246,1.178-2.458a3.782,3.782,0,0,1-1.1,2.622Z" transform="translate(-1457.886 40.599)" fill="#91db00"/>
    <path id="Pfad_48" data-name="Pfad 48" d="M172.4,215.778s.48-1.794,1.076-2.088c0,0-.04,2.094-.921,2.513Z" transform="translate(-1453.827 61.874)" fill="#91db00"/>
    <path id="Pfad_49" data-name="Pfad 49" d="M166.38,186.323l-.23-3.123s1.223,2.317.335,3.671Z" transform="translate(-1448.1 89.81)" fill="#91db00"/>
    <path id="Pfad_50" data-name="Pfad 50" d="M144.915,157.832a17.306,17.306,0,0,0-1.1-2.372,4.691,4.691,0,0,1,1.575,3.332Z" transform="translate(-1427.631 115.226)" fill="#91db00"/>
    <path id="Pfad_51" data-name="Pfad 51" d="M233.344,474.18s-1.445-.133-1.323,1.9c0,0,1.307.162,1.666-1.534Z" transform="translate(-1508.447 -176.795)" fill="#91db00"/>
    <path id="Pfad_52" data-name="Pfad 52" d="M214.977,454.82s-1.66.058-1.446,2.131c0,0,1.4.2,1.789-1.752Z" transform="translate(-1491.495 -159.058)" fill="#91db00"/>
    <path id="Pfad_53" data-name="Pfad 53" d="M192.679,436.171a1.886,1.886,0,0,0-2.429,1.212,2.321,2.321,0,0,0,2.573-.921Z" transform="translate(-1470.181 -141.87)" fill="#91db00"/>
    <path id="Pfad_54" data-name="Pfad 54" d="M180.77,415.3a1.82,1.82,0,0,0-2.41,1.124,2.365,2.365,0,0,0,2.548-.848Z" transform="translate(-1459.287 -122.728)" fill="#91db00"/>
    <path id="Pfad_55" data-name="Pfad 55" d="M170.71,392.378s-1.54-1.362-2.67.119c0,0,1.562,1.109,2.75.194Z" transform="translate(-1449.832 -101.322)" fill="#91db00"/>
    <path id="Pfad_56" data-name="Pfad 56" d="M163.888,368.926s-1.55-1.394-2.668.168c0,0,1.723,1.127,2.733.133Z" transform="translate(-1443.583 -79.834)" fill="#91db00"/>
    <path id="Pfad_57" data-name="Pfad 57" d="M160.921,339.041s-1.22-1.767-2.561-1.312c0,0,1.268,1.873,2.564,1.738Z" transform="translate(-1440.963 -51.706)" fill="#91db00"/>
    <path id="Pfad_58" data-name="Pfad 58" d="M158.64,314.118s-1.249-2.238-2.33-1.8a4.873,4.873,0,0,0,2.373,2.182Z" transform="translate(-1439.084 -28.441)" fill="#91db00"/>
    <path id="Pfad_59" data-name="Pfad 59" d="M156.25,292.156s-1.262-1.751-2.37-1.488a4.385,4.385,0,0,0,2.505,2Z" transform="translate(-1436.858 -8.631)" fill="#91db00"/>
    <path id="Pfad_60" data-name="Pfad 60" d="M161.073,265.359s-1-1.98-1.753-1.969c0,0,.52,1.985,1.7,2.31Z" transform="translate(-1441.842 16.338)" fill="#91db00"/>
    <path id="Pfad_61" data-name="Pfad 61" d="M156.708,244.094s-1.106-2-1.878-1.977c0,0,.593,1.726,1.85,2.158Z" transform="translate(-1437.728 35.828)" fill="#91db00"/>
    <path id="Pfad_62" data-name="Pfad 62" d="M158.267,220.017s-.833-1.66-1.477-1.827c0,0,.463,2.044,1.409,2.278Z" transform="translate(-1439.524 57.751)" fill="#91db00"/>
    <path id="Pfad_63" data-name="Pfad 63" d="M147.907,191.93l-1.817-2.55s.539,2.565,2.087,3.039Z" transform="translate(-1429.72 84.148)" fill="#91db00"/>
    <path id="Pfad_64" data-name="Pfad 64" d="M129.128,169.831A17.449,17.449,0,0,1,127,168.31a4.67,4.67,0,0,0,2.987,2.159Z" transform="translate(-1412.23 103.453)" fill="#91db00"/>
    <path id="Pfad_65" data-name="Pfad 65" d="M118.32,156.268s-2.376-2.115-2.96-2.09a3.751,3.751,0,0,1,3.016,1.971Z" transform="translate(-1401.565 116.402)" fill="#91db00"/>
    <path id="Pfad_66" data-name="Pfad 66" d="M151.7,182.621l-.084.014c-.56-3.355-1.264-5.322-1.983-5.542l.024-.084C150.415,177.241,151.124,179.18,151.7,182.621Z" transform="translate(-1432.964 95.482)" fill="#689b02"/>
    <path id="Pfad_67" data-name="Pfad 67" d="M174.024,249.264l-.126.015c-.039-.313-.072-.635-.1-.955-.227-2.785-.512-5.34-.83-7.252l.07-.093c.319,1.915.659,4.545.887,7.334C173.953,248.633,173.985,248.952,174.024,249.264Z" transform="translate(-1454.349 36.87)" fill="#689b02"/>
    <path id="Pfad_68" data-name="Pfad 68" d="M194.089,352.2A16.45,16.45,0,0,1,189.412,349a18.315,18.315,0,0,1-3.5-4.582,21.384,21.384,0,0,1-2.217-7.352l.134.057a19.414,19.414,0,0,0,5.7,11.75,16.263,16.263,0,0,0,4.628,3.162Z" transform="translate(-1464.171 -51.171)" fill="#689b02"/>
    <g id="Gruppe_6" data-name="Gruppe 6" transform="translate(-1275.386 262.503)" opacity="0.7">
      <path id="Pfad_69" data-name="Pfad 69" d="M320.84,435.242a1.975,1.975,0,0,1,1.759.3s-.4.436-1.467.1Z" transform="translate(-314.446 -403.542)" fill="#91db00"/>
      <path id="Pfad_70" data-name="Pfad 70" d="M316.7,436.23a1.972,1.972,0,0,0-.058,1.782s.5-.3.386-1.417Z" transform="translate(-310.42 -404.528)" fill="#91db00"/>
      <path id="Pfad_71" data-name="Pfad 71" d="M309.75,417.192s.293-.831,2.132-.033a.945.945,0,0,1-.881.627A1.144,1.144,0,0,1,309.75,417.192Z" transform="translate(-304.285 -386.738)" fill="#91db00"/>
      <path id="Pfad_72" data-name="Pfad 72" d="M300.883,420.89s-.88.042-.643,2.033a.947.947,0,0,0,.854-.664A1.143,1.143,0,0,0,300.883,420.89Z" transform="translate(-295.534 -390.473)" fill="#91db00"/>
      <path id="Pfad_73" data-name="Pfad 73" d="M299.3,392.793s.267-1.424,2.185-.754c0,0-.2,1.3-1.931,1.183Z" transform="translate(-294.711 -363.874)" fill="#91db00"/>
      <path id="Pfad_74" data-name="Pfad 74" d="M288.94,370.692s.7-1.508,2.525-.509c0,0-.362,1.37-2.308.973Z" transform="translate(-285.218 -343.701)" fill="#91db00"/>
      <path id="Pfad_75" data-name="Pfad 75" d="M282.9,348.97a1.886,1.886,0,0,1,2.68-.435,2.322,2.322,0,0,1-2.628.754Z" transform="translate(-279.684 -323.859)" fill="#91db00"/>
      <path id="Pfad_76" data-name="Pfad 76" d="M277.31,326.542a1.82,1.82,0,0,1,2.613-.5,2.364,2.364,0,0,1-2.562.8Z" transform="translate(-274.563 -303.264)" fill="#91db00"/>
      <path id="Pfad_77" data-name="Pfad 77" d="M275.27,302.541s.866-1.865,2.495-.96c0,0-.988,1.642-2.443,1.279Z" transform="translate(-272.693 -280.931)" fill="#91db00"/>
      <path id="Pfad_78" data-name="Pfad 78" d="M274.69,279.808s.937-1.862,2.546-.812c0,0-1.2,1.675-2.5,1.117Z" transform="translate(-272.162 -260.171)" fill="#91db00"/>
      <path id="Pfad_79" data-name="Pfad 79" d="M276.16,255.083s1.173-1.8,2.526-1.375c0,0-1.22,1.9-2.52,1.8Z" transform="translate(-273.509 -237.236)" fill="#91db00"/>
      <path id="Pfad_80" data-name="Pfad 80" d="M278.34,230.977s1.34-2.184,2.4-1.7a4.876,4.876,0,0,1-2.464,2.081Z" transform="translate(-275.451 -214.846)" fill="#91db00"/>
      <path id="Pfad_81" data-name="Pfad 81" d="M282.644,208.795s1.191-1.8,2.309-1.583c0,0-.972,1.825-2.422,2.1Z" transform="translate(-279.345 -194.677)" fill="#91db00"/>
      <path id="Pfad_82" data-name="Pfad 82" d="M288.086,186.184s1.353-1.759,2.09-1.607c0,0-.882,1.853-2.106,1.951Z" transform="translate(-284.421 -173.947)" fill="#91db00"/>
      <path id="Pfad_83" data-name="Pfad 83" d="M292.71,161.226s1.084-2.01,1.856-2a3.789,3.789,0,0,1-1.827,2.178Z" transform="translate(-288.673 -150.73)" fill="#91db00"/>
      <path id="Pfad_84" data-name="Pfad 84" d="M296.7,137.035s.993-1.57,1.649-1.675c0,0-.662,1.989-1.627,2.128Z" transform="translate(-292.328 -128.861)" fill="#91db00"/>
      <path id="Pfad_85" data-name="Pfad 85" d="M298.064,103.631l.71-3.051s.478,2.576-.773,3.6Z" transform="translate(-293.519 -96.994)" fill="#91db00"/>
      <path id="Pfad_86" data-name="Pfad 86" d="M294.519,70.027a17.47,17.47,0,0,0-.349-2.6,4.683,4.683,0,0,1,.513,3.65Z" transform="translate(-290.01 -66.621)" fill="#91db00"/>
      <path id="Pfad_87" data-name="Pfad 87" d="M278.707,401.94s-1.34-.556-1.827,1.417c0,0,1.2.543,2.046-.969Z" transform="translate(-274.169 -373.044)" fill="#91db00"/>
      <path id="Pfad_88" data-name="Pfad 88" d="M266.285,378.768s-1.6-.438-2.015,1.6c0,0,1.282.6,2.23-1.14Z" transform="translate(-262.615 -351.844)" fill="#91db00"/>
      <path id="Pfad_89" data-name="Pfad 89" d="M252.98,354.985a1.886,1.886,0,0,0-2.68.435,2.32,2.32,0,0,0,2.732-.116Z" transform="translate(-249.815 -329.749)" fill="#91db00"/>
      <path id="Pfad_90" data-name="Pfad 90" d="M248.055,331.235a1.82,1.82,0,0,0-2.635.356,2.364,2.364,0,0,0,2.685-.05Z" transform="translate(-245.344 -307.952)" fill="#91db00"/>
      <path id="Pfad_91" data-name="Pfad 91" d="M247.1,305.043s-1.065-1.759-2.585-.682c0,0,1.162,1.525,2.568,1.005Z" transform="translate(-244.51 -283.385)" fill="#91db00"/>
      <path id="Pfad_92" data-name="Pfad 92" d="M247.407,280.712s-1.065-1.792-2.6-.632c0,0,1.31,1.592,2.569.941Z" transform="translate(-244.785 -261.1)" fill="#91db00"/>
      <path id="Pfad_93" data-name="Pfad 93" d="M255.624,248.634s-.639-2.05-2.054-2.01c0,0,.653,2.166,1.931,2.422Z" transform="translate(-252.811 -230.804)" fill="#91db00"/>
      <path id="Pfad_94" data-name="Pfad 94" d="M260.918,223.911s-.526-2.509-1.688-2.412a4.878,4.878,0,0,0,1.617,2.79Z" transform="translate(-257.997 -207.783)" fill="#91db00"/>
      <path id="Pfad_95" data-name="Pfad 95" d="M265.27,201.947s-.684-2.047-1.82-2.127a4.386,4.386,0,0,0,1.8,2.66Z" transform="translate(-261.863 -187.921)" fill="#91db00"/>
      <path id="Pfad_96" data-name="Pfad 96" d="M277.905,177.522s-.367-2.188-1.089-2.4c0,0-.093,2.05.94,2.713Z" transform="translate(-274.108 -165.29)" fill="#91db00"/>
      <path id="Pfad_97" data-name="Pfad 97" d="M280.095,155.926s-.46-2.241-1.2-2.446a3.784,3.784,0,0,0,1.125,2.61Z" transform="translate(-276.01 -145.463)" fill="#91db00"/>
      <path id="Pfad_98" data-name="Pfad 98" d="M288.587,133.434s-.3-1.833-.866-2.184c0,0-.168,2.089.67,2.6Z" transform="translate(-284.088 -125.095)" fill="#91db00"/>
      <path id="Pfad_99" data-name="Pfad 99" d="M287,103.455l-.977-2.975s-.251,2.608,1.089,3.522Z" transform="translate(-282.531 -96.902)" fill="#91db00"/>
      <path id="Pfad_100" data-name="Pfad 100" d="M275.851,76.816a17.293,17.293,0,0,1-1.581-2.086,4.682,4.682,0,0,0,2.209,2.95Z" transform="translate(-271.777 -73.309)" fill="#91db00"/>
      <path id="Pfad_101" data-name="Pfad 101" d="M269.575,60.647s-1.639-2.727-2.2-2.877a3.746,3.746,0,0,1,2.288,2.778Z" transform="translate(-265.455 -57.77)" fill="#91db00"/>
      <path id="Pfad_102" data-name="Pfad 102" d="M293.338,95.792l-.084-.012c.463-3.368.377-5.457-.245-5.88l.048-.07C293.717,90.28,293.813,92.341,293.338,95.792Z" transform="translate(-288.947 -87.144)" fill="#689b02"/>
      <path id="Pfad_103" data-name="Pfad 103" d="M277.765,166.282l-.125-.023c.057-.311.121-.627.191-.941.612-2.727,1.1-5.25,1.365-7.169l.095-.069c-.265,1.927-.723,4.536-1.335,7.267C277.885,165.654,277.821,165.969,277.765,166.282Z" transform="translate(-274.865 -149.678)" fill="#689b02"/>
      <path id="Pfad_104" data-name="Pfad 104" d="M279.393,270.245a16.484,16.484,0,0,1-3.518-4.44,18.3,18.3,0,0,1-1.982-5.417,21.364,21.364,0,0,1,.07-7.679l.111.094a19.407,19.407,0,0,0,1.947,12.914,16.216,16.216,0,0,0,3.477,4.4Z" transform="translate(-271.143 -236.381)" fill="#689b02"/>
    </g>
    <path id="Pfad_105" data-name="Pfad 105" d="M1002.109,805.82s-3.542-.214-3.124,2.268a.6.6,0,0,0,.314.638s.007-.184.364-.121a1.635,1.635,0,0,0,.385.018.805.805,0,0,0,.471-.194h0a2.809,2.809,0,0,0,1.382-2.038s.287-.355.276-.446l-.6.251a1.07,1.07,0,0,1,.044.789s-.019-.773-.134-.754c-.024,0-.311.15-.311.15a1.758,1.758,0,0,1,.084,1.3s.1-.926-.2-1.243l-.419.246a1.857,1.857,0,0,1,.132,1.408,2.64,2.64,0,0,0-.221-1.349l-.381.3a1.815,1.815,0,0,1,.151,1.289s-.031-1.13-.233-1.215a2.192,2.192,0,0,0-.384.419s.264.555.1.848c0,0-.1-.754-.183-.754a2.447,2.447,0,0,0-.367.838,1.81,1.81,0,0,1,.287-.888,1,1,0,0,0-.509.263s.052-.353.586-.384a2.319,2.319,0,0,1,.349-.4,2.191,2.191,0,0,0-.862.1.962.962,0,0,1,.96-.182l.376-.307a3.116,3.116,0,0,0-1.005.01,1.223,1.223,0,0,1,1.107-.08l.41-.244a3.731,3.731,0,0,0-.96-.084,1.472,1.472,0,0,1,1.081.017l.293-.131s-.441-.084-.57-.1-.136-.049-.136-.049a1.527,1.527,0,0,1,.828.092A3.75,3.75,0,0,0,1002.109,805.82Z" transform="translate(-2211.141 -480.652)" fill="#91db00"/>
    <ellipse id="Ellipse_15" data-name="Ellipse 15" cx="2.506" cy="0.424" rx="2.506" ry="0.424" transform="translate(-1213.978 327.866)" fill="#91db00" opacity="0.1"/>
    <path id="Pfad_106" data-name="Pfad 106" d="M1098.3,727.772s-2-.12-1.759,1.279a.341.341,0,0,0,.177.359s0-.1.205-.069a.9.9,0,0,0,.217.011.448.448,0,0,0,.265-.11h0a1.586,1.586,0,0,0,.78-1.149s.162-.2.155-.251l-.335.144a.6.6,0,0,1,.024.445s-.011-.436-.075-.426c-.013,0-.175.084-.175.084a1,1,0,0,1,.049.731s.057-.522-.111-.7l-.237.138a1.049,1.049,0,0,1,.074.794,1.488,1.488,0,0,0-.125-.761l-.214.167a1.023,1.023,0,0,1,.084.727s-.017-.637-.131-.685a1.335,1.335,0,0,0-.217.234s.149.313.057.478c0,0-.057-.425-.1-.426a1.407,1.407,0,0,0-.207.474,1.025,1.025,0,0,1,.162-.5.562.562,0,0,0-.287.148s.029-.2.335-.216a1.3,1.3,0,0,1,.2-.226,1.235,1.235,0,0,0-.486.056.547.547,0,0,1,.541-.1l.213-.172a1.751,1.751,0,0,0-.567.006.684.684,0,0,1,.624-.045l.231-.138a2.117,2.117,0,0,0-.542-.047.831.831,0,0,1,.609.01l.167-.075s-.251-.049-.322-.056-.077-.028-.077-.028a.863.863,0,0,1,.467.052A2,2,0,0,0,1098.3,727.772Z" transform="translate(-2300.535 -409.144)" fill="#91db00"/>
    <ellipse id="Ellipse_16" data-name="Ellipse 16" cx="1.413" cy="0.239" rx="1.413" ry="0.239" transform="translate(-1205.027 320.151)" fill="#91db00" opacity="0.1"/>
    <path id="Pfad_107" data-name="Pfad 107" d="M953.55,742.266s-2.411-.146-2.126,1.544a.411.411,0,0,0,.214.434s0-.125.247-.084a1.152,1.152,0,0,0,.262.013.551.551,0,0,0,.32-.132h0a1.913,1.913,0,0,0,.942-1.388s.2-.241.187-.3l-.406.173a.729.729,0,0,1,.029.538s-.013-.527-.091-.514c-.016,0-.211.1-.211.1a1.206,1.206,0,0,1,.059.883s.069-.63-.133-.846l-.286.168a1.266,1.266,0,0,1,.09.959,1.817,1.817,0,0,0-.15-.921l-.26.2a1.236,1.236,0,0,1,.1.878s-.021-.769-.159-.828a1.583,1.583,0,0,0-.261.282s.179.378.068.577c0,0-.068-.512-.124-.514a1.726,1.726,0,0,0-.251.572,1.237,1.237,0,0,1,.2-.6.682.682,0,0,0-.346.179s.035-.24.4-.261a1.576,1.576,0,0,1,.237-.273,1.49,1.49,0,0,0-.586.068.656.656,0,0,1,.653-.124l.256-.209a2.1,2.1,0,0,0-.684.007.834.834,0,0,1,.754-.055l.279-.167a2.522,2.522,0,0,0-.654-.057,1.007,1.007,0,0,1,.735.012l.2-.082s-.3-.059-.388-.068-.092-.034-.092-.034a1.041,1.041,0,0,1,.564.063A2.518,2.518,0,0,0,953.55,742.266Z" transform="translate(-2167.574 -422.422)" fill="#91db00"/>
    <ellipse id="Ellipse_17" data-name="Ellipse 17" cx="1.706" cy="0.288" rx="1.706" ry="0.288" transform="translate(-1217.391 321.68)" fill="#91db00" opacity="0.1"/>
    <path id="Pfad_109" data-name="Pfad 109" d="M260.755,351.6l-8.4,3.251L240.071,359.6c-.463-.86-1.147-2.037-1.993-3.434-2.908-4.821-7.721-12.318-12.005-18.907-4.828-7.424-8.983-13.693-8.983-13.693l3.008-.872,24.57-7.126Z" transform="translate(-1494.773 -31.472)" fill="#fff"/>
    <path id="Pfad_110" data-name="Pfad 110" d="M293.657,351.6l-8.4,3.251a63.191,63.191,0,0,1-14.274,1.313c-2.908-4.821-7.721-12.318-12.005-18.907L253,322.7l24.57-7.126Z" transform="translate(-1527.675 -31.472)" opacity="0.1"/>
    <path id="Pfad_111" data-name="Pfad 111" d="M287.081,310.368s-13.054,7.721-32.543,5.979L239,278.469l7.446-1.279,25.739-4.42,14.6,36.866Z" transform="translate(-1514.848 7.743)" fill="#91db00"/>
    <path id="Pfad_112" data-name="Pfad 112" d="M368.27,309.636a61.8,61.8,0,0,1-10.208-.29,32.79,32.79,0,0,1-11.1-3.114,33.716,33.716,0,0,1-7.259-4.876c-5.412-4.868-8.762-11.833-11.77-24.165l25.739-4.42Z" transform="translate(-1596.329 7.743)" opacity="0.1"/>
    <path id="Pfad_113" data-name="Pfad 113" d="M358.742,186.859a71.175,71.175,0,0,1-19.415.725,32.82,32.82,0,0,1-11.1-3.114,33.715,33.715,0,0,1-7.259-4.876c-6.7-6.031-10.237-15.264-13.884-33.917a49.185,49.185,0,0,0,31.806-4.6S344.218,174.357,358.742,186.859Z" transform="translate(-1577.225 128.402)" fill="#fff"/>
    <path id="Pfad_114" data-name="Pfad 114" d="M491.193,569.672a32.822,32.822,0,0,1-11.1-3.114,33.719,33.719,0,0,1-7.259-4.876c5.7-.463,6.524-3.582,6.524-3.582C483.582,564.811,491.193,569.672,491.193,569.672Z" transform="translate(-1729.091 -253.686)" opacity="0.1"/>
    <path id="Pfad_115" data-name="Pfad 115" d="M405.85,239a30.505,30.505,0,0,0,16.638-3.539l.551,1.77a42.736,42.736,0,0,1-17.189,3.837Z" transform="translate(-1667.722 41.928)" fill="#8f9bb3" opacity="0.3"/>
    <path id="Pfad_116" data-name="Pfad 116" d="M405.85,324.176a56.6,56.6,0,0,0,18.056-5.286l.322.735s-3.5,4.405-18.377,5.556Z" transform="translate(-1667.722 -34.514)" fill="#8f9bb3" opacity="0.3"/>
    <path id="Pfad_117" data-name="Pfad 117" d="M417.94,364.866A56.6,56.6,0,0,0,436,359.58l.322.735s-3.5,4.409-18.377,5.561Z" transform="translate(-1678.799 -71.795)" fill="#8f9bb3" opacity="0.3"/>
    <path id="Pfad_118" data-name="Pfad 118" d="M429,408.716a56.6,56.6,0,0,0,18.056-5.286l.322.735s-3.5,4.407-18.377,5.561Z" transform="translate(-1688.932 -111.972)" fill="#8f9bb3" opacity="0.3"/>
    <path id="Pfad_119" data-name="Pfad 119" d="M442.13,446.3a56.605,56.605,0,0,0,18.056-5.286l.322.735s-3.5,4.408-18.377,5.562Z" transform="translate(-1700.963 -146.405)" fill="#8f9bb3" opacity="0.3"/>
    <path id="Pfad_120" data-name="Pfad 120" d="M454.23,487.016a56.6,56.6,0,0,0,18.056-5.286l.322.735s-3.5,4.408-18.377,5.561Z" transform="translate(-1712.049 -183.714)" fill="#8f9bb3" opacity="0.26"/>
    <rect id="Rechteck_3" data-name="Rechteck 3" width="2.526" height="2.526" transform="translate(-1242.405 282.896) rotate(-18.8)" fill="#8f9bb3" opacity="0.3"/>
    <rect id="Rechteck_4" data-name="Rechteck 4" width="2.526" height="2.526" transform="translate(-1241.044 286.453) rotate(-18.8)" fill="#8f9bb3" opacity="0.3"/>
    <rect id="Rechteck_5" data-name="Rechteck 5" width="2.526" height="2.526" transform="translate(-1238.864 293.296) rotate(-18.8)" fill="#8f9bb3" opacity="0.3"/>
    <rect id="Rechteck_6" data-name="Rechteck 6" width="2.526" height="2.526" transform="translate(-1237.613 296.969) rotate(-18.8)" fill="#8f9bb3" opacity="0.3"/>
    <rect id="Rechteck_7" data-name="Rechteck 7" width="2.526" height="2.526" transform="translate(-1239.936 290.148) rotate(-18.8)" fill="#8f9bb3" opacity="0.3"/>
    <path id="Pfad_121" data-name="Pfad 121" d="M780.758,293.878l-.09-.084c.231-.047.449-.068.449-.068s-.793-2.87-2.131-3.827a6.282,6.282,0,0,1-1.6-1.937,29.285,29.285,0,0,0-2.386-3.5l-.241-.3-.1-.132a1.155,1.155,0,0,0,.3-.683.014.014,0,0,1,0-.005.305.305,0,0,0,0-.04.459.459,0,0,0-.017-.093l-.009.014c-.113-.328-.548-.473-.87-.654a3.07,3.07,0,0,1-1.237-2.216,3,3,0,0,0-.754-1.855c-.335-.277-.791-.369-1.128-.644a3.3,3.3,0,0,1-.7-1.022,4.093,4.093,0,0,0-1.361-1.535,2.27,2.27,0,0,0-1.966-.26c-.245.094-.468.24-.711.341-.6.251-1.294.218-1.891.483a4.21,4.21,0,0,0-1.651,1.734,8.249,8.249,0,0,0-.783,1.395v-.054a2,2,0,0,0-.156.725,1.092,1.092,0,0,0,.034.315,1.016,1.016,0,0,0,.68.649,2.853,2.853,0,0,0,.074.316,3.1,3.1,0,0,0,2,2.045c.028.01.056.017.084.025a.664.664,0,0,0,.1.184c.267.335.8.24,1.152,0,.014-.009.028-.021.041-.031a1.267,1.267,0,0,0,.015.142c.008.04.013.084.022.12a5.789,5.789,0,0,0,1.118,2.607s.075.112.2.3a3.736,3.736,0,0,0,.855,2.443,4.38,4.38,0,0,1-1.907.686,12.1,12.1,0,0,1-2.322.134c-.034-.018-.065.007-.1.064-.573-.349-2.4-1.356-2.561-.064-.142,1.173,1.528,1.323,2.323,1.328-.036.343-.056.618-.056.618l3.418-.234,1.78-.262a2.142,2.142,0,0,1-.636.606,11.768,11.768,0,0,1-1.887,1.314c-.039,0-.052.039-.046.1-.677,0-2.782.1-2.2,1.271.53,1.063,2.023.328,2.7-.079.159.309.295.551.295.551l2.758-1.964.6-.5a2.126,2.126,0,0,0,.594-.115.07.07,0,0,0,.008.022,1.128,1.128,0,0,1,.048.189,11.736,11.736,0,0,1-.4,3.207s-1.238,3.157-.643,3.588.155,2.247.155,2.247a3.355,3.355,0,0,0,.357.493h0a1.5,1.5,0,0,0,.209.2,1.953,1.953,0,0,0-.069.23,1.879,1.879,0,0,0,.1,1.159,5.276,5.276,0,0,1,.16,2.429l-.8,5.421a2.28,2.28,0,0,0-1.068,0c-.284.16-.191.967.468,1.313a1.7,1.7,0,0,1-.678.312c-.586.134-1,.219-1.27.271-.018,0-1.407-.307-1.764-.1s-.185,1.327.83,1.6a25.776,25.776,0,0,0,5.765.5l.068-.012c.907-.179.111-1.371.01-1.516-.007-.049-.013-.1-.019-.155-.014-.124-.027-.266-.036-.419a13.555,13.555,0,0,0,2.469.07.267.267,0,0,0,.06-.011c.8-.159.1-1.213.009-1.34l-.013-.1v-.009c0-.024-.006-.05-.008-.075a.324.324,0,0,0-.007-.065c-.007-.023,0-.04-.006-.061q-.005-.062-.01-.128v-.054c0-.033,0-.067-.006-.1v-.056c0-.05,0-.1-.005-.154v-.41c0-.056.005-.114.008-.172l.005-.062c0-.043.007-.084.011-.127a.2.2,0,0,1,.007-.063c.007-.059.014-.117.023-.177a.385.385,0,0,1,.008-.053c.008-.044.015-.09.024-.135a.325.325,0,0,1,.013-.067q.015-.073.033-.146a.171.171,0,0,1,.009-.04c.015-.059.032-.116.049-.174.006-.02.013-.04.019-.06.014-.044.029-.084.045-.129l.02-.054c.023-.057.047-.113.072-.168.007-.014.014-.028.022-.043.021-.044.044-.084.067-.129l.029-.049c.032-.054.064-.107.1-.158a9.422,9.422,0,0,0,1.142-4.4,4.855,4.855,0,0,1,.275-1.864,14.54,14.54,0,0,0,1.138-1.684c.069-.124.13-.24.178-.344.273-.095.454-.168.454-.168h0a3.881,3.881,0,0,1-.137-1.08,3.273,3.273,0,0,1,1.012-2.414,3.948,3.948,0,0,0,1.377-2.67V294C780.762,293.916,780.758,293.878,780.758,293.878Z" transform="translate(-1993.305 5.78)" fill="url(#linear-gradient)"/>
    <path id="Pfad_122" data-name="Pfad 122" d="M875.43,571.006a14.393,14.393,0,0,1-1.089,1.664,4.96,4.96,0,0,0-.262,1.843,9.572,9.572,0,0,1-1.089,4.348c-.88,1.3-.428,3.542-.428,3.542l-1.4.493h-1.688l-1.163-.348L868,581.7s.409-.063,1.424-.3a1.317,1.317,0,0,0,1.051-1.2l.713-4.978a4.764,4.764,0,0,0-.136-2.126,1.73,1.73,0,0,1,.114-1.516l.023-.035a14.2,14.2,0,0,1,2.221-1.412c.993-.479,2-.707,2.285.143A1.478,1.478,0,0,1,875.43,571.006Z" transform="translate(-2091.16 -264.322)" fill="#a5636d"/>
    <path id="Pfad_123" data-name="Pfad 123" d="M875.43,571.006a14.393,14.393,0,0,1-1.089,1.664,4.96,4.96,0,0,0-.262,1.843,9.572,9.572,0,0,1-1.089,4.348,4.9,4.9,0,0,0-.5,3.037c.033.309.073.5.073.5l-1.4.493h-1.686l-1.163-.345L868,581.7s.1-.016.335-.061.586-.122,1.094-.243a1.318,1.318,0,0,0,1.046-1.2l.713-4.978a4.764,4.764,0,0,0-.136-2.126,1.73,1.73,0,0,1,.114-1.516l.023-.035a14.2,14.2,0,0,1,2.221-1.412c.993-.479,2-.707,2.285.143A1.478,1.478,0,0,1,875.43,571.006Z" transform="translate(-2091.16 -264.322)" opacity="0.05"/>
    <path id="Pfad_124" data-name="Pfad 124" d="M872.562,712.933l-1.4.493h-1.688l-1.163-.348-.307-.846s.1-.016.335-.061a.632.632,0,0,0,.487.684l.66.023c.093,0,.187.005.279.005a8.417,8.417,0,0,0,2.729-.453C872.523,712.737,872.562,712.933,872.562,712.933Z" transform="translate(-2091.16 -394.851)" opacity="0.1"/>
    <path id="Pfad_125" data-name="Pfad 125" d="M855.434,711.307l-.661-.023a.645.645,0,0,1-.466-.83s-1.189-.27-1.493-.091-.157,1.163.7,1.4a21.046,21.046,0,0,0,4.878.44l.058-.01c.818-.168,0-1.34,0-1.34h0A8.448,8.448,0,0,1,855.434,711.307Z" transform="translate(-2077.112 -393.139)" fill="#17254a"/>
    <path id="Pfad_126" data-name="Pfad 126" d="M841.318,573.948c-.044.089-.092.181-.147.277a15.594,15.594,0,0,1-1.2,1.826,5.643,5.643,0,0,0-.3,2.082,10.823,10.823,0,0,1-1.229,4.907,4.7,4.7,0,0,0-.615,2.606,8.384,8.384,0,0,0,.049.838c.037.341.084.554.084.554l-1.585.555h-1.907l-1.312-.391-.344-.958s.115-.018.373-.07.66-.137,1.235-.272a1.489,1.489,0,0,0,1.184-1.349l.8-5.618a5.391,5.391,0,0,0-.153-2.4,1.927,1.927,0,0,1-.094-1.147,1.828,1.828,0,0,1,.251-.6s.307-.241.769-.56c.2-.141.441-.3.7-.454,1.119-.693,2.591-1.4,3.3-.885a.912.912,0,0,1,.325.468A1.191,1.191,0,0,1,841.318,573.948Z" transform="translate(-2058.927 -267.072)" fill="#a5636d"/>
    <path id="Pfad_127" data-name="Pfad 127" d="M837.964,734.343l-1.585.555h-1.9l-1.312-.39-.344-.958s.115-.018.373-.07a.7.7,0,0,0,.223.619.747.747,0,0,0,.472.178l.6.019c.1,0,.21.006.315.006a9.528,9.528,0,0,0,3.081-.513C837.921,734.13,837.964,734.343,837.964,734.343Z" transform="translate(-2058.927 -414.376)" opacity="0.1"/>
    <path id="Pfad_128" data-name="Pfad 128" d="M818.576,732.514l-.6-.02a.754.754,0,0,1-.473-.178.74.74,0,0,1-.2-.765s-1.34-.3-1.686-.1-.177,1.313.793,1.585a23.814,23.814,0,0,0,5.506.5l.065-.012c.921-.189,0-1.514,0-1.514h0A9.5,9.5,0,0,1,818.576,732.514Z" transform="translate(-2043.015 -412.451)" fill="#17254a"/>
    <path id="Pfad_129" data-name="Pfad 129" d="M890.96,571.024a8.023,8.023,0,0,1-1.879.477.838.838,0,0,1-.143-.007h0a16.5,16.5,0,0,0-2.239.109c-.368.033-.721.067-1.014.1l-.735.078v-.284c.2-.141.441-.3.7-.454,1.119-.693,2.591-1.4,3.3-.885.993-.479,2-.707,2.285.143A1.534,1.534,0,0,1,890.96,571.024Z" transform="translate(-2106.69 -264.34)" opacity="0.1"/>
    <path id="Pfad_130" data-name="Pfad 130" d="M893.64,496.425a3.968,3.968,0,0,1-1.316,2.641,3.656,3.656,0,0,0-.838,3.459,11.471,11.471,0,0,1-2.482.7.838.838,0,0,1-.143-.007,26.809,26.809,0,0,0-3.256.206l-.735.078v-6.031l8.036-1.951.728.725A1.317,1.317,0,0,1,893.64,496.425Z" transform="translate(-2106.617 -196.348)" fill="#17254a"/>
    <path id="Pfad_131" data-name="Pfad 131" d="M955.5,576.89" transform="translate(-2171.33 -270.902)" fill="none"/>
    <g id="Gruppe_7" data-name="Gruppe 7" transform="translate(-1221.743 299.174)" opacity="0.17">
      <path id="Pfad_132" data-name="Pfad 132" d="M885.042,587.527l-.132.014v.064l.736-.078c.735-.075,1.859-.179,2.6-.21A29.29,29.29,0,0,0,885.042,587.527Z" transform="translate(-884.91 -579.622)" fill="#8f9bb3"/>
      <path id="Pfad_133" data-name="Pfad 133" d="M934.693,496.275l-.728-.725-.485.121.61.607a1.369,1.369,0,0,1,0,.182,3.969,3.969,0,0,1-1.316,2.641,3.656,3.656,0,0,0-.838,3.459,13.792,13.792,0,0,1-2.257.679,2.068,2.068,0,0,1,.234.013.84.84,0,0,0,.143.008,11.477,11.477,0,0,0,2.482-.7,3.646,3.646,0,0,1,.838-3.459,3.969,3.969,0,0,0,1.316-2.641A1.339,1.339,0,0,0,934.693,496.275Z" transform="translate(-925.93 -495.55)" fill="#8f9bb3"/>
    </g>
    <path id="Pfad_134" data-name="Pfad 134" d="M769.258,446.706s-2.429-1.685-2.608-.167,2.608,1.3,2.608,1.3Z" transform="translate(-1998.292 -150.889)" fill="#a5636d"/>
    <path id="Pfad_135" data-name="Pfad 135" d="M797.211,442.13a4.854,4.854,0,0,1-2.041.816,11.173,11.173,0,0,1-2.218.133c-.231-.133-.372,1.927-.372,1.927l3.267-.23,2.094-.32s1.047-.638,1.047-1.189S797.211,442.13,797.211,442.13Z" transform="translate(-2022.057 -147.431)" fill="#f7cddd"/>
    <path id="Pfad_136" data-name="Pfad 136" d="M797.211,442.13a4.854,4.854,0,0,1-2.041.816,11.173,11.173,0,0,1-2.218.133c-.231-.133-.372,1.927-.372,1.927l3.267-.23,2.094-.32s1.047-.638,1.047-1.189S797.211,442.13,797.211,442.13Z" transform="translate(-2022.057 -147.431)" fill="#91db00" opacity="0.05"/>
    <path id="Pfad_137" data-name="Pfad 137" d="M798.726,494.46s-2.954-.122-2.293,1.256,2.9-.295,2.9-.295Z" transform="translate(-2025.499 -195.374)" fill="#a5636d"/>
    <path id="Pfad_138" data-name="Pfad 138" d="M837.481,408.713s-2.395-1.792-2.057-3.974,2.057,1.67,2.057,1.67Z" transform="translate(-2061.282 -112.559)" fill="#17254a"/>
    <path id="Pfad_139" data-name="Pfad 139" d="M786.21,308.3a3.031,3.031,0,0,1-.852,2.1,2.85,2.85,0,0,1-.437.373,2.987,2.987,0,0,1-1.423.535c-.1.01-.209.016-.315.016a2.954,2.954,0,0,1-1-.167,3.027,3.027,0,1,1,4.025-2.856Z" transform="translate(-2010.673 -22.041)" fill="#a5636d"/>
    <path id="Pfad_140" data-name="Pfad 140" d="M882.563,496.425c-.271.05-.606.141-.606.281,0,.237-3.785,1.514-3.785,1.514s.142.33-.236.9-3.454,3.831-3.454,3.831l.01.1.039.376.188,1.8a6.229,6.229,0,0,0-1.561-.379.519.519,0,0,1-.378-.176,1.831,1.831,0,0,1,.251-.6s.307-.241.769-.56v-6.031l8.036-1.951.728.725A1.316,1.316,0,0,1,882.563,496.425Z" transform="translate(-2095.539 -196.348)" opacity="0.1"/>
    <path id="Pfad_141" data-name="Pfad 141" d="M843.056,367.329s-.947.094-.947.331-3.784,1.514-3.784,1.514.141.33-.236.9-3.454,3.832-3.454,3.832l.237,2.27a6.229,6.229,0,0,0-1.561-.379c-.168.021-.356-.135-.511-.317a3.292,3.292,0,0,1-.341-.487s.426-1.8-.141-2.224.615-3.547.615-3.547a12.113,12.113,0,0,0,.377-3.172,1.138,1.138,0,0,0-.045-.188.068.068,0,0,0-.007-.021c-.335-.91-3.967-8.544-3.967-8.544a5.511,5.511,0,0,1,.045-.648c.008-.059.018-.121.029-.184a3.094,3.094,0,0,1,.074-.335,2.118,2.118,0,0,1,.069-.209c.112-.288.284-.51.54-.515a1.588,1.588,0,0,1,.95-.4,4.132,4.132,0,0,1,2.126.4,13.322,13.322,0,0,0,2.743.993l1.117,1.466.23.3a28.977,28.977,0,0,1,2.279,3.46,6.159,6.159,0,0,0,1.53,1.917C842.3,364.491,843.056,367.329,843.056,367.329Z" transform="translate(-2055.692 -67.586)" fill="#91db00"/>
    <path id="Pfad_142" data-name="Pfad 142" d="M894.65,437.05s3.158.781,4.382,2.749Z" transform="translate(-2115.577 -142.776)" opacity="0.1"/>
    <path id="Pfad_143" data-name="Pfad 143" d="M906.3,478.34a32.037,32.037,0,0,1,.431,4.311C906.566,482.953,906.3,478.34,906.3,478.34Z" transform="translate(-2126.252 -180.608)" opacity="0.1"/>
    <path id="Pfad_144" data-name="Pfad 144" d="M873.917,491.824c-.229.3-1.162,2.625-1.162,2.625l.269,3.9.237,2.27a6.224,6.224,0,0,0-1.56-.379c-.168.021-.357-.135-.511-.317.245-1.329.771-4.111.865-4.165a13,13,0,0,0,.8-2.932,6.942,6.942,0,0,1,.922-2.02S874.149,491.523,873.917,491.824Z" transform="translate(-2094.083 -192.033)" opacity="0.1"/>
    <path id="Pfad_145" data-name="Pfad 145" d="M834.635,375.22c-.059.177-.149,1.206-.149,1.206a1.393,1.393,0,0,1-1.177,1.3,1.145,1.145,0,0,0-.045-.188c-.284-.8-3.974-8.562-3.974-8.562a5.1,5.1,0,0,1,.147-1.168,4.709,4.709,0,0,1,2.075.127c.368-.049,1.567,2.336,1.567,2.336s.8,1.826.887,2.075a4.419,4.419,0,0,1,.035.8c.035.142.409.265.461.461s.018.586.054.656A2.9,2.9,0,0,1,834.635,375.22Z" transform="translate(-2055.692 -79.261)" opacity="0.1"/>
    <path id="Pfad_146" data-name="Pfad 146" d="M825.873,373.5c-.059.178-.149,1.206-.149,1.206a1.34,1.34,0,0,1-.945,1.232,1.982,1.982,0,0,1-.568.113l-.57.5-2.634,1.939s-.982-1.815-.715-1.825a11.118,11.118,0,0,0,1.8-1.3,4,4,0,0,0,1.159-1.52,1.323,1.323,0,0,1-.029-.156,21.494,21.494,0,0,0-2.082-3.879,5.809,5.809,0,0,1-1.067-2.578c-.008-.038-.014-.078-.022-.118a1.215,1.215,0,0,1-.015-.157c-.036-.644.433-.879.989-.934h0a3.969,3.969,0,0,1,.871.027,6.311,6.311,0,0,1,.852.168c.238-.032.824.957,1.209,1.659h0c.207.38.356.677.356.677s.8,1.827.887,2.075a4.4,4.4,0,0,1,.035.8c.035.142.409.266.461.461s.018.586.054.656A2.911,2.911,0,0,1,825.873,373.5Z" transform="translate(-2047.214 -77.688)" fill="#91db00"/>
    <path id="Pfad_147" data-name="Pfad 147" d="M792.339,313.778a1.805,1.805,0,0,1-1.966.251,13.2,13.2,0,0,1-1.808-1.1c-.392-.24-.807-.436-1.194-.683h0c-.057-.037-.112-.074-.167-.112-.446-.315-.832-.72-1.293-1.005a2.01,2.01,0,0,0-1.039-.335,1.181,1.181,0,0,0-.495.1.666.666,0,0,0-.084.041,2.139,2.139,0,0,0-.419.314c-.131.117-.255.242-.393.352-.008-.038-.014-.078-.022-.118a1.194,1.194,0,0,1-.015-.157c-.1.01-.208.016-.315.016a2.952,2.952,0,0,1-1-.168.068.068,0,0,0-.008-.038,2.385,2.385,0,0,0-.8-1.563,5.55,5.55,0,0,0-1.107-.419,3.027,3.027,0,1,1,5.7.328,4.133,4.133,0,0,1,2.126.4,13.318,13.318,0,0,0,2.743.993l1.117,1.466a1.253,1.253,0,0,0-.27.581C791.62,313.317,792,313.592,792.339,313.778Z" transform="translate(-2010.625 -22.054)" opacity="0.1"/>
    <path id="Pfad_148" data-name="Pfad 148" d="M774.443,286.309a2.388,2.388,0,0,1,.8,1.561,1.218,1.218,0,0,0,.183.529c.251.33.767.237,1.1,0a6.46,6.46,0,0,1,.966-.764,1.664,1.664,0,0,1,1.534.229c.462.289.848.694,1.293,1.005s.912.521,1.361.795a12.955,12.955,0,0,0,1.808,1.1,1.811,1.811,0,0,0,1.965-.251c-.335-.186-.719-.461-.694-.859s.49-.7.459-1.1-.512-.569-.857-.77a3.066,3.066,0,0,1-1.182-2.19,3.034,3.034,0,0,0-.715-1.835c-.321-.275-.754-.364-1.077-.637a3.313,3.313,0,0,1-.67-1.011,4.022,4.022,0,0,0-1.3-1.519,2.083,2.083,0,0,0-1.877-.256c-.234.093-.448.237-.679.335-.576.251-1.235.215-1.806.477a4.107,4.107,0,0,0-1.577,1.715c-.353.58-1.055,1.6-.856,2.358S773.922,285.946,774.443,286.309Z" transform="translate(-2003.737 0.924)" fill="#4c3e42"/>
    <g id="Gruppe_8" data-name="Gruppe 8" transform="translate(-1231.154 285.114)" opacity="0.1">
      <path id="Pfad_149" data-name="Pfad 149" d="M919.9,378.232a.52.52,0,0,0-.016-.092,1.418,1.418,0,0,0-.3.629.569.569,0,0,0,.013.162A1.217,1.217,0,0,0,919.9,378.232Z" transform="translate(-907.263 -373.915)"/>
      <path id="Pfad_150" data-name="Pfad 150" d="M783.605,333.667a12.932,12.932,0,0,1-1.807-1.1c-.45-.274-.931-.491-1.362-.795s-.832-.72-1.293-1.005a1.676,1.676,0,0,0-1.534-.23,6.245,6.245,0,0,0-.966.765c-.333.241-.844.335-1.1,0a1.216,1.216,0,0,1-.183-.529,2.387,2.387,0,0,0-.8-1.561c-.522-.364-1.627-.323-1.827-1.089a1.189,1.189,0,0,1-.026-.419,1.674,1.674,0,0,0-.117.984c.2.769,1.306.728,1.827,1.089a2.39,2.39,0,0,1,.8,1.562,1.227,1.227,0,0,0,.182.529c.251.33.767.237,1.1,0a6.187,6.187,0,0,1,.966-.764,1.667,1.667,0,0,1,1.534.229c.462.289.848.694,1.293,1.005s.912.521,1.361.795a12.875,12.875,0,0,0,1.808,1.1,1.812,1.812,0,0,0,1.965-.251,2.4,2.4,0,0,1-.366-.242A2.088,2.088,0,0,1,783.605,333.667Z" transform="translate(-772.561 -327.7)"/>
    </g>
    <path id="Pfad_151" data-name="Pfad 151" d="M716.59,439.519l6.7-2.5a.637.637,0,0,1,.82.374h0a.637.637,0,0,1-.374.82l-6.7,2.5-1.436-.144Z" transform="translate(-1951.525 -142.708)" fill="#17254a"/>
    <path id="Pfad_152" data-name="Pfad 152" d="M723.89,438.265h0a.638.638,0,0,1-.374.821l-6.7,2.5-1.079-.108-.155.168,1.436.144,6.7-2.5a.638.638,0,0,0,.374-.82h0a.635.635,0,0,0-.26-.318A.69.69,0,0,1,723.89,438.265Z" transform="translate(-1951.507 -143.784)" fill="#fff" opacity="0.1"/>
    <path id="Pfad_153" data-name="Pfad 153" d="M694.29,415.58l.447,1.194-1.179-.118-.258-.026.353-.374Z" transform="translate(-1929.225 -118.769)" fill="#efc8c4"/>
    <path id="Pfad_154" data-name="Pfad 154" d="M715.97,475.42a.257.257,0,0,1,.069.075.108.108,0,0,1,0,.116.265.265,0,0,1-.065.046.214.214,0,0,0-.1.162l-.258-.026Z" transform="translate(-1951.544 -177.932)" fill="#727a9c"/>
    <path id="Pfad_155" data-name="Pfad 155" d="M644.391,286.809l-1.13-.551a.137.137,0,0,1-.063-.183l.12-.246a.136.136,0,0,1,.183-.063l.761.371.795-1.63a.138.138,0,0,1,.183-.064l.246.121a.136.136,0,0,1,.063.183l-.975,2A.137.137,0,0,1,644.391,286.809Z" transform="translate(-1885.176 -2.94)" fill="#91db00"/>
    <path id="Pfad_156" data-name="Pfad 156" d="M673.861,370.96l-1.13-.551a.136.136,0,0,1-.063-.183l.12-.246a.137.137,0,0,1,.183-.063l.761.371.794-1.632a.137.137,0,0,1,.183-.064l.245.121a.136.136,0,0,1,.064.183l-.975,2a.138.138,0,0,1-.183.063Z" transform="translate(-1912.177 -80.041)" fill="#91db00"/>
    <path id="Pfad_157" data-name="Pfad 157" d="M660.627,329.466l-1.13-.551a.137.137,0,0,1-.064-.183l.121-.246a.136.136,0,0,1,.182-.063l.762.371.795-1.633a.137.137,0,0,1,.183-.063l.246.12a.138.138,0,0,1,.063.183l-.976,2a.137.137,0,0,1-.183.063Z" transform="translate(-1900.051 -42.022)" fill="#91db00"/>
    <path id="Pfad_158" data-name="Pfad 158" d="M686.661,408.978l-1.13-.551a.137.137,0,0,1-.063-.183l.12-.246a.137.137,0,0,1,.183-.063l.761.371.795-1.63a.138.138,0,0,1,.183-.064l.245.121a.136.136,0,0,1,.063.183l-.974,2A.138.138,0,0,1,686.661,408.978Z" transform="translate(-1923.905 -114.876)" fill="#91db00"/>
  </g>
</svg>
