<svg xmlns="http://www.w3.org/2000/svg" width="271.04" height="205.964" viewBox="0 0 271.04 205.964">
  <g id="Gruppe_272" data-name="Gruppe 272" transform="translate(-514.351 -160.881)">
    <path id="Pfad_189" data-name="Pfad 189" d="M221.053,64.932c-29.346.408-45.212-14.386-58.2-20.93A108.689,108.689,0,0,0,129,33.3c-16.541-2.285-35,.519-46.533,16.567C69.635,67.788,70.622,100.065,84.488,116.5c7.063,8.361,7.829,12.464,15.879,19.008s15.528,17.372,14.853,29.966c-.623,11.659-2.371,17.792-10.032,23.4-5.92,4.336-10.365,11.915-11.066,20.9-.7,8.7,5.427,15.528,11.27,19.4,19.06,12.646,42.561,12.516,61.569-.311,6.777-4.6,13.009-10.673,20.1-14.256,18.67-9.374,39.211.052,58.972,3.505a98.236,98.236,0,0,0,50.169-4.44c9.79-3.506,19.605-8.855,26.486-18.852,4.96-7.193,8.05-16.307,10.932-25.292q4.635-14.373,8.907-28.98c1.714-5.842,4.585-30.014-3.324-50.117-10.906-22.7-29.291-38.639-49.182-42.69s-43.006,14.212-68.966,17.191" transform="translate(440.917 128.273)" fill="#e7f2e1"/>
    <g id="undraw_unlock_24mb" transform="translate(552.538 188.433)">
      <path id="Pfad_239" data-name="Pfad 239" d="M317.51,563.711q-17.232-2.524-33.145-4.352l4.195-6.788c-1.414-.418-7.628,3.452-7.628,3.452l5.507-19.735c-7.112.685-10.732,20.845-10.732,20.845l-7.946-6.858,3.846,7.687c-32.468-3.352-60.509-4.668-84.095-4.82l3.59-5.81c-1.414-.418-7.628,3.452-7.628,3.452l5.507-19.735c-7.112.685-10.732,20.845-10.732,20.845l-7.945-6.859,4.073,8.142c-19.773.24-35.9,1.3-48.343,2.526,3.632-9.06,15.967-17.635,15.967-17.635-9.419,2.3-14.361,6.209-16.943,9.861a135.388,135.388,0,0,1,11-54.939s-19.474,35.379-16.993,59.2l.3,4.229c-16.505,1.9-24.8,3.922-24.8,3.922Z" transform="translate(-94.554 -403.307)" fill="#91db00"/>
      <path id="Pfad_240" data-name="Pfad 240" d="M381.559,92.783V235.745a6.427,6.427,0,0,1-6.425,6.42H317.1a6.413,6.413,0,0,1-6.425-6.42V92.783a6.424,6.424,0,0,1,6.425-6.425h8.685v1.114a5.291,5.291,0,0,0,5.29,5.291h29.518a5.247,5.247,0,0,0,3.136-1.032,4.908,4.908,0,0,0,.52-.437,5.276,5.276,0,0,0,1.632-3.822V86.358h9.257a6.423,6.423,0,0,1,6.425,6.425Z" transform="translate(-263.006 -86.358)" fill="#17254a"/>
      <ellipse id="Ellipse_80" data-name="Ellipse 80" cx="1.544" cy="1.544" rx="1.544" ry="1.544" transform="translate(62.29 22.276)" fill="#f2f2f2"/>
      <path id="Pfad_241" data-name="Pfad 241" d="M551.742,108.738a4.931,4.931,0,0,1-.521.437,27.624,27.624,0,0,0,17.834,13.275v-.688A26.972,26.972,0,0,1,551.742,108.738Z" transform="translate(-450.502 -103.802)" fill="#689b02"/>
      <path id="Pfad_242" data-name="Pfad 242" d="M491.214,115.4h-.723a40.067,40.067,0,0,0,31.228,24.933v-.684A39.38,39.38,0,0,1,491.214,115.4Z" transform="translate(-403.166 -108.993)" fill="#689b02"/>
      <path id="Pfad_243" data-name="Pfad 243" d="M430.888,115.4h-.7a52.829,52.829,0,0,0,44.527,37.741v-.673A52.158,52.158,0,0,1,430.888,115.4Z" transform="translate(-356.165 -108.993)" fill="#689b02"/>
      <path id="Pfad_244" data-name="Pfad 244" d="M263.308,158.4h-.4V158h-.078v.4h-.4v.079h.4v.4h.078v-.4h.4Z" transform="translate(-204.547 -123.153)" fill="#f2f2f2"/>
      <path id="Pfad_245" data-name="Pfad 245" d="M386.308,67.4h-.4V67h-.078v.4h-.4v.079h.4v.4h.078v-.4h.4Z" transform="translate(-300.419 -52.223)" fill="#f2f2f2"/>
      <path id="Pfad_246" data-name="Pfad 246" d="M281.308,230.4h-.4V230h-.078v.4h-.4v.078h.4v.4h.078v-.4h.4Z" transform="translate(-218.577 -179.273)" fill="#f2f2f2"/>
      <path id="Pfad_247" data-name="Pfad 247" d="M365.308,177.4h-.4V177h-.078v.4h-.4v.078h.4v.4h.078v-.4h.4Z" transform="translate(-284.051 -137.962)" fill="#f2f2f2"/>
      <path id="Pfad_248" data-name="Pfad 248" d="M485.308,210.4h-.4V210h-.078v.4h-.4v.079h.4v.4h.078v-.4h.4Z" transform="translate(-377.584 -163.684)" fill="#f2f2f2"/>
      <ellipse id="Ellipse_81" data-name="Ellipse 81" cx="0.882" cy="0.882" rx="0.882" ry="0.882" transform="translate(102.21 26.687)" fill="#ff6584"/>
      <path id="Pfad_249" data-name="Pfad 249" d="M416.912,305.158l-.5.077c.157,1,.28,2.025.371,3.037l.505-.044C417.2,307.2,417.071,306.17,416.912,305.158Z" transform="translate(-345.425 -256.901)" fill="#e6e6e6"/>
      <path id="Pfad_250" data-name="Pfad 250" d="M410.756,277.818l-.485.148c.293.971.556,1.965.779,2.956l.5-.113C411.319,279.807,411.052,278.8,410.756,277.818Z" transform="translate(-340.639 -235.591)" fill="#e6e6e6"/>
      <path id="Pfad_251" data-name="Pfad 251" d="M400.932,251.6l-.461.212c.423.924.82,1.872,1.18,2.821l.474-.179C401.761,253.493,401.362,252.531,400.932,251.6Z" transform="translate(-333 -215.154)" fill="#e6e6e6"/>
      <path id="Pfad_252" data-name="Pfad 252" d="M387.649,227.018l-.428.271c.545.856,1.068,1.742,1.553,2.631l.445-.243C388.73,228.778,388.2,227.883,387.649,227.018Z" transform="translate(-322.673 -195.995)" fill="#e6e6e6"/>
      <path id="Pfad_253" data-name="Pfad 253" d="M371.137,204.488l-.386.329c.657.772,1.3,1.579,1.9,2.4l.406-.3C372.449,206.085,371.8,205.269,371.137,204.488Z" transform="translate(-309.835 -178.434)" fill="#e6e6e6"/>
      <path id="Pfad_254" data-name="Pfad 254" d="M351.729,184.428l-.338.377c.759.677,1.5,1.39,2.21,2.115l.364-.355C353.248,185.831,352.5,185.112,351.729,184.428Z" transform="translate(-294.745 -162.798)" fill="#e6e6e6"/>
      <path id="Pfad_255" data-name="Pfad 255" d="M329.8,167.208l-.285.419c.843.567,1.676,1.171,2.477,1.8l.313-.4C331.489,168.392,330.647,167.781,329.8,167.208Z" transform="translate(-277.691 -149.376)" fill="#e6e6e6"/>
      <path id="Pfad_256" data-name="Pfad 256" d="M310.671,155.248v.573c.527.276,1.05.565,1.561.86l.254-.439Q311.593,155.727,310.671,155.248Z" transform="translate(-263.006 -140.054)" fill="#e6e6e6"/>
      <path id="Pfad_257" data-name="Pfad 257" d="M418.161,515.872c.082-.493.157-1,.224-1.5l.5.067c-.067.505-.143,1.014-.226,1.513Z" transform="translate(-346.789 -419.975)" fill="#e6e6e6"/>
      <path id="Pfad_258" data-name="Pfad 258" d="M411.752,537.714l.485.151c.3-.98.579-1.984.818-2.984l-.494-.117C412.324,535.753,412.054,536.744,411.752,537.714Z" transform="translate(-341.793 -435.866)" fill="#e6e6e6"/>
      <path id="Pfad_259" data-name="Pfad 259" d="M401.71,564.039l.46.216c.437-.928.847-1.884,1.219-2.842l-.473-.185C402.548,562.176,402.143,563.122,401.71,564.039Z" transform="translate(-333.966 -456.495)" fill="#e6e6e6"/>
      <path id="Pfad_260" data-name="Pfad 260" d="M388.2,588.943l.425.277c.561-.86,1.1-1.752,1.6-2.649l-.442-.248C389.288,587.209,388.754,588.091,388.2,588.943Z" transform="translate(-323.435 -476.054)" fill="#e6e6e6"/>
      <path id="Pfad_261" data-name="Pfad 261" d="M371.482,611.944l.384.333c.675-.779,1.329-1.588,1.949-2.406l-.406-.3C372.8,610.376,372.15,611.176,371.482,611.944Z" transform="translate(-310.405 -494.172)" fill="#e6e6e6"/>
      <path id="Pfad_262" data-name="Pfad 262" d="M351.907,632.59l.334.381c.776-.677,1.534-1.39,2.259-2.116l-.359-.359C353.424,631.214,352.673,631.918,351.907,632.59Z" transform="translate(-295.147 -510.485)" fill="#e6e6e6"/>
      <path id="Pfad_263" data-name="Pfad 263" d="M329.855,650.526l.28.424c.856-.565,1.707-1.168,2.523-1.789l-.307-.405C331.543,649.372,330.7,649.967,329.855,650.526Z" transform="translate(-277.959 -524.718)" fill="#e6e6e6"/>
      <path id="Pfad_264" data-name="Pfad 264" d="M312.543,664.457c-.613.346-1.24.681-1.872,1v-.569c.547-.278,1.09-.571,1.621-.869Z" transform="translate(-263.006 -536.614)" fill="#e6e6e6"/>
      <path id="Pfad_265" data-name="Pfad 265" d="M418.836,333.431l.507-.009c.009.512.01,1.027,0,1.53l-.507-.008C418.846,334.446,418.845,333.938,418.836,333.431Z" transform="translate(-347.315 -278.932)" fill="#e6e6e6"/>
      <path id="Pfad_266" data-name="Pfad 266" d="M226.216,301.632h51.876a14.556,14.556,0,0,1,14.556,14.556v1.927H240.772a14.557,14.557,0,0,1-14.556-14.556Z" transform="translate(-176.323 -235.106)" fill="#f0f4fa"/>
      <path id="Pfad_267" data-name="Pfad 267" d="M470.538,593.1a15.7,15.7,0,0,1-1.658-6.213c-.38-3.8-.136-10.2,3.183-19.121a38.559,38.559,0,0,0-1.528-30.69l.382-.221a33.881,33.881,0,0,1,3.2,9.052,39.491,39.491,0,0,1-1.636,22.013c-6.276,16.881-1.61,24.872-1.562,24.951Z" transform="translate(-386.217 -437.498)" fill="#689b02"/>
      <ellipse id="Ellipse_82" data-name="Ellipse 82" cx="2.867" cy="2.867" rx="2.867" ry="2.867" transform="translate(78.995 92.853)" fill="#91db00"/>
      <ellipse id="Ellipse_83" data-name="Ellipse 83" cx="2.867" cy="2.867" rx="2.867" ry="2.867" transform="translate(88.038 103.439)" fill="#689b02"/>
      <ellipse id="Ellipse_84" data-name="Ellipse 84" cx="2.867" cy="2.867" rx="2.867" ry="2.867" transform="translate(81.863 110.497)" fill="#91db00"/>
      <ellipse id="Ellipse_85" data-name="Ellipse 85" cx="2.867" cy="2.867" rx="2.867" ry="2.867" transform="translate(89.361 116.452)" fill="#91db00"/>
      <ellipse id="Ellipse_86" data-name="Ellipse 86" cx="2.867" cy="2.867" rx="2.867" ry="2.867" transform="translate(79.657 125.715)" fill="#689b02"/>
      <path id="Pfad_268" data-name="Pfad 268" d="M483.1,748.709s-2.867-7.058,5.734-12.351Z" transform="translate(-397.05 -592.999)" fill="#689b02"/>
      <path id="Pfad_269" data-name="Pfad 269" d="M428.432,765.479s-1.3-7.505-11.4-7.442Z" transform="translate(-345.905 -609.897)" fill="#689b02"/>
      <ellipse id="Ellipse_87" data-name="Ellipse 87" cx="17.644" cy="17.644" rx="17.644" ry="17.644" transform="translate(53.468 57.123)" fill="rgba(145,219,0,0.23)"/>
      <ellipse id="Ellipse_89" data-name="Ellipse 89" cx="8.201" cy="8.201" rx="8.201" ry="8.201" transform="translate(62.911 66.566)" fill="#91db00"/>
      <path id="Pfad_270" data-name="Pfad 270" d="M413.2,412.067a1.491,1.491,0,1,0-2.433,1.156l-.549,3.844H413.2l-.549-3.844A1.488,1.488,0,0,0,413.2,412.067Z" transform="translate(-340.599 -339.068)" fill="#fff"/>
      <path id="Pfad_271" data-name="Pfad 271" d="M681.567,135.527s-4.919-4.41-11.534,3.9-16.961,12.382-19.336,15.6c0,0,9.838-4.071,13.23-5.767s3.223-1.357,3.223-1.357-4.58,3.223-5.427,6.445-.17,5.936-1.7,9.159,29.174,2.2,29.174,2.2,3.053-5.258,2.2-10.686S691.065,136.205,681.567,135.527Z" transform="translate(-528.038 -123.771)" fill="#2f2e41"/>
      <path id="Pfad_272" data-name="Pfad 272" d="M724.736,202.56s1.07,7.487-3.515,9.168-2.9,3.973-2.9,3.973l6.876,3.362,7.334-2.292,2.445-3.667s-3.973-.917-2.9-3.667,1.375-3.667,1.375-3.667Z" transform="translate(-580.511 -176.931)" fill="#ffb9b9"/>
      <path id="Pfad_273" data-name="Pfad 273" d="M724.736,202.56s1.07,7.487-3.515,9.168-2.9,3.973-2.9,3.973l6.876,3.362,7.334-2.292,2.445-3.667s-3.973-.917-2.9-3.667,1.375-3.667,1.375-3.667Z" transform="translate(-580.511 -176.931)" opacity="0.1"/>
      <path id="Pfad_274" data-name="Pfad 274" d="M813.631,299.551s-1.07,14.057-.764,14.668,0,21.85,0,21.85,2.139,11.46-.611,12.071-2.139-12.835-2.139-12.835l-2.75-17.725.306-17.572Z" transform="translate(-650.154 -252.531)" fill="#ffb9b9"/>
      <path id="Pfad_275" data-name="Pfad 275" d="M813.631,299.551s-1.07,14.057-.764,14.668,0,21.85,0,21.85,2.139,11.46-.611,12.071-2.139-12.835-2.139-12.835l-2.75-17.725.306-17.572Z" transform="translate(-650.154 -252.531)" opacity="0.1"/>
      <path id="Pfad_276" data-name="Pfad 276" d="M683.384,491.454s-5.042,19.1-4.889,28.42a205.18,205.18,0,0,0,2.139,22.308s.305,5.653-.153,6.265,2.292,3.209,2.292,3.209l2.9-1.681,1.07-1.223v-1.069s-1.681-5.195-.305-9.321,2.139-14.516.764-17.724l9.473-28.115Z" transform="translate(-549.703 -402.109)" fill="#ffb9b9"/>
      <path id="Pfad_277" data-name="Pfad 277" d="M663.927,747.365s-1.834-2.292-3.056-1.528-3.209,5.959-3.209,5.959-6.875,6.57-1.986,6.876,7.029-1.375,7.64-2.6,6.265-4.431,6.265-4.431-.611-5.806-1.528-5.959-2.292,2.292-2.292,2.292Z" transform="translate(-530.55 -600.263)" fill="#2f2e41"/>
      <path id="Pfad_278" data-name="Pfad 278" d="M768.63,480.8v18.947a58.651,58.651,0,0,0,.458,6.876c.458,3.361-2.6,28.42-2.6,28.42l.305,4.431,3.82-.305.459-3.82,5.5-16.808s1.833-10.237.917-14.057,4.737-28.267,4.737-28.267Z" transform="translate(-618.294 -390.229)" fill="#ffb9b9"/>
      <path id="Pfad_279" data-name="Pfad 279" d="M761.186,751.985l1.132-.246s.855-1.893,1.925-1.434a11.526,11.526,0,0,1,2.127,1.274l.471.865a18.259,18.259,0,0,0,2.445,3.82c1.375,1.528,2.9,4.889.611,5.2s-5.348.459-6.265-.306-.306-1.986-1.223-2.292-1.681-1.222-1.528-1.528S761.186,751.985,761.186,751.985Z" transform="translate(-613.905 -603.813)" fill="#2f2e41"/>
      <ellipse id="Ellipse_90" data-name="Ellipse 90" cx="6.791" cy="6.791" rx="6.791" ry="6.791" transform="translate(143.546 17.31)" fill="#ffb9b9"/>
      <path id="Pfad_280" data-name="Pfad 280" d="M718,247.18l2.018-.7s-.8,1.316,3.482,2.08,8.709,1.034,10.7-1.469c0,0,.764-.364,1.834.705s1.681.764,1.681.764l-.764,3.973-1.528,7.334-1.986,5.5-5.653-1.222-6.112-4.431-2.292-5.959v-5.5Z" transform="translate(-580.494 -211.161)" fill="#91db00"/>
      <path id="Pfad_281" data-name="Pfad 281" d="M709.637,251.33l1.528-1.07s5.2.917,5.5,3.362l-3.973,7.64a8.7,8.7,0,0,1-.153,6.57c-1.528,3.514-1.375,4.278-1.375,4.278l-1.07,4.584-19.405,1.528a13.729,13.729,0,0,0-1.069-2.139c-.306-.306-.306-1.375,0-1.375s0-.458-.306-.917-.458-.611,0-1.222-.764-6.112-.764-6.112V260.5l-5.2-6.876s1.834-2.75,2.75-3.056,5.278-1.511,5.278-1.511l.987,1.453,1.375,11.059,1.986,6.723,8.364-1.421,3.249-5.455L709.484,255Z" transform="translate(-553.494 -213.172)" fill="#91db00"/>
      <path id="Pfad_282" data-name="Pfad 282" d="M815.328,265.6l1.222.917s1.069,8.557.764,9.168-5.654,1.222-5.807.917S815.328,265.6,815.328,265.6Z" transform="translate(-653.378 -226.071)" fill="#91db00"/>
      <path id="Pfad_283" data-name="Pfad 283" d="M699.946,244.046l1.528,10.085s-1.375,14.974-1.07,18.03l.306.917s-.611-.306-.764.306a14.3,14.3,0,0,0,0,2.6s-.917.917-1.223,5.959-3.973,17.113-2.6,17.572,9.626,2.75,14.058,2.292,20.322-5.806,20.169-7.181-7.793-20.78-7.793-20.78a20.07,20.07,0,0,1-1.375-2.6c0-.305,1.834-1.528,1.375-2.75s-2.9-14.057-2.9-14.057l1.68-9.168-2.292-.611-1.681,8.862s-6.57,3.209-13.446.306l-1.528-10.39Z" transform="translate(-563.208 -208.791)" fill="#17254a"/>
      <path id="Pfad_284" data-name="Pfad 284" d="M747.864,162.735s11.307,7.793,14.363,4.278-5.348-6.57-5.348-6.57l-7.029-.764Z" transform="translate(-603.775 -143.508)" fill="#2f2e41"/>
      <path id="Pfad_285" data-name="Pfad 285" d="M574.447,511.434a5.961,5.961,0,1,0-1.87-2.321L556.982,522.1l-2.077-2.464-.933.624-1.038-1.232.853-.719-1.038-1.232-1.327,1.118.639.758-1.422,1.2L550,519.39l-2.085,1.757.958,1.137.758-.639,1.038,1.232-.948.8,1.917,2.275-2.275,1.917,2.316,2.749Zm3.894-8.71a3.944,3.944,0,1,1-4.265,3.594A3.943,3.943,0,0,1,578.341,502.724Z" transform="translate(-447.925 -409.309)" fill="#91db00"/>
      <path id="Pfad_286" data-name="Pfad 286" d="M678.406,307.864s1.07,14.057.764,14.669,0,21.85,0,21.85-2.139,11.46.611,12.071,2.139-12.835,2.139-12.835l2.75-17.724-.306-17.572Z" transform="translate(-549.614 -259.01)" fill="#ffb9b9"/>
      <path id="Pfad_287" data-name="Pfad 287" d="M678.273,267.682l-1.223.458s-2.292,9.626-1.681,9.626,7.946.917,7.946.611-1.375-7.793-1.375-7.793Z" transform="translate(-547.188 -227.691)" fill="#91db00"/>
    </g>
  </g>
</svg>
