<?xml version="1.0" encoding="utf-8"?>
<!-- Generator: Adobe Illustrator 22.0.1, SVG Export Plug-In . SVG Version: 6.00 Build 0)  -->
<svg version="1.1" id="Ebene_1" xmlns="http://www.w3.org/2000/svg" xmlns:xlink="http://www.w3.org/1999/xlink" x="0px" y="0px"
	 viewBox="0 0 21 15.8" style="enable-background:new 0 0 21 15.8;" xml:space="preserve">
<style type="text/css">
	.st0{fill:#8F9BB3;}
</style>
<g id="Gruppe_1" transform="translate(-32.604 -251.389)">
	<path id="Pfad_12" class="st0" d="M51.1,254.6H38.9c-0.5,0-0.9-0.4-0.9-0.9c0-0.5,0.4-0.9,0.9-0.9h12.2c0.5,0,0.9,0.4,0.9,0.9
		C52,254.2,51.6,254.6,51.1,254.6z"/>
	<ellipse id="Ellipse_1" class="st0" cx="35.4" cy="253.8" rx="1.2" ry="1.2"/>
	<ellipse id="Ellipse_2" class="st0" cx="35.4" cy="259.3" rx="1.2" ry="1.2"/>
	<ellipse id="Ellipse_3" class="st0" cx="35.4" cy="264.8" rx="1.2" ry="1.2"/>
	<path id="Pfad_10" class="st0" d="M51.1,265.8H38.9c-0.5,0-0.9-0.4-0.9-0.9c0-0.5,0.4-0.9,0.9-0.9h12.2c0.5,0,0.9,0.4,0.9,0.9
		C52,265.4,51.6,265.8,51.1,265.8z"/>
	<path id="Pfad_11" class="st0" d="M51.1,260.2H38.9c-0.5,0-0.9-0.4-0.9-0.9s0.4-0.9,0.9-0.9l0,0h12.2c0.5,0,0.9,0.4,0.9,0.9
		S51.6,260.2,51.1,260.2z"/>
</g>
</svg>
