<?xml version="1.0" encoding="utf-8"?>
<!-- Generator: Adobe Illustrator 22.0.1, SVG Export Plug-In . SVG Version: 6.00 Build 0)  -->
<svg version="1.1" id="Ebene_1" xmlns="http://www.w3.org/2000/svg" xmlns:xlink="http://www.w3.org/1999/xlink" x="0px" y="0px"
	 viewBox="0 0 292 61" style="enable-background:new 0 0 292 61;" xml:space="preserve">
<style type="text/css">
	.st0{enable-background:new    ;}
	.st1{fill:#91DB00;}
	.st2{fill:#FFFFFF;}
</style>
<g class="st0">
	<path class="st1" d="M35.9,26l-9.5,19.1h-4.6L12.4,26v22H4.6V13h10.6l9,19.2l9-19.2h10.5v35h-7.8V26z"/>
	<path class="st1" d="M56.2,58.6c-2.6,0-5.1-1.1-7.5-3.2l3.4-5.6c1.3,1.2,2.6,1.9,3.9,1.9c0.7,0,1.3-0.3,1.8-1
		c0.5-0.7,0.8-1.4,0.8-2.2s-3.5-9.9-10.4-27.4h8l6.5,16.8l6.5-16.8h8L64.8,52.8c-0.7,1.8-1.9,3.3-3.4,4.3
		C59.8,58.1,58.1,58.6,56.2,58.6z"/>
</g>
<g class="st0">
	<path class="st2" d="M105.8,16.2c2.5,2.1,3.7,5.3,3.7,9.6s-1.3,7.5-3.8,9.5c-2.5,2-6.4,3-11.5,3h-4.6V48h-7.8V13h12.4
		C99.5,13,103.4,14.1,105.8,16.2z M100.1,29.9c0.9-1,1.4-2.6,1.4-4.6s-0.6-3.5-1.8-4.3c-1.2-0.9-3.1-1.3-5.7-1.3h-4.4v11.8h5.3
		C97.4,31.5,99.2,31,100.1,29.9z"/>
	<path class="st2" d="M122.4,48h-7.5V10.9h7.5V48z"/>
	<path class="st2" d="M152.3,48h-7v-3.3c-1.9,2.4-4.3,3.7-7.2,3.7c-2.8,0-5.2-0.8-7.2-2.5c-1.9-1.6-2.9-3.8-2.9-6.6s1-4.8,3-6.2
		s4.7-2.1,8.2-2.1h5.6V31c0-2.9-1.5-4.3-4.5-4.3c-1.3,0-2.7,0.3-4.1,0.8c-1.5,0.5-2.7,1.2-3.7,1.9l-3.3-4.8
		c3.5-2.6,7.6-3.8,12.1-3.8c3.3,0,5.9,0.8,8,2.4c2.1,1.6,3.1,4.2,3.1,7.8V48z M144.8,37.8v-1.3h-4.7c-3,0-4.5,0.9-4.5,2.8
		c0,1,0.4,1.7,1.1,2.2c0.7,0.5,1.7,0.8,3.1,0.8c1.3,0,2.5-0.4,3.5-1.2C144.3,40.2,144.8,39.1,144.8,37.8z"/>
	<path class="st2" d="M166.7,33v15h-7.5V21.1h7.5v3c2.3-2.3,4.8-3.4,7.7-3.4c2.8,0,5.2,1,7.1,3c1.9,2,2.9,4.7,2.9,8V48h-7.5V32.8
		c0-4.1-1.5-6.2-4.6-6.2c-1.5,0-2.8,0.5-3.9,1.6C167.2,29.3,166.7,30.9,166.7,33z"/>
	<path class="st2" d="M198.6,33v15h-7.5V21.1h7.5v3c2.3-2.3,4.8-3.4,7.7-3.4c2.8,0,5.2,1,7.1,3c1.9,2,2.9,4.7,2.9,8V48h-7.5V32.8
		c0-4.1-1.5-6.2-4.5-6.2c-1.5,0-2.8,0.5-3.9,1.6C199.2,29.3,198.6,30.9,198.6,33z"/>
	<path class="st2" d="M246.4,44.1c-3,2.9-6.6,4.3-10.7,4.3c-4.1,0-7.5-1.3-10.1-3.8c-2.7-2.5-4-5.9-4-10.1c0-4.2,1.4-7.6,4.1-10.1
		c2.7-2.5,5.9-3.8,9.6-3.8s6.8,1.1,9.4,3.3c2.6,2.2,3.9,5.3,3.9,9.2v4H229c0.2,1.5,1,2.7,2.3,3.6c1.3,0.9,2.8,1.4,4.4,1.4
		c2.6,0,4.8-0.9,6.5-2.7L246.4,44.1z M239.2,28.2c-1-0.9-2.3-1.3-3.8-1.3c-1.5,0-2.8,0.5-4.1,1.4c-1.2,0.9-2,2.1-2.2,3.6H241
		C240.8,30.3,240.2,29,239.2,28.2z"/>
	<path class="st2" d="M268.1,27.7c-2.2,0-3.9,0.8-5,2.4s-1.7,3.7-1.7,6.3V48H254V21.1h7.5v3.6c1-1.1,2.2-2,3.6-2.8
		c1.5-0.8,2.9-1.2,4.4-1.2l0,7H268.1z"/>
</g>
</svg>
