<?xml version="1.0" encoding="utf-8"?>
<!-- Generator: Adobe Illustrator 22.0.1, SVG Export Plug-In . SVG Version: 6.00 Build 0)  -->
<svg version="1.1" id="Ebene_1" xmlns="http://www.w3.org/2000/svg" xmlns:xlink="http://www.w3.org/1999/xlink" x="0px" y="0px"
	 viewBox="0 0 292 61" style="enable-background:new 0 0 292 61;" xml:space="preserve">
<style type="text/css">
	.st0{fill:#91DB00;}
	.st1{fill:#FFFFFF;}
</style>
<path class="st0" d="M34.4,48l-0.1-16l-7.6,12.8h-5.2l-7.6-12.3V48H3.1V13h9.7l11.4,18.7L35.3,13H45l0.1,35H34.4z"/>
<path class="st0" d="M80.9,20.7L69.7,48.5c-1.4,3.6-3.2,6.1-5.4,7.5c-2.1,1.4-4.8,2.2-7.9,2.2c-1.5,0-3.1-0.2-4.6-0.7
	c-1.5-0.5-2.8-1-3.7-1.8l3.8-7.8c0.6,0.4,1.2,0.8,1.9,1c0.7,0.3,1.4,0.4,2.1,0.4c1.2,0,2.2-0.4,2.8-1.1L47.2,20.7h11.6l5.6,14.6
	l5.8-14.6H80.9z"/>
<path class="st1" d="M108.7,14.6c2.4,1.1,4.3,2.6,5.6,4.6c1.3,2,1.9,4.3,1.9,7s-0.6,5-1.9,7c-1.3,2-3.2,3.5-5.6,4.6
	c-2.4,1.1-5.2,1.6-8.4,1.6h-5.1V48H83.4V13h16.9C103.5,13,106.3,13.5,108.7,14.6z M103.1,29.2c0.8-0.7,1.2-1.7,1.2-3s-0.4-2.3-1.2-3
	c-0.8-0.7-2-1.1-3.6-1.1h-4.3v8.2h4.3C101.1,30.3,102.3,29.9,103.1,29.2z"/>
<path class="st1" d="M120.2,10.9h11.3V48h-11.3V10.9z"/>
<path class="st1" d="M159.8,23.4c2.5,2.2,3.8,5.5,3.8,9.9V48h-10.5v-3.6c-1.3,2.7-3.9,4.1-7.8,4.1c-2.2,0-4-0.4-5.5-1.1
	c-1.5-0.8-2.7-1.8-3.4-3c-0.8-1.3-1.2-2.7-1.2-4.3c0-2.7,1-4.8,3.1-6.2c2.1-1.4,5.2-2.1,9.4-2.1h4.6c-0.4-2.1-2.1-3.2-5.2-3.2
	c-1.2,0-2.5,0.2-3.8,0.6c-1.3,0.4-2.3,0.9-3.3,1.6l-3.6-7.5c1.6-1,3.5-1.7,5.7-2.3c2.2-0.5,4.4-0.8,6.6-0.8
	C153.6,20.2,157.3,21.2,159.8,23.4z M150.9,41c0.6-0.4,1.1-1.1,1.4-2v-1.9h-2.8c-2.3,0-3.5,0.8-3.5,2.3c0,0.6,0.2,1.2,0.7,1.6
	c0.5,0.4,1.1,0.6,2,0.6C149.5,41.7,150.3,41.5,150.9,41z"/>
<path class="st1" d="M195.6,23.2c2,2,3.1,5.1,3.1,9.2V48h-11.3V34.3c0-3.1-1.1-4.7-3.4-4.7c-1.3,0-2.3,0.4-3.1,1.3
	c-0.8,0.9-1.2,2.3-1.2,4.2V48h-11.3V20.7h10.8v2.7c1.1-1.1,2.3-1.9,3.7-2.4s2.9-0.8,4.5-0.8C190.9,20.2,193.6,21.2,195.6,23.2z"/>
<path class="st1" d="M230.7,23.2c2,2,3.1,5.1,3.1,9.2V48h-11.3V34.3c0-3.1-1.1-4.7-3.4-4.7c-1.3,0-2.3,0.4-3.1,1.3
	c-0.8,0.9-1.2,2.3-1.2,4.2V48h-11.3V20.7h10.8v2.7c1.1-1.1,2.3-1.9,3.7-2.4s2.9-0.8,4.5-0.8C226,20.2,228.7,21.2,230.7,23.2z"/>
<path class="st1" d="M268.1,37h-19c0.4,1,1.1,1.8,2,2.4c0.9,0.5,2.1,0.8,3.5,0.8c1.2,0,2.2-0.2,3-0.5c0.8-0.3,1.7-0.8,2.7-1.5
	l5.9,5.9c-2.7,2.9-6.6,4.4-11.9,4.4c-3.3,0-6.2-0.6-8.7-1.8c-2.5-1.2-4.4-2.9-5.8-5.1c-1.4-2.2-2.1-4.6-2.1-7.3c0-2.7,0.7-5.2,2-7.3
	c1.3-2.1,3.2-3.8,5.5-5c2.4-1.2,5-1.8,7.9-1.8c2.8,0,5.3,0.5,7.6,1.6c2.3,1.1,4.1,2.7,5.5,4.9s2,4.7,2,7.6
	C268.3,34.5,268.2,35.3,268.1,37z M250.4,28.8c-0.8,0.6-1.3,1.5-1.5,2.7h8.8c-0.2-1.1-0.7-2-1.5-2.7c-0.8-0.7-1.7-1-2.9-1
	C252.2,27.8,251.2,28.2,250.4,28.8z"/>
<path class="st1" d="M291.4,20.2v10c-0.9-0.1-1.7-0.2-2.5-0.2c-3.9,0-5.8,2-5.8,5.9V48h-11.3V20.7h10.8v2.9
	C284.6,21.3,287.5,20.2,291.4,20.2z"/>
</svg>
