<svg xmlns="http://www.w3.org/2000/svg" width="118.421" height="104.817" viewBox="0 0 118.421 104.817">
  <g id="undraw_Booked_j7rj" transform="translate(0 0.922)">
    <path id="Pfad_690" data-name="Pfad 690" d="M456.235,134.605a44.059,44.059,0,0,0-41.276-33.388c-10.4-.292-21.341,3.157-29.307,15.225-14.241,21.573.875,36.481,11.414,43.565a65.944,65.944,0,0,1,13.63,12.251c7.119,8.447,20.813,18.944,37.123,2.5C459.64,162.835,459.465,147.308,456.235,134.605Z" transform="translate(-375.006 68.775) rotate(-21)" fill="#e7f2e1"/>
    <path id="Pfad_691" data-name="Pfad 691" d="M511.576,523.888q5.109-1.331,9.824-2.263l-1.208-4.038c.42-.233,2.239,2.1,2.239,2.1l-1.533-11.68c2.1.468,3.073,12.381,3.073,12.381l2.383-3.969-1.175,4.495a131.14,131.14,0,0,1,24.9-2.076l-1.034-3.456c.42-.233,2.239,2.1,2.239,2.1l-1.533-11.68c2.1.468,3.073,12.381,3.073,12.381l2.383-3.969-1.244,4.761a85.39,85.39,0,0,1,14.286,1.928,32.12,32.12,0,0,0-4.637-10.537,10.229,10.229,0,0,1,4.964,5.965,152.633,152.633,0,0,0-2.987-32.474s5.589,21.025,4.74,35.039l-.108,2.489a38.74,38.74,0,0,1,7.317,2.537Z" transform="translate(-466.221 -435.908)" fill="#91db00"/>
    <path id="Pfad_692" data-name="Pfad 692" d="M686.447,599.839a7.356,7.356,0,0,1-.776-2.91,20.173,20.173,0,0,1,1.491-8.954,18.057,18.057,0,0,0-.716-14.371l.179-.1a15.859,15.859,0,0,1,1.5,4.239,18.493,18.493,0,0,1-.766,10.308c-2.939,7.905-.754,11.647-.732,11.684Z" transform="translate(-619.978 -515.101)" fill="#689b02"/>
    <circle id="Ellipse_20" data-name="Ellipse 20" cx="1.343" cy="1.343" r="1.343" transform="translate(63.975 55.352)" fill="#91db00"/>
    <circle id="Ellipse_21" data-name="Ellipse 21" cx="1.343" cy="1.343" r="1.343" transform="translate(68.21 60.309)" fill="#689b02"/>
    <circle id="Ellipse_22" data-name="Ellipse 22" cx="1.343" cy="1.343" r="1.343" transform="translate(65.318 63.614)" fill="#91db00"/>
    <circle id="Ellipse_23" data-name="Ellipse 23" cx="1.343" cy="1.343" r="1.343" transform="translate(68.83 66.403)" fill="#91db00"/>
    <circle id="Ellipse_24" data-name="Ellipse 24" cx="1.343" cy="1.343" r="1.343" transform="translate(64.285 70.741)" fill="#689b02"/>
    <path id="Pfad_693" data-name="Pfad 693" d="M698.143,756.143s-1.343-3.3,2.685-5.784Z" transform="translate(-630.862 -671.357)" fill="#689b02"/>
    <path id="Pfad_694" data-name="Pfad 694" d="M645.1,773.064s-.611-3.515-5.34-3.484Z" transform="translate(-579.47 -688.337)" fill="#689b02"/>
    <path id="Pfad_695" data-name="Pfad 695" d="M826.855,321.608h0a4.92,4.92,0,0,0-4.645,5.155v3.617h1.113l.644-1.34-.161,1.34h7.151l.586-1.218-.146,1.218h.805v-2.84C832.2,324.264,829.807,321.608,826.855,321.608Z" transform="translate(-740.665 -292.556)" fill="#2f2e41"/>
    <path id="Pfad_696" data-name="Pfad 696" d="M818.78,461.713l-.772,2.958,7.2-.257-.129-2.443S819.68,460.555,818.78,461.713Z" transform="translate(-736.953 -415.936)" fill="#a0616a"/>
    <path id="Pfad_697" data-name="Pfad 697" d="M642.755,485.7l2.315,5.144,2.186-2.7-1.8-3.6Z" transform="translate(-567.872 -428.091)" fill="#a0616a"/>
    <path id="Pfad_698" data-name="Pfad 698" d="M692.426,656.733l.257,5.915h2.829l-.386-5.915Z" transform="translate(-611.756 -580.222)" fill="#a0616a"/>
    <path id="Pfad_699" data-name="Pfad 699" d="M786,507.677l1.286,4.244,1.929,20.575a4.988,4.988,0,0,0,3.086-.129l.257-2.829.514-16.2s2.443-1.286,2.186-3.086-.9-4.244-.9-4.244Z" transform="translate(-708.672 -455.471)" fill="#17254a"/>
    <path id="Pfad_700" data-name="Pfad 700" d="M770.864,766.487h-.772a16.126,16.126,0,0,1-2.958,2.572c-.772.257-4.758,2.443-1.543,2.829a7.422,7.422,0,0,0,5.272-1.286,2.938,2.938,0,0,0,2.443.129c1.415-.514.643-2.057.643-2.057s-.718-2.352-.745-2.333S772.407,767.516,770.864,766.487Z" transform="translate(-689.551 -685.475)" fill="#17254a"/>
    <circle id="Ellipse_25" data-name="Ellipse 25" cx="2.958" cy="2.958" r="2.958" transform="translate(82.341 31.117)" fill="#a0616a"/>
    <path id="Pfad_701" data-name="Pfad 701" d="M841.252,376.379l-1.36,1.134-.183.152-.129,1.543h-5.015s.684-.593,1.319-1.206c.013-.014.027-.03.042-.044.086-.084.163-.161.233-.23l.105-.108.156-.161v0a5.036,5.036,0,0,0,.37-.435h0a1.521,1.521,0,0,0,.086-.127c.386-.643-.514-1.929-.514-1.929l2.829-1.415A3.8,3.8,0,0,0,841,376.225C841.154,376.327,841.252,376.379,841.252,376.379Z" transform="translate(-751.581 -338.447)" fill="#a0616a"/>
    <path id="Pfad_702" data-name="Pfad 702" d="M879.4,419.271c-1.929.514-2.057-3.343-2.057-3.343l-2.633-5.265a12.177,12.177,0,0,1-1.134-3.532l-.605-3.8-.184.22h0l-.331.165L870.45,400.5l-.563-.9v-1.029l1.929-.9h.772l.046-.005c.355-.037,2.664-.192,2.783,2.063.047.885.043,1.618.018,2.193a16.983,16.983,0,0,0,.448,4.734,5.82,5.82,0,0,0,.433,1.3c.514.9,2.315,7.973,2.315,7.973S881.331,418.757,879.4,419.271Z" transform="translate(-782.787 -359.734)" fill="#a0616a"/>
    <path id="Pfad_703" data-name="Pfad 703" d="M780.737,367.823l-.487.889-.288.526-1.411,2.572s-.4.327-1.048.748a10.942,10.942,0,0,1-4.61,1.823c-2.829.257-.129-8.873-.129-8.873s.9-3.6,2.186-3.215.257,1.672-.643,4.115a9.366,9.366,0,0,0-.129,5.144,36.107,36.107,0,0,0,4.115-2.958,2.907,2.907,0,0,1,1.805-.871h0a1.638,1.638,0,0,1,.431.033A.971.971,0,0,1,780.737,367.823Z" transform="translate(-695.952 -328.475)" fill="#a0616a"/>
    <path id="Pfad_704" data-name="Pfad 704" d="M849.685,403.353a3.259,3.259,0,0,1-.527.6A6.207,6.207,0,0,0,849.685,403.353Z" transform="translate(-764.473 -364.777)" fill="#d0cde1"/>
    <path id="Pfad_705" data-name="Pfad 705" d="M829.035,402.385l-.12.157-1.874,3.251a25.939,25.939,0,0,0-4.244-1.157,2.522,2.522,0,0,0-2.571,1.153l.513-2.054-.276-.923c-.032-.108-.069-.228-.109-.363-.386-1.286,1.029-2.7,1.029-2.7l1.677-1.771h0a1.637,1.637,0,0,1,.431.033c-.069.069-.147.147-.233.23-.016.014-.03.03-.042.044-.493.5-.237.643-.006.68a1.135,1.135,0,0,0,.23.012,6.758,6.758,0,0,0,2.572-.787c.586-.267,1.029-.5,1.029-.5l1.123-1.029.168-.154c.154.1.252.154.252.154h.129l.046-.005-.586.435a2.177,2.177,0,0,0-.875,1.885h0Z" transform="translate(-738.913 -358.73)" fill="#91db00"/>
    <path id="Pfad_706" data-name="Pfad 706" d="M730.6,468.851l-1.88.734s-10.208-3.949-11.751-.734,5.4,10.931,5.4,10.931l3.086-1.415-1.286-3.858s7.458,6.3,10.545,2.829,1.029-8.381,1.029-8.381S733.816,467.437,730.6,468.851Z" transform="translate(-647.488 -421.531)" fill="#17254a"/>
    <path id="Pfad_707" data-name="Pfad 707" d="M780.533,582.468l-1.157.9s1.029,4.115.643,4.758-1.157,2.443.257,2.315,2.958-2.315,3.086-3.086a28.019,28.019,0,0,1,1.029-3.086s1.543-3.6.386-3.729-3-.215-3-.215Z" transform="translate(-702.821 -521.131)" fill="#17254a"/>
    <path id="Pfad_708" data-name="Pfad 708" d="M834,326.359a2.436,2.436,0,0,0-1.922-.981h-.091a3.384,3.384,0,0,0-3.184,3.554h.589l.1-.724.14.724h3.495l.293-.613-.073.613h.688a5.755,5.755,0,0,1-1.383,4.78h1.171l.585-1.226-.146,1.226h2.232l.439-2.819A4.764,4.764,0,0,0,834,326.359Z" transform="translate(-746.493 -295.886)" fill="#2f2e41"/>
    <path id="Pfad_709" data-name="Pfad 709" d="M356.25,77.74v-5.5h-1.941v5.5H325.725v-5.5h-1.942v5.5H311.919v29.986h56.2V77.74Zm-31.5,7.011a3.02,3.02,0,0,1-.971-5.88v4.37h1.942v-4.37a3.02,3.02,0,0,1-.971,5.88Zm30.525,0a3.02,3.02,0,0,1-.971-5.88v4.37h1.941v-4.37a3.02,3.02,0,0,1-.971,5.88Z" transform="translate(-303.825 -64.239)" fill="#17254a"/>
    <rect id="Rechteck_30" data-name="Rechteck 30" width="9.708" height="7.335" transform="translate(10.791 23.586)" fill="#f0f4fa"/>
    <rect id="Rechteck_31" data-name="Rechteck 31" width="9.708" height="7.335" transform="translate(24.49 23.586)" fill="#f0f4fa"/>
    <rect id="Rechteck_32" data-name="Rechteck 32" width="9.708" height="7.335" transform="translate(38.188 23.586)" fill="#f0f4fa"/>
    <rect id="Rechteck_33" data-name="Rechteck 33" width="9.708" height="7.335" transform="translate(51.886 23.586)" fill="#f0f4fa"/>
    <rect id="Rechteck_34" data-name="Rechteck 34" width="9.708" height="7.335" transform="translate(10.791 33.078)" fill="#f0f4fa"/>
    <rect id="Rechteck_35" data-name="Rechteck 35" width="9.708" height="7.335" transform="translate(24.49 33.078)" fill="#f0f4fa"/>
    <rect id="Rechteck_36" data-name="Rechteck 36" width="9.708" height="7.335" transform="translate(38.188 33.078)" fill="#f0f4fa"/>
    <rect id="Rechteck_37" data-name="Rechteck 37" width="9.708" height="7.335" transform="translate(51.886 33.078)" fill="#f0f4fa"/>
    <path id="Pfad_710" data-name="Pfad 710" d="M466.23,98.193,463.2,94l.827-.6,2.323,3.207,8.888-9.131.731.712Z" transform="translate(-423.232 -69.289)" fill="#91db00" stroke="#91db00" stroke-width="1"/>
    <path id="Pfad_711" data-name="Pfad 711" d="M346.8,185.221l-3.034-4.19.826-.6,2.323,3.207,8.888-9.131.731.712Z" transform="translate(-317.715 -146.178)" fill="#91db00" stroke="#91db00" stroke-width="1"/>
    <path id="Pfad_713" data-name="Pfad 713" d="M217.445,603.263l-2.223-.877L213,601.509l1.871-1.486,1.871-1.486.352,2.364Z" transform="translate(-188.185 -528.805)" fill="#e7f2e1"/>
    <path id="Pfad_714" data-name="Pfad 714" d="M4.445,348.263l-2.223-.877L0,346.509l1.871-1.486,1.871-1.486.352,2.363Z" transform="translate(0 -303.513)" fill="#e7f2e1"/>
    <path id="Pfad_715" data-name="Pfad 715" d="M109.263,435.949l-2.1,1.141-2.1,1.142.061-2.389.061-2.389,2.038,1.247Z" transform="translate(-92.825 -382.955)" fill="#e7f2e1"/>
    <path id="Pfad_716" data-name="Pfad 716" d="M316.263,539.949l-2.1,1.141-2.1,1.142.061-2.389.061-2.389,2.038,1.247Z" transform="translate(-275.709 -474.839)" fill="#e7f2e1"/>
  </g>
</svg>
