<svg id="lock" xmlns="http://www.w3.org/2000/svg" width="17.622" height="23.496" viewBox="0 0 17.622 23.496">
  <g id="Gruppe_99" data-name="Gruppe 99" transform="translate(0)">
    <path id="Pfad_30" data-name="Pfad 30" d="M81.132,8.811H79.664V6.853a6.853,6.853,0,1,0-13.706,0V8.811H64.49A.489.489,0,0,0,64,9.3V21.538A1.96,1.96,0,0,0,65.958,23.5H79.664a1.96,1.96,0,0,0,1.958-1.958V9.3A.489.489,0,0,0,81.132,8.811ZM74.276,19.036a.49.49,0,0,1-.487.544H71.832a.49.49,0,0,1-.487-.544l.309-2.777a1.937,1.937,0,0,1-.8-1.575,1.958,1.958,0,1,1,3.916,0,1.937,1.937,0,0,1-.8,1.575Zm2.45-10.225H68.895V6.853a3.916,3.916,0,1,1,7.832,0Z" transform="translate(-64)" fill="#17254a"/>
  </g>
</svg>
