<svg xmlns="http://www.w3.org/2000/svg" xmlns:xlink="http://www.w3.org/1999/xlink" width="356.818" height="292.971" viewBox="0 0 356.818 292.971">
  <defs>
    <linearGradient id="linear-gradient" y1="0.5" x2="1" y2="0.5" gradientUnits="objectBoundingBox">
      <stop offset="0" stop-color="gray" stop-opacity="0.251"/>
      <stop offset="0.54" stop-color="gray" stop-opacity="0.122"/>
      <stop offset="1" stop-color="gray" stop-opacity="0.102"/>
    </linearGradient>
  </defs>
  <g id="Gruppe_321" data-name="Gruppe 321" transform="translate(-1657.643 -768.871)">
    <g id="Gruppe_318" data-name="Gruppe 318" transform="translate(1657.643 768.871)">
      <path id="Pfad_284" data-name="Pfad 284" d="M302.54,69.552c-22.875-.8-44.661-8.179-65.465-16.258s-41.41-17.032-63.737-21.313c-14.361-2.753-30.785-3.142-42.353,4.556-11.137,7.422-14.735,20.2-16.668,32.068-1.456,8.928-2.312,18.326,1.675,26.682,2.771,5.8,7.684,10.681,11.084,16.241,11.83,19.341,3.467,43.191-9.349,62.076-6.009,8.861-12.989,17.319-17.63,26.742s-6.786,20.235-2.725,29.855c4.022,9.543,13.611,16.7,24,21.733,21.1,10.232,45.948,13.159,70.2,14.816,53.664,3.672,107.61,2.082,161.415.491,19.913-.59,39.911-1.188,59.5-4.266,10.879-1.711,22.108-4.422,30.007-10.974,10.024-8.317,12.508-22.4,5.789-32.828-11.268-17.492-42.413-21.836-50.3-40.607-4.333-10.335.117-21.843,6.418-31.428,13.516-20.556,36.168-38.593,37.359-62.09.82-16.138-10.07-32.3-26.908-39.939-17.647-8-42.124-7-55.137,6.252C346.3,65,322.74,70.252,302.54,69.552Z" transform="translate(-95.226 -30.178)" fill="#e7f2e1"/>
      <ellipse id="Ellipse_102" data-name="Ellipse 102" cx="107.437" cy="14.534" rx="107.437" ry="14.534" transform="translate(63.452 261.504)" fill="#e7f2e1"/>
      <path id="Pfad_285" data-name="Pfad 285" d="M428.24,688.539s7.422-1.187,11.876,4.057c0,0-3.266,2.573-10.292-.99Z" transform="translate(-310.538 -455.771)" fill="#91db00"/>
      <path id="Pfad_286" data-name="Pfad 286" d="M420.412,688.42s-4.736,5.86-2.414,12.317c0,0,3.86-1.545,4.28-9.412Z" transform="translate(-303.502 -455.768)" fill="#91db00"/>
      <path id="Pfad_287" data-name="Pfad 287" d="M414,657.865s2.969-5.443,14.845,2.177c0,0-1.583,3.661-6.828,3.364S415.368,660.735,414,657.865Z" transform="translate(-301.331 -434.795)" fill="#91db00"/>
      <path id="Pfad_288" data-name="Pfad 288" d="M399.428,660.189s-6.161-.707-6.758,13.4c0,0,3.906.813,6.68-3.651S400.976,662.974,399.428,660.189Z" transform="translate(-287.54 -437.512)" fill="#91db00"/>
      <path id="Pfad_289" data-name="Pfad 289" d="M401.63,618.82s3.464-9.6,16.036-2.774c0,0-2.87,8.811-14.749,6.04Z" transform="translate(-293.333 -407.388)" fill="#91db00"/>
      <path id="Pfad_290" data-name="Pfad 290" d="M390.71,579.487s6.531-9.7,18.114-.707c0,0-4.058,9.1-17.124,4.157Z" transform="translate(-286.273 -382.41)" fill="#91db00"/>
      <path id="Pfad_291" data-name="Pfad 291" d="M386.79,541.889s7.62-8.907,19.086,0c0,0-7.228,7.819-19.086,2.276Z" transform="translate(-283.738 -358.468)" fill="#91db00"/>
      <path id="Pfad_292" data-name="Pfad 292" d="M383.43,503.768s7.719-9.306,18.708-.495c0,0-8.712,8.214-18.708,2.672Z" transform="translate(-281.566 -333.609)" fill="#91db00"/>
      <path id="Pfad_293" data-name="Pfad 293" d="M385.39,466.059s8.129-11.975,18.411-3.86c0,0-8.713,10.3-18.411,6.136Z" transform="translate(-282.833 -307.68)" fill="#91db00"/>
      <path id="Pfad_294" data-name="Pfad 294" d="M390.71,428.007s8.61-11.876,18.609-2.771c0,0-10.2,10.292-18.609,4.948Z" transform="translate(-286.273 -283.384)" fill="#91db00"/>
      <path id="Pfad_295" data-name="Pfad 295" d="M398.025,390.374s10.19-11.158,19.086-6.716c0,0-10.624,11.851-19.531,9.674Z" transform="translate(-290.715 -258.047)" fill="#91db00"/>
      <path id="Pfad_296" data-name="Pfad 296" d="M407.391,353.239s11.78-13.661,18.609-9.108c0,0-8.667,10.6-19.439,11.681Z" transform="translate(-296.521 -232.565)" fill="#91db00"/>
      <path id="Pfad_297" data-name="Pfad 297" d="M420.932,317.182s10.3-11.162,17.821-8.391c0,0-8.808,11.582-19.2,11.879Z" transform="translate(-304.92 -210.031)" fill="#91db00"/>
      <path id="Pfad_298" data-name="Pfad 298" d="M435.735,281.042s11.381-10.688,16.329-8.808c0,0-8.214,11.876-16.824,11.183Z" transform="translate(-315.064 -186.537)" fill="#91db00"/>
      <path id="Pfad_299" data-name="Pfad 299" d="M449.52,242.877s9.8-12.766,15.142-11.777c0,0-5.938,11.381-15.142,13.077Z" transform="translate(-324.297 -160.05)" fill="#3cce69"/>
      <path id="Pfad_300" data-name="Pfad 300" d="M462.843,202.136s8.663-9.79,13.339-9.766c0,0-6.836,13.077-13.693,12.957Z" transform="translate(-332.683 -135.044)" fill="#91db00"/>
      <path id="Pfad_301" data-name="Pfad 301" d="M469.827,153.017l8.363-20.387s.42,18.429-9.43,24.169Z" transform="translate(-336.736 -96.419)" fill="#91db00"/>
      <path id="Pfad_302" data-name="Pfad 302" d="M481.277,93.027s1.385-17.022.495-18.407c0,0,5.984,14.138-.551,25.929Z" transform="translate(-344.793 -58.912)" fill="#91db00"/>
      <path id="Pfad_303" data-name="Pfad 303" d="M374.58,625.741s-8.677-5.376-14.29,7.776c0,0,7.719,5.125,15.308-4.422Z" transform="translate(-266.605 -414.539)" fill="#91db00"/>
      <path id="Pfad_304" data-name="Pfad 304" d="M361.023,584.7s-10.639-4.853-15.8,8.878c0,0,8.221,5.655,16.771-5.408Z" transform="translate(-256.861 -388.167)" fill="#91db00"/>
      <path id="Pfad_305" data-name="Pfad 305" d="M350.476,544.2s-7.62-8.907-19.086,0c0,0,7.224,7.818,19.086,2.276Z" transform="translate(-247.919 -359.961)" fill="#91db00"/>
      <path id="Pfad_306" data-name="Pfad 306" d="M348.478,503.768s-7.723-9.306-18.708-.495c0,0,8.709,8.214,18.708,2.672Z" transform="translate(-246.872 -333.609)" fill="#91db00"/>
      <path id="Pfad_307" data-name="Pfad 307" d="M353.955,462.619s-5.415-13.413-17.185-7.645c0,0,6.362,11.9,16.707,9.872Z" transform="translate(-251.398 -303.901)" fill="#91db00"/>
      <path id="Pfad_308" data-name="Pfad 308" d="M360.959,422.718s-5.379-13.647-17.319-7.32c0,0,7.309,12.508,16.789,9.43Z" transform="translate(-255.839 -278.162)" fill="#91db00"/>
      <path id="Pfad_309" data-name="Pfad 309" d="M380.13,374.944s-2.121-14.965-12-16.3c0,0,2.1,15.778,10.681,19Z" transform="translate(-271.673 -242.547)" fill="#91db00"/>
      <path id="Pfad_310" data-name="Pfad 310" d="M393.143,337.551s-.83-18.026-9.013-18.651c0,0,.276,13.678,8.09,21.207Z" transform="translate(-282.018 -216.853)" fill="#91db00"/>
      <path id="Pfad_311" data-name="Pfad 311" d="M407.12,301.11s-2.442-14.986-10.25-16.82c0,0,.969,14.516,9.476,20.5Z" transform="translate(-290.255 -194.475)" fill="#91db00"/>
      <path id="Pfad_312" data-name="Pfad 312" d="M429.134,265.109s-.085-15.615-4.856-17.909c0,0-2.958,14.138,3.474,19.9Z" transform="translate(-307.537 -170.495)" fill="#91db00"/>
      <path id="Pfad_313" data-name="Pfad 313" d="M439.93,230.437s-.671-16.082-5.609-18.347c0,0-1.693,12.724,4.867,19.4Z" transform="translate(-314.343 -147.794)" fill="#91db00"/>
      <path id="Pfad_314" data-name="Pfad 314" d="M456.833,194.065s-.032-13.077-3.559-16.145c0,0-3.506,14.329,1.718,18.775Z" transform="translate(-325.979 -125.702)" fill="#91db00"/>
      <path id="Pfad_315" data-name="Pfad 315" d="M461.926,148.669,458.5,126.9s-4.666,17.838,3.591,25.7Z" transform="translate(-329.252 -92.714)" fill="#91db00"/>
      <path id="Pfad_316" data-name="Pfad 316" d="M456.712,97.538S447.9,82.909,448.085,81.28c0,0,.933,15.34,12.017,22.974Z" transform="translate(-323.367 -63.218)" fill="#91db00"/>
      <path id="Pfad_317" data-name="Pfad 317" d="M453.334,73.959S445.021,53.172,441.26,51.49c0,0,11.876,6.037,12.766,21.875Z" transform="translate(-318.956 -43.957)" fill="#91db00"/>
      <path id="Pfad_318" data-name="Pfad 318" d="M461.319,153.024l-.569-.173c7.016-22.878,8.769-37.465,4.93-41.12l.41-.431C470.155,115.156,468.508,129.573,461.319,153.024Z" transform="translate(-331.558 -82.628)" fill="#689b02"/>
      <path id="Pfad_319" data-name="Pfad 319" d="M406.168,279.827l-.838-.3c.742-2.1,1.545-4.224,2.386-6.323,7.323-18.252,13.558-35.228,17.556-48.263l.732-.354c-4,13.06-10.126,30.69-17.46,48.963C407.705,275.631,406.906,277.752,406.168,279.827Z" transform="translate(-295.725 -155.876)" fill="#689b02"/>
      <path id="Pfad_320" data-name="Pfad 320" d="M408.151,503.225c-.113-.127-11.487-12.929-19.411-34.793a128.808,128.808,0,0,1-7.67-39.855c-.544-17.011,3.025-36.005,9.14-53.257l.664.778c-13.724,38.723-8.271,71.908-1.039,91.9,7.846,21.663,19.086,34.33,19.2,34.454Z" transform="translate(-280.005 -253.331)" fill="#689b02"/>
      <rect id="Rechteck_304" data-name="Rechteck 304" width="3.132" height="25.809" rx="1.566" transform="translate(227.196 102.436)" fill="#17254a"/>
      <rect id="Rechteck_308" data-name="Rechteck 308" width="104.761" height="212.912" rx="38.99" transform="translate(124.124 54.138)" fill="#17254a"/>
      <path id="Pfad_321" data-name="Pfad 321" d="M548.232,199H536.215v1.446a6.85,6.85,0,0,1-6.854,6.85H491.144a6.85,6.85,0,0,1-6.853-6.85V199H473.04a8.32,8.32,0,0,0-8.32,8.32V392.515a8.32,8.32,0,0,0,8.32,8.32h75.192a8.32,8.32,0,0,0,8.32-8.32V207.334a8.32,8.32,0,0,0-8.32-8.334Z" transform="translate(-334.125 -139.331)" fill="#91db00"/>
      <rect id="Rechteck_309" data-name="Rechteck 309" width="14.629" height="2.969" rx="1.484" transform="translate(166.4 60.496)" fill="#e6e8ec"/>
      <circle id="Ellipse_103" data-name="Ellipse 103" cx="1.686" cy="1.686" r="1.686" transform="translate(183.241 60.295)" fill="#e6e8ec"/>
      <path id="Pfad_322" data-name="Pfad 322" d="M796.879,156.859s-29.76-1.8-26.254,19.058a5.067,5.067,0,0,0,2.644,5.358s.053-1.544,3.054-1.018a13.959,13.959,0,0,0,3.234.156,6.738,6.738,0,0,0,3.952-1.615h0s8.366-3.457,11.617-17.128c0,0,2.407-2.983,2.312-3.75l-5.023,2.145s1.718,3.623.354,6.634c0,0-.163-6.5-1.128-6.362-.194.028-2.608,1.255-2.608,1.255s2.951,6.309.724,10.9c0,0,.845-7.776-1.647-10.441l-3.534,2.064s3.449,6.518,1.11,11.837c0,0,.6-8.158-1.856-11.335l-3.2,2.5s3.241,6.422,1.265,10.833c0,0-.258-9.493-1.958-10.211,0,0-2.8,2.474-3.231,3.485,0,0,2.22,4.665.841,7.126,0,0-.844-6.327-1.537-6.362,0,0-2.792,4.192-3.082,7.069a15.23,15.23,0,0,1,2.407-7.465,8.413,8.413,0,0,0-4.276,2.213s.435-2.962,4.965-3.223c0,0,2.308-3.181,2.923-3.372,0,0-4.5-.378-7.235.834,0,0,2.4-2.8,8.062-1.523l3.163-2.584s-5.931-.809-8.447.085c0,0,2.895-2.474,9.3-.672l3.443-2.057s-5.058-1.089-8.069-.707c0,0,3.181-1.714,9.08.145l2.474-1.106s-3.7-.728-4.789-.845-1.142-.414-1.142-.414a12.847,12.847,0,0,1,6.959.774S796.967,157.188,796.879,156.859Z" transform="translate(-531.723 -112.059)" fill="#91db00"/>
      <path id="Pfad_323" data-name="Pfad 323" d="M737.128,130.658s-13.431-.809-11.861,8.614a2.3,2.3,0,0,0,1.194,2.421s.025-.707,1.382-.463a6.19,6.19,0,0,0,1.46.071,3.027,3.027,0,0,0,1.785-.735h0s3.781-1.562,5.252-7.74c0,0,1.085-1.347,1.043-1.693l-2.269.968a4.078,4.078,0,0,1,.166,3s-.075-2.937-.509-2.87c-.088,0-1.181.569-1.181.569s1.336,2.852.329,4.923c0,0,.382-3.513-.746-4.718l-1.6.947s1.559,2.944.5,5.348c0,0,.272-3.686-.838-5.121l-1.445,1.131s1.463,2.9.572,4.9c0,0-.12-4.291-.887-4.616a8.875,8.875,0,0,0-1.46,1.576s1,2.121.382,3.22c0,0-.382-2.859-.707-2.873a9.515,9.515,0,0,0-1.393,3.181,6.9,6.9,0,0,1,1.089-3.372,3.8,3.8,0,0,0-1.934,1s.2-1.34,2.245-1.456a9.662,9.662,0,0,1,1.322-1.527,8.288,8.288,0,0,0-3.269.378s1.085-1.262,3.64-.689l1.414-1.166a12.2,12.2,0,0,0-3.817.039s1.308-1.117,4.2-.3l1.555-.93a14.165,14.165,0,0,0-3.648-.315s1.439-.774,4.1.064l1.113-.5s-1.675-.329-2.167-.382-.516-.187-.516-.187a5.793,5.793,0,0,1,3.146.353A14.379,14.379,0,0,0,737.128,130.658Z" transform="translate(-502.5 -95.133)" fill="#91db00"/>
      <rect id="Rechteck_310" data-name="Rechteck 310" width="73.145" height="155.247" transform="translate(139.934 79.943)" fill="#689b02"/>
      <path id="Pfad_324" data-name="Pfad 324" d="M562.082,574.41s-1.725-4.015-2.5-5.867a1.688,1.688,0,0,0-1.732-1.212l.032-.353.138-1.672.028-.353c1.333-.279,2.474-.5,2.474-.5l-.831-42.88a13.813,13.813,0,0,1-1.209-3.181c-.424-1.361-2.474-3.033-4.39-4.365-.3-.208-.594-.406-.884-.6a22.08,22.08,0,0,1,2.2-1.619c1.089-.633,1.449-4.241,1.449-4.241l-.18.354c.18-.354,0-9.568,0-9.568l-.636-9.564s-.452-11.37-3.987-14.35a21.615,21.615,0,0,0-8-4.022l-2.474-.636h0l-4.56-1.17a5.837,5.837,0,0,1-.354-.657c-.046-.088-.088-.18-.131-.272a10.674,10.674,0,0,0,4.506-8.712,10.489,10.489,0,0,0-.138-1.711,1.721,1.721,0,0,0-.06-.322,8.918,8.918,0,0,0,1.06-.852A4.815,4.815,0,0,0,543.2,454.5h0a2.673,2.673,0,0,0,.12-.371.209.209,0,0,1,.021-.11,1.42,1.42,0,0,0,.042-.283v-.495a2.439,2.439,0,0,0-.035-.353.046.046,0,0,0,0-.021h0a6.081,6.081,0,0,0-.318-1.2,14.383,14.383,0,0,1-.979-2.739c-.2-1.149.032-2.4-.516-3.436a3.064,3.064,0,0,0-2.152-1.481,5.073,5.073,0,0,0-2.658.3,3.776,3.776,0,0,1-1.311.353,2.738,2.738,0,0,1-.958-.233,14.216,14.216,0,0,1-2.969-1.594,14.2,14.2,0,0,0-2.121-1.385,2.869,2.869,0,0,0-2.446-.1c-1.308.664-1.555,2.516-2.771,3.333a5.494,5.494,0,0,1-2.941.544,3.048,3.048,0,0,0-2.654,1.163,3.356,3.356,0,0,0-.2,2.043l.021.24a1.058,1.058,0,0,0,.021.258,6.492,6.492,0,0,1-.4,2.672c-.488,1.294-1.414,2.57-1.382,3.888h0a2.7,2.7,0,0,0,.081.622,3.008,3.008,0,0,0,.1.3h0a13.153,13.153,0,0,0,.654,1.276l.032.056c.025.05.049.1.071.148s.064.134.089.2.028.067.039.1.046.131.064.2a1.892,1.892,0,0,1,.074.615,5.73,5.73,0,0,0-.067.809.594.594,0,0,0,.474.576.787.787,0,0,0,.41-.127,6.553,6.553,0,0,0,.9-.618,2.048,2.048,0,0,0,.021.353,10.694,10.694,0,0,0,3.213,6.655,1.8,1.8,0,0,1-.025.354,2.814,2.814,0,0,0-.025.385h0l-3.959,1.244s.021.071.064.191l-.417.166h0a29.763,29.763,0,0,0-5.62,2.8c-.565.41-1.081.746-1.545,1.025a8.835,8.835,0,0,0-3.662,4.436l-.053.134c-.354.809-2.085,6.316-2.085,6.316a22.926,22.926,0,0,0-1.453,5.054s-2.085,6.585-1.541,10.918c0,0-1.633,6.228-1,7.217,0,0-.651,2.679,2.205,5.376-.208.127-.435.265-.671.417-2.213,1.392-5.4,3.651-5.948,5.394a13.652,13.652,0,0,1-1.209,3.181l-.855,42.813s1.142.219,2.474.495l.028.353.138,1.668.032.354a1.709,1.709,0,0,0-1.732,1.216c-.774,1.849-2.474,5.86-2.474,5.86s-3.807,3.534-1.5,6.814a2.357,2.357,0,0,0,.354.41c1.658,1.506,5.192.541,7.705-.442a7.512,7.512,0,0,0,3.181-2.566,1.209,1.209,0,0,1,.848-.47,3.463,3.463,0,0,0,1.58-.689,2.121,2.121,0,0,0,.87-1.767.286.286,0,0,1,0-.053l-.223-5.03s-.272-3.513-1.138-3.287l-.223.053-.06-.354h0l-.117-.682-.06-.353h.481a21.049,21.049,0,0,1,1.573-7.1c1.453-3.125,2.407-28.364,2.407-28.364s17.98.293,18.581-1.393h0c.353,0,.739,0,1.106-.025.6,1.686,17.573,1.767,17.573,1.767s.965,25.268,2.414,28.4a14.412,14.412,0,0,1,.76,2.071h0a23.117,23.117,0,0,1,.817,5.023h.481l-.064.353-.117.679-.06.354-.23-.053c-.859-.223-1.131,3.291-1.131,3.291l-.23,5.061a2.053,2.053,0,0,0,.841,1.767,3.536,3.536,0,0,0,1.608.707,1.18,1.18,0,0,1,.848.466,7.535,7.535,0,0,0,3.181,2.566c2.714,1.06,6.616,2.1,8.066.035C565.889,577.93,562.082,574.41,562.082,574.41Zm-45.7-63.033Zm28.4-14.449a7.656,7.656,0,0,0,1.269,2.616c.813.9.41,6.5.41,6.5a5.023,5.023,0,0,0-.947.152C544.887,502.473,544.311,498.341,544.781,496.927Z" transform="translate(-351.244 -295.88)" fill="url(#linear-gradient)"/>
      <path id="Pfad_325" data-name="Pfad 325" d="M422.988,758l-7.108.707-.2-2.379-.138-1.636-.194-2.393,6.716.354.534,3.072.113.668h0Z" transform="translate(-268.545 -486.403)" fill="#8e6f7f"/>
      <path id="Pfad_326" data-name="Pfad 326" d="M569.431,753.31l-.194,2.389-.135,1.637-.2,2.379-7.111-.707.283-1.608.11-.664.534-3.072Z" transform="translate(-363.227 -487.056)" fill="#8e6f7f"/>
      <path id="Pfad_327" data-name="Pfad 327" d="M576.453,656.844l-21.136.993q-1.442.071-2.884,0l-20.192-.99v-16h44.213Z" transform="translate(-377.78 -425.011)" fill="#5f5570"/>
      <path id="Pfad_328" data-name="Pfad 328" d="M576.453,656.844l-21.136.993q-1.442.071-2.884,0l-20.192-.99v-16h44.213Z" transform="translate(-377.78 -425.011)" opacity="0.1"/>
      <path id="Pfad_329" data-name="Pfad 329" d="M547.351,518.91s-7.041,2.364-9.691,4.308c-.551.4-1.06.735-1.506,1.008a8.623,8.623,0,0,0-3.559,4.34c-.018.049-.036.092-.053.131-.354.8-2.032,6.185-2.032,6.185a22.422,22.422,0,0,0-1.414,4.948c-.177,1.944,10.073,7.157,10.073,7.157s-4.948,10.78-2.739,13.519,34.461,4.065,33.754,0-1.944-10.78-1.326-12.636l10.957-7.952s-.442-11.134-3.888-14.049a21.484,21.484,0,0,0-7.776-3.977l-6.86-1.767s-2.418,6.009-5.068,6.8S547.765,524.053,547.351,518.91Z" transform="translate(-375.745 -346.17)" fill="#f0f4fa"/>
      <path id="Pfad_330" data-name="Pfad 330" d="M593.847,547.54s-2.99,2.5-4.56,0c0,0-1.413,4.22,0,5.634l-.053.286-.251,1.258-3.273,27.215,2.693,4.648,4.9-6.15-.4-25.448-.177-1.46-.042-.353h.838S595.752,549.329,593.847,547.54Z" transform="translate(-412.351 -364.681)" opacity="0.1"/>
      <path id="Pfad_331" data-name="Pfad 331" d="M595.846,547.54s-2.99,2.5-4.559,0c0,0-1.414,4.22,0,5.634l-.053.286-.251,1.258-3.273,27.215,2.694,4.648,4.9-6.15-.4-25.448-.177-1.46-.042-.353h.838S597.751,549.329,595.846,547.54Z" transform="translate(-413.644 -364.681)" opacity="0.1"/>
      <path id="Pfad_332" data-name="Pfad 332" d="M499.063,557.466l-4.9,6.14-2.7-4.623,3.276-27.23.251-1.258.057-.29.442-1.145,2.962,1.145.042.354.177,1.46Z" transform="translate(-317.755 -342.066)" fill="#8f9bb3"/>
      <path id="Pfad_333" data-name="Pfad 333" d="M517.829,785.9a24.013,24.013,0,0,1-4.542-.463c-.739-.184-1.665-.389-2.509-.57l-.2-2.393,6.715.353Z" transform="translate(-363.776 -516.577)" opacity="0.1"/>
      <path id="Pfad_334" data-name="Pfad 334" d="M536.135,657.836c-.586,1.651-18.11,1.361-18.11,1.361s-.94,24.741-2.354,27.805a20.786,20.786,0,0,0-1.534,6.949,26.122,26.122,0,0,1-4.948-.47c-1.887-.47-4.948-1.06-4.948-1.06l.827-41.971a12.862,12.862,0,0,0,1.177-3.1c.53-1.707,3.641-3.92,5.793-5.3,1.2-.756,2.1-1.251,2.1-1.251l10.455.424,6.454.262S536.725,656.186,536.135,657.836Z" transform="translate(-359.676 -424.979)" fill="#17254a"/>
      <path id="Pfad_335" data-name="Pfad 335" d="M518.823,795.542l-7.111.706-.2-2.378a2.123,2.123,0,0,1,.774.169c1.3.933,5,.191,6.259-.106h0Z" transform="translate(-364.377 -523.947)" opacity="0.1"/>
      <path id="Pfad_336" data-name="Pfad 336" d="M508.721,803.039a2.076,2.076,0,0,1-.852,1.729,3.376,3.376,0,0,1-1.537.675,1.149,1.149,0,0,0-.824.459,7.377,7.377,0,0,1-3.11,2.513c-2.449.961-5.9,1.9-7.511.431a2.218,2.218,0,0,1-.354-.4c-2.251-3.223,1.46-6.673,1.46-6.673s1.675-3.93,2.428-5.74a1.767,1.767,0,0,1,2.428-1.018c1.414,1.018,5.7.042,6.539-.174s1.106,3.22,1.106,3.22l.226,4.923A.24.24,0,0,0,508.721,803.039Z" transform="translate(-352.932 -524.57)" fill="#17254a"/>
      <path id="Pfad_337" data-name="Pfad 337" d="M665.389,783.48l-.2,2.389c-.845.181-1.767.386-2.513.569a24.089,24.089,0,0,1-4.538.467l.534-3.071Z" transform="translate(-459.181 -517.229)" opacity="0.1"/>
      <path id="Pfad_338" data-name="Pfad 338" d="M628.4,693.453s-3.061.59-4.948,1.06a26.116,26.116,0,0,1-4.948.47,20.721,20.721,0,0,0-1.53-6.949c-1.414-3.061-2.357-27.805-2.357-27.805s-16.534-.1-17.124-1.746,7.207-15.905,7.207-15.905l4.754-.247,9.052-.481a42.575,42.575,0,0,1,3.62,2.258c1.852,1.3,3.863,2.944,4.276,4.276a12.848,12.848,0,0,0,1.177,3.1Z" transform="translate(-419.948 -425.658)" fill="#17254a"/>
      <path id="Pfad_339" data-name="Pfad 339" d="M664.333,794.87l-.2,2.379-7.115-.707.283-1.608c1.255.3,4.948,1.039,6.256.106A2.127,2.127,0,0,1,664.333,794.87Z" transform="translate(-458.457 -524.594)" opacity="0.1"/>
      <path id="Pfad_340" data-name="Pfad 340" d="M661.13,796.009a1.768,1.768,0,0,1,2.432,1.018c.75,1.81,2.428,5.743,2.428,5.743s3.711,3.446,1.46,6.669c-1.414,2.022-5.217,1.008-7.86-.032a7.327,7.327,0,0,1-3.11-2.513,1.154,1.154,0,0,0-.827-.46,3.464,3.464,0,0,1-1.569-.707,2.021,2.021,0,0,1-.816-1.725l.222-4.948s.265-3.439,1.1-3.223S659.716,797.027,661.13,796.009Z" transform="translate(-456.028 -525.21)" fill="#17254a"/>
      <path id="Pfad_341" data-name="Pfad 341" d="M594.664,515.784l-7.136,7.564-.2.212-.258-.152c-1.491-.884-8.953-5.387-8.313-6.74a13.881,13.881,0,0,0,.671-3.757c0-.166.021-.329.035-.488.071-1.092.088-1.94.088-1.94s13.431-2.3,12.9,0a4.491,4.491,0,0,0,.562,2.891c.134.265.283.516.427.753A11.692,11.692,0,0,0,594.664,515.784Z" transform="translate(-407.832 -340.061)" fill="#ffc4d0"/>
      <path id="Pfad_342" data-name="Pfad 342" d="M594.381,513.373a10.479,10.479,0,0,1-13.551-.951c.071-1.092.088-1.94.088-1.94s13.431-2.3,12.9,0A4.549,4.549,0,0,0,594.381,513.373Z" transform="translate(-409.195 -340.061)" opacity="0.1"/>
      <path id="Pfad_343" data-name="Pfad 343" d="M592.861,476.457a10.487,10.487,0,0,1-20.938,1q-.042-.495-.042-1a10.486,10.486,0,1,1,20.972,0Z" transform="translate(-403.409 -311.942)" fill="#ffc4d0"/>
      <path id="Pfad_344" data-name="Pfad 344" d="M592.781,474.607a2.508,2.508,0,0,1-1.972.534c-1.619-.353-2.174-2.827-3.828-3s-2.753,2.121-4.429,2.075a5.131,5.131,0,0,1-1.993-.8,6.319,6.319,0,0,0-4.242-.481c-1.848.633-2.474,2.343-3.655,3.7a5.389,5.389,0,0,1-.661.64q-.042-.495-.042-1a10.487,10.487,0,0,1,20.853-1.675Z" transform="translate(-403.46 -311.767)" opacity="0.1"/>
      <path id="Pfad_345" data-name="Pfad 345" d="M575.351,460.47a5.1,5.1,0,0,0,1.994.8c1.671.042,2.764-2.258,4.425-2.078s2.209,2.633,3.835,3c1.092.247,2.121-.569,2.937-1.329a4.676,4.676,0,0,0,1.262-1.552,3.919,3.919,0,0,0-.159-2.778,15.762,15.762,0,0,1-.954-2.683c-.2-1.124.032-2.354-.5-3.365a2.979,2.979,0,0,0-2.1-1.449,4.95,4.95,0,0,0-2.591.293,3.66,3.66,0,0,1-1.276.353,2.7,2.7,0,0,1-.937-.23,13.821,13.821,0,0,1-2.891-1.559,13.572,13.572,0,0,0-2.061-1.357,2.779,2.779,0,0,0-2.382-.1c-1.272.65-1.516,2.474-2.7,3.262a5.393,5.393,0,0,1-2.863.534,2.952,2.952,0,0,0-2.587,1.135,4.451,4.451,0,0,0-.156,2.492,6.4,6.4,0,0,1-.392,2.616c-.548,1.463-1.661,2.905-1.266,4.418.258.993,1.149,1.817,1.1,2.828a5.342,5.342,0,0,0-.067.788.583.583,0,0,0,.463.565.706.706,0,0,0,.4-.127,5.908,5.908,0,0,0,1.559-1.262c1.195-1.364,1.813-3.071,3.662-3.7A6.39,6.39,0,0,1,575.351,460.47Z" transform="translate(-398.252 -299.171)" fill="#5d2e45"/>
      <path id="Pfad_346" data-name="Pfad 346" d="M601.611,652.307l-1.908.52-4.408,1.212a10.656,10.656,0,0,1-3.389,1.686c-2.7.682-4.439-.8-5.889-3.1a1.508,1.508,0,0,1,.474-2.23c1.838-1.389,6.383-1.841,7.775-1.657a5.824,5.824,0,0,0,2.682-.417,10.4,10.4,0,0,0,1.736-.82Z" transform="translate(-412.35 -429.311)" fill="#ffc4d0"/>
      <path id="Pfad_347" data-name="Pfad 347" d="M622.2,652.288l-1.908.519c-.548-1.65-1.449-3.722-2.739-4.517a10.381,10.381,0,0,0,1.735-.82Z" transform="translate(-432.937 -429.291)" opacity="0.1"/>
      <path id="Pfad_348" data-name="Pfad 348" d="M636.418,644.108c-.792.64-1.463,1.223-1.463,1.223s-9.19,2.881-10.957,6.5c0,0-1.413-7.069-4.418-7.157,0,0,3.234-1.269,4.167-2.354l9.059-.473A41.826,41.826,0,0,1,636.418,644.108Z" transform="translate(-434.25 -425.658)" opacity="0.1"/>
      <path id="Pfad_349" data-name="Pfad 349" d="M634.987,569.85l2.032,3,.618,9.366s.177,9.013,0,9.367l.177-.354s-.353,3.535-1.414,4.153a37.135,37.135,0,0,0-3.446,2.686s-9.189,2.88-10.957,6.5c0,0-1.414-7.069-4.418-7.157,0,0,4.506-1.767,4.418-2.916,0,0,3.446-3.093,3.711-3.888s1.986-.884,1.986-.884.4-5.478-.4-6.362a7.472,7.472,0,0,1-1.237-2.563Z" transform="translate(-432.957 -379.106)" fill="#f0f4fa"/>
      <path id="Pfad_350" data-name="Pfad 350" d="M591.905,660.99c-2.7.682-4.439-.8-5.889-3.1a1.508,1.508,0,0,1,.474-2.23l.276.109S591.626,657.876,591.905,660.99Z" transform="translate(-412.35 -434.586)" opacity="0.1"/>
      <path id="Pfad_351" data-name="Pfad 351" d="M574.942,661.674c-3.181,4.418-9.1-1.725-9.543-2.962a2.712,2.712,0,0,0-1.46-1.17,15.734,15.734,0,0,0-2.739-.909l5.259-4.284,1.007.4,3.1,1.24S578.123,657.256,574.942,661.674Z" transform="translate(-396.504 -432.447)" fill="#ffc4d0"/>
      <path id="Pfad_352" data-name="Pfad 352" d="M567.454,652.753c-2.9,1.378-3.517,3.361-3.534,4.789a15.748,15.748,0,0,0-2.739-.909l5.259-4.284Z" transform="translate(-396.491 -432.447)" opacity="0.1"/>
      <path id="Pfad_353" data-name="Pfad 353" d="M540.291,652.956s-8.483-6.716-12.547-9.631a10,10,0,0,1-1.414-1.223c1.2-.757,2.1-1.251,2.1-1.251l10.455.424c.279.484.445.813.445.813l5.655,3.711C538.171,648.007,540.291,652.956,540.291,652.956Z" transform="translate(-373.958 -425.011)" opacity="0.1"/>
      <path id="Pfad_354" data-name="Pfad 354" d="M525.972,575.35l-1.679.972s-2.032,6.45-1.5,10.692c0,0-1.591,6.1-.972,7.069,0,0-.8,3.269,3.27,6.185s12.547,9.632,12.547,9.632-2.121-4.948,4.683-7.157l-5.655-3.711s-1.9-3.767-3.711-4.595c0,0-1.414-1.414-.53-2.386a5.038,5.038,0,0,0,1.591-3c0-.972.353-5.567.353-5.567l1.061-4.948Z" transform="translate(-370.95 -382.662)" fill="#f0f4fa"/>
      <path id="Pfad_355" data-name="Pfad 355" d="M600.173,560.729h-3.446a.456.456,0,0,1-.057-.063l.057-.29.442-1.145,2.962,1.145Z" transform="translate(-419.437 -372.24)" opacity="0.1"/>
      <path id="Pfad_356" data-name="Pfad 356" d="M600.24,546.54s-2.99,2.5-4.559,0c0,0-1.414,4.22,0,5.634h4.241S602.145,548.328,600.24,546.54Z" transform="translate(-418.391 -364.035)" fill="#8f9bb3"/>
      <path id="Pfad_357" data-name="Pfad 357" d="M610.121,523.35l4.453,1.149s-4.22,10.957-5.15,10.957l-5.344-2.562Z" transform="translate(-424.229 -349.041)" opacity="0.1"/>
      <path id="Pfad_358" data-name="Pfad 358" d="M609.942,523.891l-7.136,7.564-.2.212-.258-.152L608.588,522l.152.251A11.641,11.641,0,0,0,609.942,523.891Z" transform="translate(-423.11 -348.168)" opacity="0.1"/>
      <path id="Pfad_359" data-name="Pfad 359" d="M609.121,522.35l4.453,1.148s-4.22,10.957-5.15,10.957l-5.344-2.562Z" transform="translate(-423.582 -348.394)" fill="#e8eef6"/>
      <path id="Pfad_360" data-name="Pfad 360" d="M572.69,519.91l-3.86,1.216s3.8,11.487,4.86,12.105l6.892-2.563Z" transform="translate(-401.437 -346.817)" opacity="0.1"/>
      <path id="Pfad_361" data-name="Pfad 361" d="M587.529,529.263l-.2.212s-9.278-5.39-8.571-6.892a13.861,13.861,0,0,0,.672-3.757v-.216Z" transform="translate(-407.832 -345.976)" opacity="0.1"/>
      <path id="Pfad_362" data-name="Pfad 362" d="M573.69,518.91l-3.86,1.216s3.8,11.487,4.86,12.105l6.892-2.562Z" transform="translate(-402.084 -346.17)" fill="#e8eef6"/>
      <path id="Pfad_363" data-name="Pfad 363" d="M554.74,571.463a2.8,2.8,0,0,1,2.283,2.828c-.042,2.414.958-3.121.958-3.121Z" transform="translate(-392.327 -379.959)" opacity="0.1"/>
      <path id="Pfad_364" data-name="Pfad 364" d="M555.714,593a21.912,21.912,0,0,0,0,6.952c.647,3.3.59,4.418,1.092,4.594S555.714,593,555.714,593Z" transform="translate(-392.771 -394.073)" opacity="0.1"/>
      <path id="Pfad_365" data-name="Pfad 365" d="M638.194,592a1.28,1.28,0,0,0-1.06,1.651C637.431,595.128,638.194,592,638.194,592Z" transform="translate(-445.561 -393.427)" opacity="0.1"/>
      <path id="Pfad_366" data-name="Pfad 366" d="M525.91,626.718s7.574-.647,8.836.707S525.91,626.718,525.91,626.718Z" transform="translate(-373.687 -415.774)" opacity="0.1"/>
      <path id="Pfad_367" data-name="Pfad 367" d="M650.24,628.014s5.538-.682,6.836.261" transform="translate(-454.073 -416.558)" opacity="0.1"/>
      <path id="Pfad_368" data-name="Pfad 368" d="M656.58,631a17.675,17.675,0,0,1,4.065.53" transform="translate(-458.173 -418.643)" opacity="0.1"/>
      <path id="Pfad_369" data-name="Pfad 369" d="M658.41,634.327s3-.116,3.418.354" transform="translate(-459.356 -420.785)" opacity="0.1"/>
      <path id="Pfad_370" data-name="Pfad 370" d="M538.54,681.35s2.573,1.34,2.312,2.708S538.54,681.35,538.54,681.35Z" transform="translate(-381.853 -451.197)" opacity="0.1"/>
      <path id="Pfad_371" data-name="Pfad 371" d="M532.24,683.19s3.927,5.093,3.393,6.772S532.24,683.19,532.24,683.19Z" transform="translate(-377.78 -452.386)" opacity="0.1"/>
      <path id="Pfad_372" data-name="Pfad 372" d="M647.869,685.58s-1.944,1.6-1.891,2.923" transform="translate(-451.317 -453.932)" opacity="0.1"/>
      <path id="Pfad_373" data-name="Pfad 373" d="M524.33,774.85s0,1.5,2.782,3.711" transform="translate(-372.666 -511.65)" opacity="0.1"/>
      <path id="Pfad_374" data-name="Pfad 374" d="M657.744,764.85a6.7,6.7,0,0,1-3,4.743" transform="translate(-456.983 -505.184)" opacity="0.1"/>
      <g id="Gruppe_291" data-name="Gruppe 291" transform="translate(165.653 152.876)" opacity="0.1">
        <path id="Pfad_375" data-name="Pfad 375" d="M568.669,463.452c0-.244-.042-.495-.064-.742a7.128,7.128,0,0,0,.049,1.619A6.563,6.563,0,0,0,568.669,463.452Z" transform="translate(-566.928 -462.71)"/>
        <path id="Pfad_376" data-name="Pfad 376" d="M565.085,487.313c.053-1.025-.838-1.848-1.1-2.827a.961.961,0,0,1-.028-.145,2.73,2.73,0,0,0,.028,1.205c.209.809.838,1.5,1.036,2.287C565.043,487.648,565.078,487.482,565.085,487.313Z" transform="translate(-563.907 -476.695)"/>
        <path id="Pfad_377" data-name="Pfad 377" d="M591.863,479.264a4.713,4.713,0,0,1-1.262,1.552c-.823.76-1.845,1.576-2.937,1.329-1.623-.353-2.181-2.828-3.835-3s-2.753,2.121-4.425,2.075a5.135,5.135,0,0,1-1.993-.8,6.317,6.317,0,0,0-4.241-.481c-1.849.633-2.474,2.343-3.662,3.7a5.961,5.961,0,0,1-1.555,1.265.75.75,0,0,1-.4.124.492.492,0,0,1-.4-.318v.025a5.464,5.464,0,0,0-.067.792.583.583,0,0,0,.463.562.751.751,0,0,0,.4-.124,5.964,5.964,0,0,0,1.555-1.265c1.195-1.361,1.813-3.071,3.662-3.7a6.3,6.3,0,0,1,4.241.481,5.047,5.047,0,0,0,1.993.8c1.672.042,2.764-2.259,4.425-2.075s2.213,2.63,3.835,3c1.092.248,2.12-.569,2.937-1.329a4.713,4.713,0,0,0,1.262-1.552,2.98,2.98,0,0,0,.152-1.6A2.493,2.493,0,0,1,591.863,479.264Z" transform="translate(-565.965 -473.062)"/>
      </g>
      <path id="Pfad_378" data-name="Pfad 378" d="M500,814.051s2.888-.89,4.086.8" transform="translate(-356.935 -536.843)" opacity="0.1"/>
      <path id="Pfad_379" data-name="Pfad 379" d="M680.855,815.434s-4.782-.279-4.595,1.014" transform="translate(-470.893 -537.873)" opacity="0.1"/>
      <ellipse id="Ellipse_107" data-name="Ellipse 107" cx="14.212" cy="2.403" rx="14.212" ry="2.403" transform="translate(270.39 288.164)" fill="#91db00"/>
      <path id="Pfad_380" data-name="Pfad 380" d="M893.034,829.177a4.138,4.138,0,0,0,1.354-2.046,1.826,1.826,0,0,0-.948-2.082c-.87-.333-1.8.272-2.5.88A3.341,3.341,0,0,1,888.5,827.1a3.7,3.7,0,0,0,1.149-3.468,1.463,1.463,0,0,0-.322-.707c-.481-.516-1.357-.3-1.933.113-1.838,1.29-2.351,3.789-2.361,6.034A11.357,11.357,0,0,1,885,826.6a2.555,2.555,0,0,0-.932-2.2,2.814,2.814,0,0,0-1.414-.332,2.944,2.944,0,0,0-2.312.658,2.279,2.279,0,0,0,.092,2.827,9.006,9.006,0,0,0,2.393,1.916,5.306,5.306,0,0,1,1.707,1.63,1.48,1.48,0,0,1,.127.293h5.164A14.5,14.5,0,0,0,893.034,829.177Z" transform="translate(-602.554 -542.54)" fill="#91db00"/>
      <path id="Pfad_383" data-name="Pfad 383" d="M301.275,761.563c0,.894-.1,1.619-.223,1.619s-.223-.725-.223-1.619.124-.473.247-.473S301.275,760.669,301.275,761.563Z" transform="translate(-228.16 -502.689)" fill="#ffd037"/>
      <path id="Pfad_384" data-name="Pfad 384" d="M302.8,764.506c-.785.427-1.47.686-1.527.576s.527-.544,1.311-.972.477-.117.534,0S303.585,764.078,302.8,764.506Z" transform="translate(-228.444 -504.564)" fill="#ffd037"/>
    </g>
  </g>
</svg>
