<svg xmlns="http://www.w3.org/2000/svg" width="142.322" height="111.402" viewBox="0 0 142.322 111.402">
  <g id="Gruppe_339" data-name="Gruppe 339" transform="translate(-114.328 -262.762)">
    <g id="open" transform="translate(114.328 262.762)">
      <path id="Pfad_266" data-name="Pfad 266" d="M105.444,63.152,77.176,27.842a9.44,9.44,0,0,1-4.577,2.3A10.013,10.013,0,0,1,61,22.033a10.285,10.285,0,0,1,3.535-9.99L54.907,0,0,46.927l50.536,63.152Z" fill="#e7f2e1"/>
      <line id="Linie_55" data-name="Linie 55" x2="130.264" transform="translate(12.058 110.402)" fill="none" stroke="#3f3d56" stroke-miterlimit="10" stroke-width="2"/>
      <circle id="Ellipse_80" data-name="Ellipse 80" cx="2.171" cy="2.171" r="2.171" transform="translate(88.691 6.176)" fill="none" stroke="#17254a" stroke-miterlimit="10" stroke-width="2"/>
      <circle id="Ellipse_81" data-name="Ellipse 81" cx="2.171" cy="2.171" r="2.171" transform="translate(117.296 69.107)" fill="none" stroke="#17254a" stroke-miterlimit="10" stroke-width="2"/>
      <circle id="Ellipse_82" data-name="Ellipse 82" cx="2.171" cy="2.171" r="2.171" transform="translate(22.87 11.603)" fill="none" stroke="#17254a" stroke-miterlimit="10" stroke-width="2"/>
      <circle id="Ellipse_83" data-name="Ellipse 83" cx="7.965" cy="7.965" r="7.965" transform="translate(62.36 12.528)" fill="#e7f2e1"/>
      <path id="Pfad_267" data-name="Pfad 267" d="M129.758,109.4h35.295a7.515,7.515,0,0,1,7.32,5.853l17.838,79.1a6.065,6.065,0,0,1-4.577,7.247,8.093,8.093,0,0,1-1.042.147l-36.292,1.79a8.011,8.011,0,0,1-8.274-6.572L129.9,141.027l-.748.22-1.936-10.606.777-.191-2.831-15.608a4.625,4.625,0,0,1,3.726-5.369A4.313,4.313,0,0,1,129.758,109.4Z" transform="translate(-106.741 -93.352)" fill="#17254a"/>
      <path id="Pfad_268" data-name="Pfad 268" d="M180.64,121h4.122a5.18,5.18,0,0,1,5.061,4.078l17.119,78.467a3.217,3.217,0,0,1-2.45,3.829c-.161.029-.308.059-.469.073l-36.175,2.376a4.178,4.178,0,0,1-4.371-3.418l-14.611-81.092a3.656,3.656,0,0,1,2.934-4.239,3.2,3.2,0,0,1,.645-.059h3.9a1.726,1.726,0,0,1,1.658,1.276h0a1.523,1.523,0,0,0,1.467,1.13h18.557A2.646,2.646,0,0,0,180.64,121Z" transform="translate(-126.98 -103.25)" fill="#91db00"/>
      <rect id="Rechteck_261" data-name="Rechteck 261" width="37.422" height="0.191" transform="translate(27.754 38.038)" fill="#2f2e41"/>
      <rect id="Rechteck_262" data-name="Rechteck 262" width="37.788" height="0.191" transform="translate(28.869 44.023)" fill="#2f2e41"/>
      <path id="Pfad_269" data-name="Pfad 269" d="M187.993,242.282l.851-1.144-.161-.1-.733.983-2.831-2.318-.117.132Z" transform="translate(-157.862 -204.537)" fill="#2f2e41"/>
      <path id="Pfad_270" data-name="Pfad 270" d="M221.293,424.482l.851-1.13-.147-.117-.748.983-2.831-2.318-.117.147Z" transform="translate(-186.277 -360.01)" fill="#2f2e41"/>
      <rect id="Rechteck_263" data-name="Rechteck 263" width="39.182" height="0.191" transform="matrix(1, -0.021, 0.021, 1, 31.63, 65.314)" fill="#2f2e41"/>
      <rect id="Rechteck_264" data-name="Rechteck 264" width="39.93" height="0.191" transform="translate(32.084 70.842) rotate(-1.323)" fill="#2f2e41"/>
      <path id="Pfad_271" data-name="Pfad 271" d="M324,532.9a8.758,8.758,0,1,0,17.515,0v-.323A8.761,8.761,0,0,0,324,532.9Z" transform="translate(-276.471 -447.263)" fill="#689b02"/>
      <path id="Pfad_272" data-name="Pfad 272" d="M329.7,556.127v.323a8.758,8.758,0,0,0,16.679-3.741v-.323a8.758,8.758,0,0,0-16.679,3.741Z" transform="translate(-281.335 -467.069)" fill="#689b02"/>
      <circle id="Ellipse_84" data-name="Ellipse 84" cx="5.398" cy="5.398" r="5.398" transform="translate(96.26 29.06)" fill="#2f2e41"/>
      <path id="Pfad_273" data-name="Pfad 273" d="M718.194,692.687l1.027,4.4h-2.494L715.7,692.1Z" transform="translate(-610.711 -590.573)" fill="#9f616a"/>
      <path id="Pfad_274" data-name="Pfad 274" d="M636.194,696.1v4.107l-2.494.293v-4.4Z" transform="translate(-540.74 -593.986)" fill="#9f616a"/>
      <path id="Pfad_275" data-name="Pfad 275" d="M709.541,377.247s-.293,6.308-.587,6.748-2.934,6.748-2.934,6.748l-1.32-4.107s2.054-3.374,1.76-5.281a21.684,21.684,0,0,1-.1-4.254Z" transform="translate(-601.325 -321.782)" fill="#9f616a"/>
      <circle id="Ellipse_85" data-name="Ellipse 85" cx="4.107" cy="4.107" r="4.107" transform="translate(95.747 31.994)" fill="#9f616a"/>
      <path id="Pfad_276" data-name="Pfad 276" d="M674.688,249.1s-.147,5.868.88,6.748-5.868.147-5.868.147,1.467-4.107.293-4.988S674.688,249.1,674.688,249.1Z" transform="translate(-571.459 -212.559)" fill="#9f616a"/>
      <path id="Pfad_277" data-name="Pfad 277" d="M615.62,285.512s.88-1.614,2.054-1.467,4.988.44,5.134.733a8.755,8.755,0,0,0,.88,1.614c.293.293,2.494.733,2.641,2.494s-5.281,12.469-5.281,12.469a12.736,12.736,0,0,1,.587,3.081c-.147.587.733,2.347.587,3.081s2.2,5.134,1.027,10.855v9.242s3.961,15.99,2.787,17.163-5.134.44-5.868,0-3.814-22.591-3.814-22.591l-1.467-7.481-.147,16.43s.293,13.789-.734,14.229-4.988.587-5.281-.293c-.235-.689-1.35-18.953-1.834-26.962a29.977,29.977,0,0,1,.646-8.244c.616-2.773,1.5-6.029,2.508-7.349,1.907-2.494,3.081-10.415,3.081-10.415l-2.494-4.548s1.467-1.467,2.347-1.467A12.348,12.348,0,0,0,615.62,285.512Z" transform="translate(-517.82 -242.369)" fill="#17254a"/>
      <path id="Pfad_278" data-name="Pfad 278" d="M717.08,310.1l.777.528s.543,9.447.1,10.034-3.506.293-3.726-.22S717.08,310.1,717.08,310.1Z" transform="translate(-609.451 -264.61)" fill="#17254a"/>
      <path id="Pfad_279" data-name="Pfad 279" d="M567.413,363.767c.425,2.978.807,5.633-1.394,8.024a41.253,41.253,0,0,1-7.408,6.425c-.264.719-4.225,5.956-4.43,3.858s1.159-3.726,3.11-5.5,4.65-5.6,6.191-7.7.895-3.418.851-5.178S566.811,363.8,567.413,363.767Z" transform="translate(-472.869 -309.695)" fill="#9f616a"/>
      <path id="Pfad_280" data-name="Pfad 280" d="M621.68,707.9a5.013,5.013,0,0,1-.587,2.083,2.93,2.93,0,0,0-1.467,2.641c.147,1.614,1.1,1.687,1.1,1.687l-.073-.367.44.147.073.22h4.107a13.231,13.231,0,0,0-.073-2.274c-.147-.734-.147-4.254-.587-4.107s-1.614.293-1.907.88S621.534,709.191,621.68,707.9Z" transform="translate(-528.72 -604.055)" fill="#17254a"/>
      <path id="Pfad_281" data-name="Pfad 281" d="M714.687,707.9a5.012,5.012,0,0,0,.587,2.083,2.93,2.93,0,0,1,1.467,2.641c-.147,1.614-1.1,1.687-1.1,1.687l.073-.367-.44.147-.073.22h-4.107a13.222,13.222,0,0,1,.073-2.274c.147-.734.147-4.254.587-4.107s1.614.293,1.907.88S714.834,709.191,714.687,707.9Z" transform="translate(-606.765 -604.055)" fill="#17254a"/>
      <path id="Pfad_282" data-name="Pfad 282" d="M623.894,305.1l-2.054.44a16.181,16.181,0,0,1-.587,4.547c-.587,1.32-1.614,4.4-1.173,4.548s4.547,2.2,4.841,1.027S625.948,305.1,623.894,305.1Z" transform="translate(-529.027 -260.344)" fill="#17254a"/>
      <circle id="Ellipse_86" data-name="Ellipse 86" cx="5.398" cy="5.398" r="5.398" transform="translate(102.099 21.96)" fill="#2f2e41"/>
      <path id="Pfad_283" data-name="Pfad 283" d="M716.132,187.461a5.4,5.4,0,0,1-7.54-1.218,5.243,5.243,0,0,1-.792-1.628,5.4,5.4,0,0,0,10.709-1.35,8.162,8.162,0,0,0-.176-.865A5.416,5.416,0,0,1,716.132,187.461Z" transform="translate(-603.97 -155.643)" fill="#2f2e41"/>
      <circle id="Ellipse_87" data-name="Ellipse 87" cx="3.961" cy="3.961" r="3.961" transform="translate(99.136 31.392)" fill="#2f2e41"/>
      <ellipse id="Ellipse_88" data-name="Ellipse 88" cx="3.506" cy="2.743" rx="3.506" ry="2.743" transform="translate(96.26 31.128)" fill="#2f2e41"/>
      <ellipse id="Ellipse_89" data-name="Ellipse 89" cx="0.66" cy="1.174" rx="0.66" ry="1.174" transform="translate(98.167 35.515)" fill="#a0616a"/>
    </g>
  </g>
</svg>
