<svg xmlns="http://www.w3.org/2000/svg" width="18.723" height="18.723" viewBox="0 0 18.723 18.723">
  <g id="verified" transform="translate(0.2 0.2)">
    <g id="Gruppe_3" data-name="Gruppe 3" transform="translate(0)">
      <g id="Gruppe_2" data-name="Gruppe 2">
        <path id="Pfad_13" data-name="Pfad 13" d="M15.64,2.683A9.162,9.162,0,0,0,2.683,15.64,9.162,9.162,0,1,0,15.64,2.683ZM9.161,17.249a8.088,8.088,0,1,1,8.088-8.088A8.1,8.1,0,0,1,9.161,17.249Z" transform="translate(0 0)" fill="#8f9bb3" stroke="#8f9bb3" stroke-width="0.4"/>
      </g>
    </g>
    <g id="Gruppe_5" data-name="Gruppe 5" transform="translate(4.749 6.148)">
      <g id="Gruppe_4" data-name="Gruppe 4">
        <path id="Pfad_14" data-name="Pfad 14" d="M137.972,169.62a.522.522,0,0,0-.739,0l-4.613,4.613-2.428-2.428a.522.522,0,1,0-.739.739l2.8,2.8a.522.522,0,0,0,.739,0l4.982-4.982A.522.522,0,0,0,137.972,169.62Z" transform="translate(-129.301 -169.467)" fill="#8f9bb3" stroke="#8f9bb3" stroke-width="0.4"/>
      </g>
    </g>
  </g>
</svg>
